<?xml version="1.0" encoding="utf-8"?>
<!-- Generator: Adobe Illustrator 22.0.1, SVG Export Plug-In . SVG Version: 6.00 Build 0)  -->
<svg version="1.1" id="Laag_1" xmlns="http://www.w3.org/2000/svg" xmlns:xlink="http://www.w3.org/1999/xlink" x="0px" y="0px"
	 viewBox="0 0 256 256" style="enable-background:new 0 0 256 256;" xml:space="preserve">
<style type="text/css">
	.st0{fill:#134C8C;}
</style>
<g>
	<path class="st0" d="M234,257c-70.3,0-140.7,0-211,0c-10.3-4.7-13.1-12.9-13.1-23.8c0.3-59.6,0.1-119.2,0.1-178.9
		c0-1.5-0.1-3,0-4.5c0.6-10.6,7.7-17.6,18.3-17.8c4.8-0.1,9.7-0.3,14.5,0c3.5,0.2,4.9-0.9,4.4-4.4c-0.2-1.5,0-3,0-4.5
		c0-13,3.2-17.7,14.8-22.2c2.3,0,4.7,0,7,0c11.4,4.6,14.3,9.1,14.3,22c0,1.8,0.2,3.7,0,5.5c-0.3,2.9,0.9,3.6,3.7,3.6
		c28-0.1,55.9-0.1,83.9,0c3,0,4.3-0.7,3.9-3.9c-0.2-1.8,0.1-3.7-0.1-5.5C173.9,11.8,178.6,4.5,189,1c2.7,0,5.3,0,8,0
		c7.4,3.1,12.7,7.9,13.8,16.5c0.6,4.8-2.3,11.5,1.5,14c3.5,2.3,9.7,0.6,14.7,0.6c14.4,0,21,6.7,21,21.1c0,60.7-0.1,121.3,0.1,182
		C248.1,245.9,244.3,253.3,234,257z M129,229c28.2,0,56.3-0.1,84.5,0.1c3.7,0,4.7-0.9,4.7-4.6c-0.1-44.8-0.1-89.7,0-134.5
		c0-3.8-1-4.7-4.7-4.7c-56.3,0.1-112.7,0.1-169,0c-3.8,0-4.7,1.1-4.7,4.8c0.1,44.8,0.1,89.7,0,134.5c0,3.9,1.1,4.6,4.7,4.6
		C72.7,229,100.9,229,129,229z"/>
	<path class="st0" d="M79.4,200c-4.5,0-9-0.1-13.5,0c-3.1,0.1-4.7-1.2-4.7-4.3c0-9.3,0-18.6,0-27.9c0-2.9,1.4-4.3,4.2-4.3
		c9.5,0,18.9,0,28.4,0c2.6,0,4,1.4,3.9,4c0,9.5,0,18.9,0,28.4c0,2.9-1.6,4.1-4.4,4C88.7,199.9,84,200,79.4,200z"/>
	<path class="st0" d="M160.2,181.5c0-4.5,0.1-9,0-13.5c-0.1-3.1,1.4-4.6,4.5-4.5c9.3,0,18.6,0,27.9,0c2.8,0,4.2,1.3,4.2,4.3
		c-0.1,9.3-0.1,18.6,0,27.9c0,3.3-1.6,4.3-4.7,4.3c-9.1-0.1-18.3-0.1-27.4,0c-3.2,0-4.5-1.5-4.5-4.5
		C160.2,190.8,160.2,186.2,160.2,181.5z"/>
	<path class="st0" d="M79.4,150.4c-4.7,0-9.3,0-14,0c-2.9,0-4.3-1.3-4.2-4.2c0-9.3,0-18.6,0-27.9c0-2.9,1.3-4.3,4.2-4.2
		c9.5,0,18.9,0,28.4,0c2.7,0,3.9,1.4,3.9,4c0,9.5,0,18.9,0,28.4c0,3.1-1.7,4-4.5,4C88.7,150.4,84,150.4,79.4,150.4z"/>
	<path class="st0" d="M196.8,132.1c0,4.5-0.1,9,0,13.5c0.1,3.3-1.2,4.9-4.6,4.9c-9.1-0.1-18.3-0.1-27.4,0c-3.5,0-4.6-1.7-4.6-4.9
		c0.1-9,0-17.9,0-26.9c0-3,1.1-4.6,4.4-4.6c9.3,0.1,18.6,0.1,27.9,0c3.4,0,4.3,1.7,4.3,4.6C196.8,123.1,196.8,127.6,196.8,132.1z"/>
	<path class="st0" d="M147.2,181.7c0,4.5-0.1,9,0,13.5c0.1,3.3-1.1,4.8-4.6,4.8c-9-0.2-18-0.1-27,0c-3.4,0-4.8-1.3-4.7-4.7
		c0.1-9.2,0.1-18.3,0-27.5c0-3,1.2-4.3,4.1-4.3c9.3,0,18.7,0,28,0c2.9,0,4.3,1.2,4.2,4.2C147.1,172.4,147.2,177.1,147.2,181.7z"/>
	<path class="st0" d="M110.9,132c0-4.7,0.1-9.3,0-14c0-2.7,1.2-4,3.9-4c9.5,0,19,0,28.5,0c2.7,0,3.9,1.2,3.9,3.9
		c0,9.5-0.1,19,0,28.5c0,2.8-1.2,4-3.9,4c-9.5,0-19,0-28.5,0c-3,0-4-1.5-4-4.4C111,141.3,110.9,136.6,110.9,132z"/>
</g>
</svg>
