<?xml version="1.0" encoding="utf-8"?>
<!-- Generator: Adobe Illustrator 22.0.1, SVG Export Plug-In . SVG Version: 6.00 Build 0)  -->
<svg version="1.1" id="Laag_1" xmlns="http://www.w3.org/2000/svg" xmlns:xlink="http://www.w3.org/1999/xlink" x="0px" y="0px"
	 viewBox="0 0 256 256" style="enable-background:new 0 0 256 256;" xml:space="preserve">
<style type="text/css">
	.st0{fill:#144C8C;}
</style>
<g>
	<path class="st0" d="M257,28c0,50.3,0,100.7,0,151c-2.9,7.4-8.5,9.6-16.1,9.5c-26-0.2-52,0-78-0.2c-4,0-5.1,1.2-4.9,5.1
		c0.3,6,0.4,12,0,18c-0.3,4.1,0.9,5.4,5.2,5.3c9.1-0.3,18.3-0.2,27.5,0c7.6,0.2,12.2,4.4,12.5,10.9c0.3,7-4.6,11.9-12.4,11.9
		c-41.1,0.1-82.3,0-123.4,0c-1,0-2-0.1-3-0.2c-5.2-0.8-9-4.9-9.4-10.2c-0.5-6.7,3.8-12,10.9-12.2c10.1-0.4,20.3-0.3,30.5-0.2
		c2.8,0,3.8-0.7,3.7-3.7c-0.2-6.7-0.3-13.3,0-20c0.2-4-1.3-4.6-4.8-4.6c-26,0.1-52-0.1-78,0.2C9.5,188.6,4,186.2,1,179
		C1,128.3,1,77.7,1,27c3.9-6.9,10-8.5,17.6-8.5c74.1,0.2,148.1,0.2,222.2,0C248.4,18.5,254,20.6,257,28z M129,37.1
		c-34.8,0-69.6,0.1-104.5-0.1c-4,0-4.9,1.2-4.9,5c0.1,41,0.1,82,0,123c0,3.9,1,5,5,5c69.6-0.1,139.3-0.1,208.9,0c4,0,5-1.1,4.9-5
		c-0.1-41-0.1-82,0-123c0-3.9-1.1-5-5-5C198.6,37.2,163.8,37.1,129,37.1z"/>
	<path class="st0" d="M149.6,63.9c-0.2,0.9-0.5,2.4-1,3.8c-8.2,25.3-16.4,50.6-24.5,75.8c-1.8,5.6-5.4,8.1-9.8,6.8
		c-4.9-1.4-6.8-5.4-4.9-11.2c8.2-25.8,16.6-51.5,24.9-77.3c1.5-4.7,4.8-6.7,9.1-5.9C146.8,56.6,149.5,59.7,149.6,63.9z"/>
	<path class="st0" d="M81,103.5c8.1,3.8,15.3,7.1,22.5,10.5c5.3,2.6,7.3,6.8,5.2,11.2c-1.9,4.1-6.4,5.2-11.6,2.8
		c-11.9-5.5-23.8-11.1-35.7-16.5c-3.6-1.7-6.2-4-6.1-8.2c0.1-3.9,2.5-6.2,6-7.8C72.9,90.1,84.5,84.6,96,79.2c1-0.5,2.1-0.9,3.2-1.3
		c4.3-1.3,7.6-0.1,9.6,3.9c1.8,3.7,0.2,8-3.8,10.1c-6.4,3.2-12.9,6.1-19.4,9.1C84.3,101.7,83.1,102.4,81,103.5z"/>
	<path class="st0" d="M177.3,103.4c-7.9-3.7-15.1-7-22.3-10.4c-5.8-2.7-7.8-6.9-5.6-11.4c2-4.1,6.1-5.2,11.6-2.7
		c12.2,5.6,24.4,11.4,36.6,17c3.2,1.5,5,3.9,5.2,7.3c0.2,3.7-1.9,6.3-5.2,7.8c-12.4,5.8-24.7,11.5-37.1,17.2
		c-5.1,2.3-9.3,0.9-11.1-3.1c-1.9-4.3-0.2-8.4,4.9-10.9C161.7,110.6,169.1,107.1,177.3,103.4z"/>
</g>
</svg>
