<?xml version="1.0" encoding="utf-8"?>
<!-- Generator: Adobe Illustrator 22.0.1, SVG Export Plug-In . SVG Version: 6.00 Build 0)  -->
<svg version="1.1" id="Laag_1" xmlns="http://www.w3.org/2000/svg" xmlns:xlink="http://www.w3.org/1999/xlink" x="0px" y="0px"
	 viewBox="0 0 256 256" style="enable-background:new 0 0 256 256;" xml:space="preserve">
<style type="text/css">
	.st0{fill:#1E5491;}
</style>
<g>
	<path class="st0" d="M257,208c-5.4,10.1-14,13.1-25.2,13c-52.5-0.4-105-0.2-157.5-0.2c-1.3,0-2.7,0-4,0c-2.4,0-4.4-0.8-4.6-3.5
		c-0.1-2.9,1.8-4.1,4.5-4.1c1.3,0,2.7,0,4,0c53.8,0,107.6,0,161.5,0c9.9,0,14.7-5.3,14.3-15c-0.1-2.3-0.7-3.2-3.1-3.2
		c-28.7,0.1-57.3,0.1-86,0c-2.5,0-2.9,1.1-3,3.3c-0.5,10.8-0.6,10.8-11.6,10.8c-13.7,0-27.3,0-41,0c-6.3,0-7.1-0.9-7.1-7.3
		c0-6.8,0-6.8-6.9-6.8c-26.7,0-53.3,0.1-80-0.1c-4.1,0-5.5,0.9-5.2,5.1c0.4,7.9,5.2,13,13.3,13.1c10.2,0.1,20.3,0.1,30.5,0
		c2.8,0,5.9,0.2,6,3.7c0.1,3.9-3.1,4-6.1,4c-8.2,0-16.4-0.4-24.5,0.1c-9.5,0.5-17.8-1.4-24.1-8.9c0-8.3,0-16.7,0-25
		c4.7-0.4,11.1,2.1,13.7-1.2c2.3-2.9,0.7-8.9,0.7-13.6c0-37.8,0-75.6,0-113.4c0-7.5,1.6-14.2,7.8-19.1c3.9-3.2,8.5-4.5,13.4-4.5
		c60.9,0,121.9,0,182.8,0c13.2,0,21.1,8.8,21.1,23.1c0,36.8,0,73.6,0,110.4c0,1.3,0,2.7,0,4c0,4.3-1.4,9.5,0.5,12.7
		c2.2,3.7,7.9,0.7,12,1.5c1.3,0.2,2.6,0.6,3.8,1C257,194.7,257,201.3,257,208z M127.5,187c33.3,0,66.6-0.1,100,0.1
		c4.6,0,5.4-1.3,5.4-5.6c-0.2-33.7-0.1-67.3-0.1-101c0-11.5,0-11.5-11.8-11.5c-0.8,0-1.7,0-2.5,0c-2.7-0.1-5.2-0.8-5.1-4.1
		c0.1-2.9,2.4-3.8,4.9-3.9c3.7-0.1,7.3-0.1,11,0c2.5,0.1,3.5-0.6,3.5-3.3c0.3-9.4-4.8-14.8-14.6-14.8c-56.5,0-113,0-169.4,0
		c-4.3,0-8.7-0.1-13,0.1c-7.1,0.3-11.7,4.9-12.4,11.9C22.8,61,22.8,61,28.9,61c55,0,110,0,164.9,0c3.3,0,8.1-1.2,8.2,3.9
		c0.1,5.4-4.8,4-8,4c-55.1,0.1-110.3,0.1-165.4,0c-3.9,0-5.4,0.7-5.4,5.1c0.2,36,0.2,72,0,108c0,4.3,1.3,5.1,5.3,5.1
		C61.5,186.9,94.5,187,127.5,187z M128.1,201.2c6.2,0,12.3,0,18.5,0c2.1,0,3.8,0.1,3.8-3c0-2.8-1.1-3.3-3.6-3.2
		c-12.5,0.1-24.9,0.1-37.4,0c-2.5,0-3.5,0.5-3.5,3.3c0,3.1,1.7,3,3.8,3C115.8,201.1,121.9,201.2,128.1,201.2z"/>
	<path class="st0" d="M166.7,127.4c0,13.3,0,26.7,0,40c0,7.9-0.6,8.4-8.7,8.4c-4.2,0-8.3-0.1-12.5,0c-4.4,0.2-6.8-1.8-6.3-6.2
		c0.3-3.3-1.2-4.6-4.1-5.7c-11.9-4.2-23.8-8.5-35.6-13c-4.1-1.6-4.8-0.4-4.6,3.4c0.2,5.3,0,10.7,0.1,16c0,3.3-0.4,6.3-4.5,6.4
		c-4,0.1-8.6,1.4-10.2-4.4c-1.9-6.7-4.2-13.3-6-20c-0.8-2.9-2.1-3.9-5.2-3.9c-7.8-0.2-12.1-4.9-12.2-12.8c-0.1-5.5-0.1-11,0-16.5
		c0.2-8,4.8-13.6,12.7-12.8c18.5,1.8,35.1-3.9,51.7-10.6c3.7-1.5,7.5-2.9,11.3-4.1c4.1-1.3,7.7-2.6,6.8-8.3
		c-0.4-2.6,1.7-4.2,4.5-4.2c6,0,12,0,18,0c4,0,4.9,2.5,4.9,6C166.7,99.1,166.7,113.2,166.7,127.4z M139.2,157.2c0-19.5,0-38.2,0-57
		c0-3.3-1.7-2.4-3.5-1.7c-11.7,4.3-23.4,8.7-35.2,12.8c-2.7,0.9-3.6,2.3-3.5,5.1c0.2,4.8,0.1,9.7,0.1,14.5c0,10.7,0,10.7,10.3,14.6
		c0.6,0.2,1.2,0.6,1.8,0.8C119,149.8,128.8,153.4,139.2,157.2z M147.2,127.5c0,11.8,0.2,23.6-0.1,35.4c-0.1,4.6,1.7,5.3,5.5,4.9
		c3.3-0.3,6.7,1.1,6.6-4.9c-0.4-23-0.1-45.9-0.2-68.9c0-8.5,1.7-7.4-7.6-7.7c-3.3-0.1-4.3,0.9-4.2,4.2
		C147.3,102.9,147.2,115.2,147.2,127.5z M89.3,128.1c0-4.1-0.1-7.5,0-10.8c0.1-2.4-0.5-3.6-3.3-3.5c-5.3,0.2-10.7,0.1-16,0
		c-3.9-0.1-5.4,1.9-5.4,5.6c0,3.3,0,6.7,0,10c0,11.4,0,11.4,11.2,11.3c4.3,0,9.8,1.9,12.5-0.8C91.2,137.1,88.9,131.6,89.3,128.1z"/>
	<path class="st0" d="M128.1,55.9c-2.6,0-5.3,0-7.9,0c-2.5,0-4.3-1-4.5-3.6c-0.2-3,1.9-4.1,4.5-4.1c5.3-0.1,10.6-0.1,15.9,0.1
		c2.4,0.1,4.3,1.1,4.2,3.8c0,2.6-1.8,3.8-4.2,3.8C133.4,55.9,130.8,55.9,128.1,55.9C128.1,55.9,128.1,55.9,128.1,55.9z"/>
	<path class="st0" d="M194.4,86.5c1.3,0.3,2.5,0.9,3.2,2.1c0.8,1.5,0.7,3.1-0.6,4.1c-4.5,3.9-9.1,7.8-13.7,11.5
		c-1.4,1.1-3.2,0.8-4.6-0.4c-1.5-1.3-1.7-3.3-0.5-4.5c4.6-4.8,9.6-9.1,15.3-12.7C193.7,86.5,194,86.5,194.4,86.5z"/>
	<path class="st0" d="M181.1,149.3c0.5,0.1,1.1,0.1,1.4,0.4c5.2,3.9,10.4,7.8,14.8,12.6c1.2,1.3,0.9,3.1-0.6,4.5
		c-1.4,1.2-3.1,1.8-4.6,0.6c-4.7-3.7-9.3-7.6-13.8-11.5c-1.3-1.1-1.1-2.7-0.5-4.2C178.6,150.3,179.8,149.7,181.1,149.3z"/>
	<path class="st0" d="M188.4,131c-2.3,0-4.6,0.1-6.9,0c-2.3-0.1-3.8-1.4-3.8-3.7c-0.1-2.1,1.2-3.6,3.2-3.8
		c5.4-0.5,10.9-0.6,16.3,0.1c1.9,0.3,2.8,1.5,2.9,3.5c0,2.2-1.3,3.5-3.2,3.7C194.1,131.2,191.2,130.9,188.4,131
		C188.4,131,188.4,131,188.4,131z"/>
</g>
</svg>
