<?xml version="1.0" encoding="utf-8"?>
<!-- Generator: Adobe Illustrator 22.0.1, SVG Export Plug-In . SVG Version: 6.00 Build 0)  -->
<svg version="1.1" id="Laag_1" xmlns="http://www.w3.org/2000/svg" xmlns:xlink="http://www.w3.org/1999/xlink" x="0px" y="0px"
	 viewBox="0 0 256 256" style="enable-background:new 0 0 256 256;" xml:space="preserve">
<style type="text/css">
	.st0{fill:#1A518F;}
	.st1{fill:#235793;}
</style>
<g>
	<path class="st0" d="M110,257c-2.4-3.8-7-2.7-10.2-3.5c-12.5-3.1-24-7.7-35-14.7c-11.6-7.3-22.5-15.3-31.1-25.8
		c-6.1-7.4-12.1-15.2-16-24.2c-1-2.2,0.3-2.2,1.6-2.4c11.1-1.8,13.9-0.1,20.1,9.9c2,3.3,5.2,6.1,8.3,8.5c1.8,1.4,0.6,5.2,4.1,4.8
		c3.2-0.4,5.8-2,8.2-4.1c6.3-5.4,6.5-6.2,2.2-14.8c-1.8-3.7-0.7-4.3,2.7-4.4c4-0.1,8-0.6,9,4.9c1.1,5.5,5.2,4.1,8.1,2.7
		c10.9-5.5,22.2-8.3,34.6-7.6c9.6,0.6,19.3,0.6,29,0c10.8-0.7,20.3,3,29.7,7.1c5.4,2.3,6.4,2.2,9.4-2.7c2.4-4,6.1-4.8,10.3-4.2
		c1.7,0.2,2,1.1,2,2.7c-0.1,3-1.9,5.2-3,7.8c-1.4,3.1-1.9,5.1,2.1,7c2.7,1.3,4.9,3.8,7.8,5c2.1,0.9,4.6,1.9,5.3-1.9
		c0.1-0.5,0.3-1,0.7-1.3c5.9-4.7,9.3-11.5,14.4-16.8c2.1-2.2,13.4-3.7,16.1-2.3c1.7,0.9,1.3,2.4,0.5,3.4
		c-4.3,5.1-7.3,11.1-11.2,16.4c-4.7,6.4-10,12.3-15.7,17.6c-6,5.5-12.5,10.3-19.7,14.4c-5,2.8-9.8,5.9-15.1,8.1
		c-8.5,3.6-17.2,6.9-26.4,8.3c-1.9,0.3-4.1,0-5.3,2.1C134.7,257,122.3,257,110,257z M140.8,201.4c0.9-3.4-0.3-4.3-2.6-4.4
		c-6.1-0.5-12.2-0.6-18.4,0c-2.8,0.3-3.2,1.6-2.7,4c1.4,6.5,2.4,13.1,3.9,19.5c1.4,5.8,2.7,11.6,5.6,16.9c0.6,1,0.8,2.2,2.2,2.3
		c1.7,0.1,2.2-1.2,2.7-2.4c0.4-0.9,1-1.7,1.4-2.6C137,223.6,139,212,140.8,201.4z M149,236.7c0.4-0.3,1-0.6,1.6-1
		c10.3-6.7,17.6-16.1,23.9-26.4c1.2-2,0.3-3-1.7-3.7c-4.7-1.6-9.4-3.3-14.1-5.1c-2.1-0.8-3.4-0.2-3.7,1.9c-1.4,10.9-3.5,21.6-7.2,32
		C147.6,235.3,147.2,236.5,149,236.7z M109.8,237c1-2.2,0.4-3.5-0.1-4.6c-3-7.5-4.3-15.3-5.6-23.2c-1.9-11.2,0.3-10.3-11.3-6.4
		c-10.2,3.5-10.1,3.8-4.1,13C94.1,224.3,101.1,231.2,109.8,237z M193.6,217.5c-1.4-1.1-2.6-2.2-4-3c-1.3-0.7-2.2,0.3-2.8,1.4
		c-1.4,2.6-2.9,5.2-4.9,7.4c-0.4,0.4-0.5,1.4-0.3,1.8c0.5,0.9,1.5,0.5,2.1,0.1c2.9-1.9,5.7-3.9,8.6-5.9
		C192.8,219,193.1,218.3,193.6,217.5z M68.3,214.4c-0.9,0.8-2.4,1.8-3.2,3.1c-0.7,1.2,0.8,1.9,1.7,2.6c2.1,1.5,4.2,3.1,6.3,4.7
		c0.7,0.5,1.4,1.8,2.4,0.9c0.8-0.7,0.6-1.9-0.2-2.6c-2-1.9-2.9-4.3-4-6.7C71,215.2,70.2,214.3,68.3,214.4z"/>
	<path class="st1" d="M148,1c-0.1,0.3-0.1,0.7-0.2,1c-11.8-0.1-23.6-0.1-35.3-0.2c0.2-0.3,0.3-0.5,0.5-0.8C124.7,1,136.3,1,148,1z"
		/>
	<path class="st0" d="M112.5,1.8C124.3,1.9,136.1,2,147.8,2c8.9,2.1,17.8,4,26.4,7.2c5.9,2.2,11.4,5,16.7,8.2
		c6,3.6,12.1,7.1,17.3,11.7c6.8,5.9,13.9,11.7,18.6,19.8c2,3.5,5.2,6.2,7.4,9.6c1.9,2.9,3.3,6.3,5.9,9c2,2.1,1.1,3.7-2.1,4
		c-8.8,0.9-15.8-0.7-19.6-10.1c-1.4-3.4-5.4-5.8-8.2-8.6c-1.8-1.8-1.9-6.4-6.2-4.2c-6.5,3.4-10.8,5.9-9.7,12c0.5,2.6,0.2,5.3,2,7.6
		c1.1,1.4,0.8,2.8-1.4,3.3c-4.1,1-9.4-0.6-10.5-4.5c-1.6-5.8-5.5-4.4-8.4-2.9c-11.3,5.7-22.9,8.3-35.6,7.6c-10-0.5-20-0.5-30,0
		c-10.1,0.5-18.7-3.7-27.8-7c-6.2-2.2-6.9-3.6-9.7,3.1c-1.3,3.1-8.2,5.2-11,3.4c-1.4-0.9-1.1-2-0.4-3c1-1.4,1.5-2.9,1.6-4.6
		c0.3-2.7,3.9-5.8,1.5-7.8c-3.5-2.9-7.2-6.2-11.9-7.4c-1.1-0.3-3.1-0.7-3.4,1.1c-0.5,3.4-3.2,5.1-5.4,6.9c-4.2,3.5-5.7,8.8-9.7,12.3
		c-2.5,2.2-13.9,4.1-16.5,2.5c-1.7-1-1-2.4-0.3-3.4c3.1-4.3,5.7-9,8.8-13.4c5.3-7.5,11.1-14.8,18.3-20.6c6.2-5.1,12.6-9.9,19.5-14.2
		c5-3.1,10.1-6.1,15.5-8.4c5.7-2.4,11.4-4.6,17.5-5.9C102.3,4.1,107.4,2.9,112.5,1.8z M128.4,61.6c0.8,0,1.7,0,2.5,0
		c10.5-0.2,10.6-0.2,9-10.4c-1.5-9.3-3.6-18.6-6.8-27.5c-0.8-2-1.2-5.2-3.8-5.3c-3.1-0.1-3.3,3.4-4.1,5.5
		c-3.3,8.5-5.2,17.5-6.7,26.5C116.6,61.4,116.7,61.4,128.4,61.6z M148.2,21c-0.9,1.5-0.5,2.7-0.1,3.7c3.6,9,5.2,18.5,6.4,28
		c0.6,4.7,1.9,6.3,6.5,4c1.9-1,4.1-1.3,6.1-2.1c8.6-3.3,8.8-3.4,3.8-11.2C165.1,34.3,157.9,26.6,148.2,21z M110.2,24.3
		c0.2-1.3,0.3-2-0.5-2.3c-1.1-0.5-1.9,0.3-2.7,0.8c-9.4,6.9-16.6,15.7-22.6,25.6c-1.2,2-1,3.2,1.4,4.1c4,1.5,8.2,2.9,12.1,4.5
		c4.5,1.8,5.1-0.2,5.6-3.8c0.8-5.9,1.9-11.8,3.3-17.6C107.7,31.6,108.3,27.5,110.2,24.3z M193.2,40.3c-0.1-0.3-0.1-0.8-0.3-0.9
		c-3.4-2.3-6.7-4.8-10.2-6.8c-1.1-0.6-1.4,1-0.8,1.9c1.7,2.8,3.5,5.5,5.4,8.2c0.7,1.1,1.9,1.6,3,0.6
		C191.2,42.3,192.8,41.9,193.2,40.3z M76.5,33.1c-4.6,0.1-6.7,3.4-9.7,5c-1,0.5-2.3,1.4-1.5,2.7c0.8,1.2,2.1,2.1,3.3,2.8
		c1.2,0.6,2.4-0.3,2.7-1.5C72.3,38.9,74.5,36.4,76.5,33.1z"/>
	<path class="st1" d="M226.2,152.9c-5.7,2-7.8-1.7-8.4-5.8c-1.1-7.1-4.1-13.8-4.6-21.1c-0.1-2.2-0.9-3.5-3.2-3.5
		c-2.5,0-2.8,1.5-3,3.6c-0.5,8.7-4.5,16.7-6.2,25.1c-0.3,1.4-1.3,1.8-2.6,1.8c-1.3,0-2.7-0.3-4,0c-4.8,1.1-6.9-1.6-8-5.6
		c-2.2-7.9-4.2-15.8-6.8-23.5c-1.3-3.9-1.7-8-3.3-11.8c-0.9-2.2-2.2-5-0.5-6.4c2.3-1.9,5.8-0.8,8.7-0.6c2.3,0.1,3.5,2.2,3.6,4.2
		c0.4,9.4,4.6,18.2,4.3,27.6c-0.1,1.8,0.6,2.9,2.6,2.8c1.6-0.1,3.2-0.4,3.3-2.3c0.5-10,5.3-18.9,6.6-28.7c0.3-2.1,0.3-4.4,3.2-3.8
		c2.8,0.6,6.9-2.5,8.3,2.8c2.3,8.4,4.6,16.8,6.1,25.3c0.4,2.2,0,4.5,3,4.8c2.8,0.2,2.2-2.2,2.9-3.7c2.3-5.4,2.3-11.2,3.6-16.8
		c0.7-3.3,1.8-6.6,2.4-10c0.7-4.1,4.2-2.3,6.6-2.4c6-0.2,6.5,0.6,4.2,6c-3.5,8.3-5.1,17.2-8,25.7c-1.6,4.8-3.5,9.5-4.6,14.5
		C231.6,154.6,228.1,152.2,226.2,152.9z"/>
	<path class="st1" d="M64,153c-7.6,0-7.6-0.6-9.1-7.5c-1.5-6.9-3.9-13.5-4.5-20.6c-0.2-2-1.6-2.3-3.2-2.4c-2,0-2.3,1.2-2.5,2.9
		c-0.8,8.9-4.8,16.9-6.3,25.6c-0.1,0.5-0.3,1.2-0.7,1.3c-3.6,1.2-7.3,0.9-10.8,0.3c-2.3-0.4-3-2.9-3.6-5.4c-2.1-9-4.6-18-7.5-26.8
		c-1.3-3.9-1.6-8-3.2-11.9c-0.9-2.1,0.1-3.3,2.6-3.5c8-0.8,9.7,1,10.8,9.1c0.8,5.9,1.4,12,3.7,17.7c0.5,1.3,0.3,2.9,0.3,4.4
		c0,1.8,0,3.5,2.4,3.5c1.8,0,3.1-0.6,3.3-2.8c1-9.8,4.3-19.1,6.5-28.6c0.4-1.7,0.7-3.6,3-3.1c2.8,0.6,6.3-2.1,8.3,2.1
		c2.1,4.5,2.6,9.4,3.8,14.1c1.1,4.6,3,9.1,2.8,14c-0.1,2,1.6,2.9,3.4,2.8c1.8-0.2,2-1.7,2.3-3.3c1.8-9.3,3.4-18.6,6-27.7
		c1.3-4.5,6.1-1.7,9.3-1.8c3.4-0.2,2.1,3.1,1.6,4.5c-3.6,9.8-5.8,20-9.3,29.9c-0.9,2.6-2.2,5.5-2.5,7.9
		C70.3,153.1,67.5,153.6,64,153z"/>
	<path class="st1" d="M143.4,152.8c-4.7,1.4-5.8-1-6.7-5.5c-1.2-6.5-3.9-12.8-4.6-19.5c-0.2-1.4-1.1-4.2-3.9-3.7
		c-2.4,0.4-2.9,2.2-2.9,4.5c-0.2,7.3-4.4,13.7-5.1,21c-0.2,1.9-2.1,3.4-4.8,3.5c-9.1,0.4-10-0.6-12-9.8c-2.6-11.4-5.6-22.8-9.9-33.7
		c-1.2-3-0.7-4.9,3.1-4.6c1.2,0.1,2.4,0.2,3.5,0c4.1-0.7,5.5,0.8,6.2,5.2c1.3,8.4,3.8,16.6,4.3,25.2c0.1,1.6,1,3,2.5,3.4
		c1.9,0.6,2.3-1.2,3.1-2.4c1-1.4,1.8-2.6,1.8-4.4c0.2-7.9,3.8-15.2,4.9-23c0.8-5.2,5.8-3.6,9.5-3.8c3.5-0.2,2.7,2.4,3.1,4.5
		c1.9,8.1,3.9,16.1,5.9,24.2c0.2,1,0.4,2,0.3,2.9c-0.1,2.1,0.7,3.2,2.9,3.1c2.1-0.1,2.8-1.2,2.9-3.2c0.4-9.1,3.2-17.7,4.6-26.6
		c0.7-4.1,8.7-7.1,12.1-4.7c0.9,0.7,0.6,1.4,0.4,2.2c-2,6.9-3.5,13.9-6.2,20.5c-2.4,6-3.9,12.2-5.5,18.3
		C151.5,151.8,149,153.9,143.4,152.8z"/>
</g>
</svg>
