<?xml version="1.0" encoding="utf-8"?>
<!-- Generator: Adobe Illustrator 22.0.1, SVG Export Plug-In . SVG Version: 6.00 Build 0)  -->
<svg version="1.1" id="Laag_1" xmlns="http://www.w3.org/2000/svg" xmlns:xlink="http://www.w3.org/1999/xlink" x="0px" y="0px"
	 viewBox="0 0 1050 512" style="enable-background:new 0 0 1050 512;" xml:space="preserve">
<style type="text/css">
	.st0{fill:#114B8A;}
	.st1{fill:#FEFEFE;}
	.st2{fill:#47C8E2;}
	.st3{fill:#E9F0F4;}
	.st4{fill:#6AA6DA;}
	.st5{fill:#124B8C;}
	.st6{fill:#FFFFFF;}
</style>
<g>
	<path class="st0" d="M1,214C1,143,1,72,1,1c350,0,700,0,1050,0c0,120.7,0,241.3,0,362c-25.4,0-50.8,0-76.2,0c0.1-1.3,0.2-2.7,0.4-4
		c6.2-40-30-72-68.6-60.8c-21.3,6.2-44.2,29.4-37.3,64.8c-22.2,0-44.3,0-66.5,0c0.1-1.5,0.2-3,0.5-4.5c3-21.7-4.2-39.6-21.8-52.3
		c-17.7-12.7-37.3-14.3-56.4-3.9c-23.9,13-32,34.3-27.8,60.7c-22.9-2.3-47.6,7-68-10.9c-0.4-20.8-8.6-37.5-26.6-48.4
		c-16.9-10.2-34.5-9.5-52.2-2.3c-15.5-10.2-31-20.5-46.6-30.7c6.3-34.1-2.2-56.3-27.1-68c-23.9-11.3-45.2-5.6-64.1,11.7
		c-21,0-41.9,0-62.9-0.1c-10.7-22.2-27.8-35.1-53-34.1c-22.9,0.9-38.6,13.2-48.1,33.8c-28.7,0.1-57.3,0.1-86,0.2
		c-6.5-13.7-16-24.3-30.3-30.3c-23.6-9.8-56.7-2.1-71.1,30.3C41.2,214.2,21.1,214.1,1,214z M917.4,249.8c-2.6-4-4.9-7.6-7.4-11.3
		c2-2.3,3.9-4.6,5.9-6.9c-5.9-2.6-6.2,4.2-10.2,5.3c0-5.1,0-9.7,0-14.5c-1.5,0-2.6,0-3.9,0c0,9.3,0,18.3,0,27.6
		c1.4-0.1,2.6-0.2,3.8-0.3c0.3-2.8,0.5-5.1,0.9-9.3c2.8,4.2,4.6,6.9,6.3,9.5C914.3,249.8,915.6,249.8,917.4,249.8z M627.1,249.9
		c8.2,1.1,11.9-2.8,11.6-10.1c-0.4-11.3-8.8-8.2-15.5-8.5c0,9.2,0,18.2,0,27.5c1.3,0,2.5,0,3.9,0
		C627.1,255.8,627.1,253.2,627.1,249.9z M781.3,249.9c8.3,1.3,11.8-3,11.4-10.4c-0.5-10.9-8.8-8-15.4-8.2c0,9.2,0,18.3,0,27.7
		c1.4-0.1,2.6-0.2,4-0.3C781.3,255.6,781.3,253,781.3,249.9z M864.3,231.2c0,9.2,0,18.3,0,27.5c1.3,0,2.4,0,3.9,0c0-3,0-5.8,0-8.8
		c7.7,1,11.5-2.4,11.6-9.6C879.9,229.2,871.7,231.2,864.3,231.2z M843.9,231.1c0,6.4,0,12.5,0,18.9c1.4-0.2,2.6-0.3,4.1-0.4
		c0-4.8,0-9.3,0-13.5c1.7-1.6,3.1-2.6,5.3-1.4c0.2,0.4,0.8,0.9,0.8,1.5c0.3,4.5,0.5,8.9,0.8,13.4c1.4,0.5,2.8,1,3.9-0.5
		C859.4,232.9,859.4,232.9,843.9,231.1z M684.9,240.2c-0.5-5.1-2.2-9.2-8.2-9.2c-6.3-0.1-8.3,4.2-8.3,9.5c0,5.2,2,9.6,8.3,9.5
		S684.4,245.4,684.9,240.2z M703.9,240.5c-0.4-5.2-2-9.4-8.1-9.5c-6.3-0.1-8.4,4.1-8.4,9.5c0,5.1,1.9,9.3,7.9,9.5
		C701.7,250.1,703.3,245.7,703.9,240.5z M892.5,238.8c-4.7,0.4-10.9-0.1-10,6.2c1.4,9.4,9.6,2.2,16.5,7.1c-4.8-8.7,3.5-18.9-9.2-21
		c-2.6-0.4-6-0.6-6,4.3C887.8,234.5,892,231.9,892.5,238.8z M578.9,230.4c1.6-5,4.9-2.9,7.5-2.6c1.1-2.6-0.2-3.6-2.4-3.8
		c-3.5-0.3-6.8,0.1-8.4,3.8c-1.7,3.8-0.1,6.7,2.5,9.4c2.3,2.3,6.5,3.3,5.8,7.7c-2.5,3.8-5.8,1-8.6,1c-0.8,2.2-0.1,3.4,2,3.8
		c3.4,0.6,7.1,1.1,9.2-2C592.9,238.3,581,236.4,578.9,230.4z M767.6,238.6c-4.7,0.7-11.2,0.1-10,6.8c1.6,8.9,9.7,1.7,16.2,6.6
		c-4.4-8.5,3.6-18.2-8.3-20.9c-2.6-0.6-6.3-0.9-6.8,4.2C762.7,234.5,767,231.9,767.6,238.6z M815.5,238.6c-4.6,0.9-11.6,0.1-9.9,7.2
		c2,8.4,9.6,1.5,16.1,5.8c-4.4-8.3,3.3-17.8-8.2-20.5c-2.6-0.6-6.3-0.9-7,4C810.5,234.7,815.1,231.7,815.5,238.6z M617.9,249.8
		c-2.8-6.4,6.1-17.3-7.6-18.7c-4.4-0.5-5,0.5-4.8,4.2c3.5-1.1,7.4-2.8,8.1,3.5c-4.7,0.5-10.7-0.1-10.2,5.9
		C604.3,254.6,613.2,246.9,617.9,249.8z M834.4,238.8c-4.7,0.4-10.6,0.1-9.9,6c1.1,9.7,9.7,2.2,15.4,6.8c-2.5-7.7,2-14.7-4-19.6
		c-2.5-2-6.1-1.5-9-0.1c-1.4,0.7-1.5,2-0.3,3.2C832.8,233.3,833.5,233.6,834.4,238.8z M597.8,246.4c0-3.9,0-7.7,0-11.5
		c0.5-1.5,3.3-0.1,2.9-3c-0.8-0.4-1.9-0.9-2.9-1.4c-1-1.6,1.3-5.6-3.8-4.8c0,2.6-0.4,5.1-3.1,6.6c4.7,4.8,0.3,11.1,3.3,15.7
		c2,3,4.8,3,8.2-0.2C600.4,247.1,599.2,246.7,597.8,246.4z M751.7,246.2c0-4.2,0-7.6,0-10.8c0.2-2.2,3.7-0.7,3-3.8
		c-5.1,1.5-0.9-7.2-6.9-6.1c0.4,2.9-0.6,5.1-2.9,6.8c4.8,4.7,0.4,10.8,3.3,15.6c1.9,3.1,7.4,2.7,7.1-0.6
		C754.3,247.1,753.1,246.7,751.7,246.2z M660.7,249.8c1.9-6.2,3.8-12.3,5.7-18.3c-6.5,2.6-5.3,9.2-8.2,14.4
		c-1.4-5.3-2.7-9.9-3.9-14.6c-1.4,0-2.7,0-4.2,0c2.1,6.4,4.2,12.5,6.2,18.5C657.9,249.8,659.2,249.8,660.7,249.8z M731.6,246.1
		c-0.9,3.1,0.9,3.6,2.8,3.8c2.8,0.3,6,0.5,7.6-2.4c3.8-7.2-5.4-7.3-6.8-11.5c1.5-3.3,4.2-1,6.2-1.7c0.6-2.8-1-3.2-3-3.3
		c-2.6-0.1-5.3,0.1-6.5,2.7c-3.1,6.9,4.8,7.4,7.1,11.2C737,248.6,734.2,246.3,731.6,246.1z M708,231.5c0,6,0,12.1,0,18.7
		c1.5-0.3,2.7-0.5,4.2-0.8c0-4.8,0-9.2,0-12.8c1.5-2.6,7.2-0.4,4.7-5.1C713.8,231.5,711,231.5,708,231.5z M921.5,222.3
		c0.4,6.2,0.7,12,1,17.8c0.9-0.1,1.8-0.1,2.7-0.2c0-5.9,0-11.9,0-18C924.2,222.1,923,222.2,921.5,222.3z M926.2,244.8
		c-1.9-1.2-3.6-1.2-5.4,0.8c0.1,1.1,0.3,2.4,0.4,3.5c2,1.3,3.5,1.3,5,0.1C927.3,247.8,927.2,246.5,926.2,244.8z"/>
	<path class="st1" d="M412.6,214.4c18.9-17.3,40.2-23.1,64.1-11.7c24.9,11.8,33.4,34,27.1,68c-2.6,4.4-5.1,8.9-8,13.9
		c13.8,9,27.6,17.9,41.1,26.6c4.9-3.5,9.2-6.7,13.5-9.8c17.8-7.2,35.3-7.9,52.2,2.3c18.1,11,26.3,27.6,26.6,48.4c-1,5.5-2,11-3,16.7
		c8,6.2,15.9,11.2,27.2,10.5c16.6-1.1,33.3-0.3,50.2-0.3c-2.4-5.9-4.5-10.9-6.5-16c-4.2-26.4,3.9-47.6,27.8-60.7
		c19.1-10.4,38.8-8.9,56.4,3.9c17.7,12.7,24.9,30.5,21.8,52.3c-0.2,1.5-0.3,3-0.5,4.5c-2.1,5.2-4.2,10.3-6.3,15.6
		c26.5,0,52.7,0,79,0c-2.2-5.5-4.3-10.5-6.3-15.6c-6.9-35.4,16-58.6,37.3-64.8c38.6-11.2,74.8,20.8,68.6,60.8
		c-0.2,1.3-0.3,2.6-0.4,4c-2.1,5.2-4.2,10.3-6.5,16c27.9,0,55.3,0,82.7,0c0,44.7,0,89.3,0,134c-350,0-700,0-1050,0
		c0-94.3,0-188.7,0-283c18.9,0,37.8,0,56.7,0c1.3-5.7,2.5-10.7,3.6-15.7c14.4-32.4,47.5-40.1,71.1-30.3
		c14.3,5.9,23.8,16.6,30.3,30.3c1.2,5.1,2.4,10.2,3.7,15.5c26.3,0,52.3,0,78.2,0c1.4-5.4,2.8-10.5,4.1-15.7
		c9.5-20.6,25.2-33,48.1-33.8c25.2-1,42.3,11.9,53,34.1c1.2,5.1,2.4,10.3,3.6,15.4c16.8,0,33.3,0,49.5,0
		C406.2,224.4,409.4,219.4,412.6,214.4z M494.5,230.6c-0.3-3.2-0.6-6.4-0.9-9.2c-2-3.1-5.1-1.8-7.4-2.7c-0.9-1.1-1.7-2.4-2.8-3.4
		c-18.3-15.9-46.2-14.9-63.5,2.2c-17.5,17.3-18.7,45.5-2.8,63.9c16.4,18.9,44.3,22.1,63.9,7.2C499.5,274.8,506.2,245.4,494.5,230.6z
		 M339.3,257.2c11.5-15.6,8-41.7-7.7-57c-16.7-16.3-43.2-17.7-61.6-3.2c-18.1,14.3-23.5,40.3-12.1,59.2c0.5,0.9,0.9,1.8,1.4,2.8
		c1.3,1.8,2.4,3.6,3.8,5.2c19.9,24.3,62.5,21.5,75.1-5.1C338.5,258.5,338.9,257.9,339.3,257.2z M750.1,397
		c25.7,0,46.8-21.1,46.8-46.8c0-26.1-21-47.3-46.9-47.2c-26.3,0.1-47.2,21.1-47.1,47.5C703.1,376.1,724.3,397,750.1,397z M528,350
		c0,26,21.1,47,47.1,47c25.7,0,46.9-21,46.9-46.7c0-25.9-20.8-47.2-46.3-47.3C549.2,302.9,528,323.8,528,350z M969,350
		c0-25.9-21.1-47-47.1-47c-25.7,0-46.8,21.1-46.9,46.8c-0.1,25.8,20.8,47.2,46.4,47.2C947.8,397.1,969,376.2,969,350z M111.5,281
		c26,0.2,47.3-20.7,47.5-46.7c0.2-25.7-20.8-47.2-46.3-47.3c-26.2-0.2-47.6,20.6-47.7,46.4C64.8,259.6,85.6,280.8,111.5,281z"/>
	<path class="st2" d="M1051,379c-27.4,0-54.8,0-82.7,0c2.3-5.7,4.4-10.9,6.5-16c25.4,0,50.8,0,76.2,0
		C1051,368.3,1051,373.7,1051,379z"/>
	<path class="st2" d="M61.3,214.3c-1.2,5-2.3,10-3.6,15.7c-18.8,0-37.7,0-56.7,0c0-5.3,0-10.7,0-16
		C21.1,214.1,41.2,214.2,61.3,214.3z"/>
	<path class="st2" d="M248.6,214.1c-1.3,5.1-2.7,10.2-4.1,15.7c-25.9,0-51.9,0-78.2,0c-1.2-5.2-2.4-10.3-3.7-15.5
		C191.3,214.2,220,214.1,248.6,214.1z"/>
	<path class="st2" d="M697.2,363c2.1,5,4.1,10.1,6.5,16c-17,0-33.7-0.8-50.2,0.3c-11.3,0.7-19.3-4.3-27.2-10.5c1-5.7,2-11.2,3-16.7
		C649.6,370,674.3,360.7,697.2,363z"/>
	<path class="st2" d="M869.2,363c2,5.1,4.1,10.1,6.3,15.6c-26.4,0-52.5,0-79,0c2.1-5.3,4.2-10.4,6.3-15.6
		C824.9,363,847.1,363,869.2,363z"/>
	<path class="st2" d="M412.6,214.4c-3.2,5-6.4,10-9.8,15.4c-16.2,0-32.8,0-49.5,0c-1.2-5.2-2.4-10.3-3.6-15.4
		C370.7,214.3,391.6,214.4,412.6,214.4z"/>
	<path class="st2" d="M550.4,301.3c-4.3,3.1-8.6,6.2-13.5,9.8c-13.5-8.7-27.2-17.6-41.1-26.6c2.9-5,5.4-9.4,8-13.9
		C519.3,280.9,534.8,291.1,550.4,301.3z"/>
	<path class="st3" d="M917.4,249.8c-1.8,0-3.1,0-4.6,0c-1.7-2.6-3.5-5.3-6.3-9.5c-0.4,4.2-0.6,6.6-0.9,9.3c-1.2,0.1-2.4,0.2-3.8,0.3
		c0-9.3,0-18.3,0-27.6c1.3,0,2.5,0,3.9,0c0,4.8,0,9.4,0,14.5c4-1.1,4.3-7.8,10.2-5.3c-2,2.3-3.9,4.6-5.9,6.9
		C912.5,242.2,914.8,245.8,917.4,249.8z"/>
	<path class="st3" d="M627.1,249.9c0,3.3,0,5.9,0,8.8c-1.4,0-2.6,0-3.9,0c0-9.3,0-18.2,0-27.5c6.7,0.4,15.2-2.7,15.5,8.5
		C639,247.1,635.3,251,627.1,249.9z M627.5,235.5c0,3.7,0,7.3,0,10.8c2.9,1.3,5.2,0.6,6.1-1.8c1.2-3.1,1.6-6.6-1-9.4
		C630.9,233.3,629,233.8,627.5,235.5z"/>
	<path class="st3" d="M781.3,249.9c0,3.1,0,5.7,0,8.8c-1.4,0.1-2.6,0.2-4,0.3c0-9.4,0-18.5,0-27.7c6.6,0.2,14.9-2.6,15.4,8.2
		C793.1,246.9,789.6,251.2,781.3,249.9z M781.5,246.2c2.8,1.4,5.1,0.7,6.1-1.7c1.2-3.1,1.6-6.6-0.9-9.4c-1.6-1.8-3.6-1.3-5.2,0.4
		C781.5,239.1,781.5,242.7,781.5,246.2z"/>
	<path class="st3" d="M864.3,231.2c7.4-0.1,15.5-2,15.5,9.1c-0.1,7.2-3.9,10.6-11.6,9.6c0,3,0,5.8,0,8.8c-1.5,0-2.5,0-3.9,0
		C864.3,249.5,864.3,240.5,864.3,231.2z M868.5,246.2c2.9,1.4,5.2,0.7,6.1-1.7c1.2-3.1,1.6-6.6-1-9.4c-1.7-1.8-3.6-1.3-5.1,0.4
		C868.5,239.1,868.5,242.7,868.5,246.2z"/>
	<path class="st3" d="M843.9,231.1c15.5,1.8,15.5,1.8,15,18c-1.1,1.5-2.5,1-3.9,0.5c-0.2-4.5-0.4-9-0.8-13.4c0-0.6-0.6-1.1-0.8-1.5
		c-2.2-1.2-3.7-0.2-5.3,1.4c0,4.2,0,8.7,0,13.5c-1.5,0.2-2.7,0.3-4.1,0.4C843.9,243.6,843.9,237.5,843.9,231.1z"/>
	<path class="st3" d="M684.9,240.2c-0.5,5.2-1.9,9.7-8.2,9.7c-6.3,0.1-8.3-4.2-8.3-9.5s2-9.6,8.3-9.5
		C682.7,231.1,684.4,235.2,684.9,240.2z M677.4,233.8c-5,1.3-4.8,4.6-4.7,7.8c0.1,2.8,0.9,5.2,4.9,5.5
		C681.5,242.6,681.7,238.3,677.4,233.8z"/>
	<path class="st3" d="M703.9,240.5c-0.6,5.2-2.2,9.6-8.6,9.4c-6.1-0.1-7.9-4.4-7.9-9.5c0-5.4,2.1-9.6,8.4-9.5
		C701.9,231.1,703.5,235.4,703.9,240.5z M696.4,233.8c-5,1.3-4.8,4.7-4.7,7.8c0.1,2.8,0.9,5.2,5,5.5
		C700.5,242.6,700.7,238.3,696.4,233.8z"/>
	<path class="st3" d="M892.5,238.8c-0.5-6.8-4.7-4.3-8.7-3.5c-0.1-4.8,3.4-4.7,6-4.3c12.7,2.1,4.3,12.4,9.2,21
		c-6.9-4.9-15.1,2.3-16.5-7.1C881.6,238.7,887.8,239.2,892.5,238.8z M886.9,242.7c-0.4,2.9,0.1,4.5,2.9,4.2c2.7-0.4,3.4-2.1,2.3-4.9
		C890.3,242.2,888.7,242.4,886.9,242.7z"/>
	<path class="st3" d="M578.9,230.4c2.1,6,14,7.9,7.7,17.3c-2.1,3.1-5.9,2.6-9.2,2c-2.1-0.4-2.8-1.6-2-3.8c2.8,0,6,2.8,8.6-1
		c0.7-4.4-3.5-5.4-5.8-7.7c-2.7-2.7-4.2-5.6-2.5-9.4c1.7-3.7,4.9-4.1,8.4-3.8c2.2,0.2,3.5,1.1,2.4,3.8
		C583.8,227.6,580.5,225.4,578.9,230.4z"/>
	<path class="st3" d="M767.6,238.6c-0.5-6.7-4.9-4.1-8.9-3.4c0.4-5.1,4.2-4.8,6.8-4.2c11.9,2.7,3.9,12.4,8.3,20.9
		c-6.5-4.9-14.6,2.3-16.2-6.6C756.3,238.7,762.9,239.3,767.6,238.6z M761.7,243.7c-0.1,2.8,1.4,3.6,3.4,3.1c2.4-0.5,2.9-2.2,2-4.4
		C765.1,241.8,763.3,241.8,761.7,243.7z"/>
	<path class="st3" d="M815.5,238.6c-0.5-6.8-5-3.8-8.9-3.5c0.7-4.9,4.4-4.6,7-4c11.5,2.7,3.8,12.2,8.2,20.5
		c-6.6-4.3-14.1,2.5-16.1-5.8C803.9,238.6,810.9,239.4,815.5,238.6z M809.7,243.8c0,2.5,1.3,3.5,3.4,3.1c2.4-0.5,3-2.1,2.1-4.4
		C813.2,241.8,811.4,241.8,809.7,243.8z"/>
	<path class="st3" d="M617.9,249.8c-4.7-2.9-13.5,4.8-14.4-5.2c-0.5-6,5.5-5.4,10.2-5.9c-0.7-6.3-4.6-4.6-8.1-3.5
		c-0.3-3.7,0.3-4.6,4.8-4.2C624,232.5,615,243.4,617.9,249.8z M607.6,244.1c0.3,2.7,1.8,3.3,3.9,2.7c2.1-0.6,2.6-2.2,1.8-4.3
		C611.2,241.8,609.2,241.6,607.6,244.1z"/>
	<path class="st3" d="M834.4,238.8c-0.9-5.2-1.6-5.5-7.8-3.6c-1.2-1.2-1.1-2.5,0.3-3.2c3-1.5,6.5-2,9,0.1c6,4.9,1.5,11.9,4,19.6
		c-5.7-4.5-14.3,3-15.4-6.8C823.8,238.8,829.7,239.1,834.4,238.8z M828.6,243.9c0.1,2.8,1.7,3.5,3.7,2.9c2.3-0.6,2.9-2.3,1.8-4.5
		C832,241.8,830.1,241.8,828.6,243.9z"/>
	<path class="st3" d="M597.8,246.4c1.4,0.4,2.5,0.7,4.7,1.3c-3.4,3.2-6.2,3.3-8.2,0.2c-3-4.6,1.4-10.9-3.3-15.7
		c2.6-1.5,3-4.1,3.1-6.6c5.1-0.8,2.8,3.2,3.8,4.8c1.1,0.5,2.1,1,2.9,1.4c0.4,3-2.5,1.5-2.9,3C597.8,238.6,597.8,242.4,597.8,246.4z"
		/>
	<path class="st3" d="M751.7,246.2c1.4,0.5,2.6,0.8,3.7,1.2c0.3,3.3-5.2,3.7-7.1,0.6c-2.9-4.7,1.6-10.9-3.3-15.6
		c2.3-1.7,3.3-4,2.9-6.8c5.9-1.1,1.7,7.6,6.9,6.1c0.7,3.1-2.8,1.6-3,3.8C751.7,238.6,751.7,242.1,751.7,246.2z"/>
	<path class="st3" d="M660.7,249.8c-1.5,0-2.8,0-4.5,0c-2-6-4-12.1-6.2-18.5c1.5,0,2.8,0,4.2,0c1.3,4.7,2.5,9.3,3.9,14.6
		c2.8-5.2,1.7-11.8,8.2-14.4C664.5,237.6,662.6,243.6,660.7,249.8z"/>
	<path class="st3" d="M731.6,246.1c2.6,0.1,5.4,2.4,7.3-1.3c-2.3-3.8-10.1-4.3-7.1-11.2c1.2-2.6,3.9-2.8,6.5-2.7
		c2.1,0.1,3.7,0.5,3,3.3c-2,0.7-4.7-1.5-6.2,1.7c1.4,4.2,10.6,4.3,6.8,11.5c-1.6,2.9-4.7,2.7-7.6,2.4
		C732.5,249.8,730.6,249.2,731.6,246.1z"/>
	<path class="st3" d="M708,231.5c3,0,5.8,0,8.9,0c2.5,4.7-3.2,2.5-4.7,5.1c0,3.6,0,8,0,12.8c-1.5,0.3-2.7,0.5-4.2,0.8
		C708,243.6,708,237.5,708,231.5z"/>
	<path class="st3" d="M921.5,222.3c1.4-0.2,2.7-0.3,3.7-0.4c0,6.2,0,12.1,0,18c-0.9,0.1-1.8,0.1-2.7,0.2
		C922.2,234.3,921.9,228.5,921.5,222.3z"/>
	<path class="st3" d="M926.2,244.8c1,1.7,1.1,3,0,4.3c-1.5,1.2-3,1.2-5-0.1c-0.1-1.1-0.3-2.4-0.4-3.5
		C922.6,243.7,924.3,243.6,926.2,244.8z"/>
	<path class="st4" d="M750.1,397c-25.8,0-47.1-20.9-47.1-46.5c-0.1-26.4,20.8-47.4,47.1-47.5c25.9-0.1,46.9,21.2,46.9,47.2
		C796.9,375.9,775.9,397,750.1,397z M769.1,368.1c0.9-1.1,1.8-2.3,2.8-3.6c7.6,1.8,10.1-2.7,11.5-8.9c-5.5-1.3-9.7-0.3-11.3,5.3
		c-0.7,2.5-2.3,2.4-4.2,2.1c0.1-5.8-2.7-8-8.4-6.7c0.6,5.3,3.6,7.2,8.5,6.6c0.2,1.6,0.4,3.1,0.6,4.7c0.1,5.1-7,3.3-7.8,7.8
		c5.1,0,9.8,0,14.5,0C775.2,371,768.1,373.2,769.1,368.1z M741.7,354.1c2.1,1,3.6,1.8,5.1,2.3c3.7,1.2,8.3,5.1,10.6-0.8
		c2.2-5.4-3.9-5.2-6.7-7.3c-6.4-5-15.7-7-15.4-18.4c0.1-5.1-5.2-7.3-10.2-4.7c-10.6,5.6-11.6,24.7-1.7,31.1c-2.5,2.6-7.2,5-3.4,9.3
		c3.7,4.2,6.9,0.3,9.8-2C733.8,360.5,737.6,357.3,741.7,354.1z M751.1,318.3c-0.8-5.1-3.5-8.4-9.1-8.3c-5.4,0.1-8.5,3.4-8.6,8.5
		c-0.1,5.4,3.3,8.9,8.7,8.9C747.5,327.4,750.5,324,751.1,318.3z"/>
	<path class="st4" d="M528,350c0-26.2,21.2-47,47.7-46.9c25.5,0.1,46.4,21.4,46.3,47.3c0,25.7-21.2,46.7-46.9,46.7
		C549.1,397,528,375.9,528,350z M571.7,359.7c-1.3-12.2-22.3-23.2-33.3-17.2c-0.5,3.9-1.1,8,0.8,10.6c18.2,17.6,39.9,16.5,62.5,11.1
		C592.9,358.1,582,361.3,571.7,359.7z M579.8,322.7c-5.9,6.7-6.7,9.5-5.1,16.8c4.5,0,9,0,13.8,0c0.2-3.6,0.4-6.9,0.7-11.5
		c6.4,2.6,2.2,8.4,4.9,11.5c4.4,0,8.9,0,13.3,0c2.1-7.3-1.6-12.2-5.6-17.5c-4.7,2.4-9.4,2.8-14.7,2.8
		C585.1,323.9,583,322,579.8,322.7z M593.4,355.3c4.7,0.1,9.4,1.5,14.2-1.3c0-3.1,0-6.2,0-9.5c-4.8,0-9.4,0-14.2,0
		C593.4,348.1,593.4,351.2,593.4,355.3z M588.6,344.6c-5.2,0-9.7,0-14.1,0c0,3.5,0,6.6,0,9.9c4.9,1.6,9.4,1.5,14.1,0.5
		C588.6,351.5,588.6,348.3,588.6,344.6z"/>
	<path class="st4" d="M257.9,256.2c-11.3-18.9-6-44.9,12.1-59.2c18.4-14.5,44.9-13.2,61.6,3.2c15.7,15.3,19.2,41.4,7.7,57
		c-0.1-5.5-0.3-10.9-0.3-16.4c0-5.4,0.7-11.4-5.9-13.3c-6.4-1.8-12.5-0.8-16.8,5.3c-3.8,5.3-9,8.8-15.6,9.7
		c-2.6,0.4-5.1,1.5-4.5,4.7c0.7,3.4,3.5,3.9,6.2,3.1c4.8-1.4,9.6-3.2,14.9-5.1c0,4.5,0,8.8,0,13.9c7.3,0,14.1,0,20.9,0
		c-12.7,26.5-55.2,29.4-75.1,5.1c-1.4-1.7-2.5-3.5-3.8-5.2c6.7,0,13.5,0,20.8,0c0-5.3,0-9.7,0-14.4c4.8,2,8.4,5.3,13.3,5
		c0.2-2.5,0.4-4.8,0.5-7.4c-6.2-1.9-10.6-6.3-14.7-11.2c-4.2-5-10.1-5.1-15.6-3.3c-5.3,1.7-5.7,6.6-5.6,11.6
		C258.1,244.9,257.9,250.6,257.9,256.2z M337.2,215.5c-0.5-5.8-3.7-9.2-9.2-9.1c-5.6,0-9,3.5-9,9.2s3.6,9.1,9.1,9.1
		C333.7,224.6,336.8,221.1,337.2,215.5z M269.3,206.2c-5.4,0.6-9.1,3.2-9.4,9s3.2,9.2,8.7,9.5c5.6,0.3,9.1-3,9.4-8.7
		C278.3,210.1,274.6,207.3,269.3,206.2z"/>
	<path class="st4" d="M969,350c0,26.2-21.2,47.1-47.6,47c-25.5-0.1-46.5-21.4-46.4-47.2c0.1-25.7,21.2-46.8,46.9-46.8
		C947.9,303,969,324.1,969,350z M949.6,323.6c-18.5,0-36.7,0-55.3,0c0,9.2,0,18.1,0,27.3c18.5,0,36.7,0,55.3,0
		C949.6,341.8,949.6,333,949.6,323.6z M906.9,357.1c-1.9,5.6-3.7,10.8-5.4,16c-1,3.1-3.3,6.8,1.4,8.4c4.4,1.5,5-2.8,6.1-5.6
		c2.4-6.4,4.5-12.8,6.7-19.2c2.3,5.7,2.3,10.9,2.3,16.1c0,2.8,1,5.1,4.2,5c2.9-0.1,3.8-2.4,3.8-4.9c0-5.2,0-10.4,0-15.6
		c4.7,6.5,7.3,13.5,9.7,20.5c1,2.9,2.5,5,5.7,3.8c3-1.2,2.7-3.7,1.8-6.3c-2.1-5.9-4-11.8-6.5-18.8c6.4,0,11.7,0,17,0
		c0-0.5-0.1-1.1-0.1-1.6c-21.1,0-42.2,0-63.2,0c0,0.6-0.1,1.1-0.1,1.7C895.6,356.6,901,356.9,906.9,357.1z M953.7,320.2
		c0-0.5,0-0.9,0-1.4c-21.1,0-42.2,0-63.3,0c0,0.5,0,0.9,0,1.4C911.5,320.2,932.6,320.2,953.7,320.2z"/>
	<path class="st4" d="M111.5,281c-25.9-0.2-46.7-21.4-46.5-47.6c0.2-25.8,21.5-46.6,47.7-46.4c25.5,0.2,46.5,21.6,46.3,47.3
		C158.8,260.3,137.5,281.2,111.5,281z M101.3,206.5c-0.2-3.5-0.2-7-4.2-7.3c-4.9-0.4-4.3,4.1-5.6,7.6c-9.3-2.1-8.4,4.3-8.4,10.3
		c0.1,8.8,0,17.7,0,26.5c0.1,20.3-2.4,17.2,17.6,17.3c12.9,0.1,25.8,0,39.4,0c0-18.5,0-35.8,0-53.4c-3.1-0.6-5.4-1-8-1.5
		c-0.3-3.2-0.4-6.7-4.4-6.9c-4.8-0.3-4.3,4.1-5.4,7.3C115.6,206.5,108.8,206.5,101.3,206.5z"/>
	<path class="st4" d="M494.5,230.6c11.7,14.8,5,44.2-13.4,58.1c-19.7,14.9-47.5,11.8-63.9-7.2c-16-18.4-14.7-46.6,2.8-63.9
		c17.3-17.1,45.3-18.1,63.5-2.2c1.1,0.9,1.8,2.2,2.8,3.4c-19.6,0.1-39.3,0.5-58.9,0.3c-6.2-0.1-8.7,1.6-8.4,8.2
		c0.5,11.5,0.3,23,0,34.5c-0.1,5.4,1.6,7.6,7.2,7.4c7.1-0.3,14.2-0.1,21.3-0.1c0.7,3.1,1.2,5.5-0.3,7.9c-3.8,0.2-7.6,0.5-10.7,0.7
		c-1.8,2.3-1.8,3.8-0.2,5.8c13.4,0,27.2,0,40.6,0c1.5-2.2,1.5-3.7-0.4-5.7c-3.3-0.2-7.1-0.5-11-0.8c0-2.7,0-5,0-8.1
		c9.4,0,18.4,0,29.1,0C494.5,255.4,494.5,243,494.5,230.6z"/>
	<path class="st0" d="M494.5,230.6c0,12.4,0,24.8,0,38c-10.7,0-19.7,0-29.1,0c0,3.1,0,5.4,0,8.1c3.8,0.3,7.7,0.6,11,0.8
		c1.9,2,1.9,3.5,0.4,5.7c-13.4,0-27.1,0-40.6,0c-1.6-2-1.6-3.5,0.2-5.8c3.1-0.2,6.8-0.4,10.7-0.7c1.4-2.4,1-4.8,0.3-7.9
		c-7.1,0-14.2-0.2-21.3,0.1c-5.5,0.3-7.3-2-7.2-7.4c0.3-11.5,0.4-23,0-34.5c-0.3-6.6,2.3-8.2,8.4-8.2c19.6,0.2,39.3-0.2,58.9-0.3
		c2.4,0.9,5.4-0.4,7.4,2.7C493.9,224.2,494.2,227.4,494.5,230.6z M488.2,263c0-13,0-25.3,0-37.9c-21.4,0-42.3,0-63.5,0
		c0,12.8,0,25.1,0,37.9C446,263,466.9,263,488.2,263z"/>
	<path class="st0" d="M338.1,259.1c-6.8,0-13.5,0-20.9,0c0-5.1,0-9.3,0-13.9c-5.4,1.9-10.1,3.6-14.9,5.1c-2.8,0.8-5.6,0.3-6.2-3.1
		c-0.6-3.3,1.9-4.4,4.5-4.7c6.7-0.9,11.8-4.3,15.6-9.7c4.3-6,10.4-7.1,16.8-5.3c6.7,1.9,5.9,7.9,5.9,13.3c0,5.5,0.2,10.9,0.3,16.4
		C338.9,257.9,338.5,258.5,338.1,259.1z"/>
	<path class="st0" d="M257.9,256.2c0-5.6,0.2-11.3,0.1-16.9c-0.1-4.9,0.2-9.9,5.6-11.6c5.5-1.7,11.4-1.7,15.6,3.3
		c4.1,4.9,8.5,9.3,14.7,11.2c-0.2,2.6-0.4,4.8-0.5,7.4c-4.9,0.3-8.5-3-13.3-5c0,4.8,0,9.1,0,14.4c-7.4,0-14.1,0-20.8,0
		C258.8,258.1,258.3,257.1,257.9,256.2z"/>
	<path class="st0" d="M627.5,235.5c1.5-1.7,3.4-2.1,5.1-0.4c2.6,2.7,2.2,6.3,1,9.4c-0.9,2.4-3.2,3.1-6.1,1.8
		C627.5,242.8,627.5,239.2,627.5,235.5z"/>
	<path class="st0" d="M781.5,246.2c0-3.5,0-7.1,0-10.7c1.6-1.7,3.5-2.2,5.2-0.4c2.5,2.8,2.2,6.3,0.9,9.4
		C786.6,246.9,784.3,247.6,781.5,246.2z"/>
	<path class="st0" d="M868.5,246.2c0-3.5,0-7.1,0-10.7c1.6-1.7,3.5-2.2,5.1-0.4c2.5,2.8,2.2,6.3,1,9.4
		C873.6,246.9,871.3,247.6,868.5,246.2z"/>
	<path class="st0" d="M677.4,233.8c4.3,4.6,4.1,8.8,0.2,13.2c-4-0.2-4.8-2.6-4.9-5.5C672.7,238.4,672.4,235.1,677.4,233.8z"/>
	<path class="st0" d="M696.4,233.8c4.3,4.5,4,8.8,0.3,13.2c-4-0.2-4.9-2.7-5-5.5C691.7,238.5,691.4,235.1,696.4,233.8z"/>
	<path class="st0" d="M886.9,242.7c1.7-0.3,3.4-0.5,5.1-0.8c1.1,2.9,0.4,4.6-2.3,4.9C887,247.2,886.5,245.6,886.9,242.7z"/>
	<path class="st0" d="M761.7,243.7c1.6-2,3.4-1.9,5.5-1.3c0.9,2.2,0.4,3.9-2,4.4C763.1,247.3,761.7,246.5,761.7,243.7z"/>
	<path class="st0" d="M809.7,243.8c1.7-2,3.5-2,5.6-1.3c0.9,2.3,0.3,3.9-2.1,4.4C810.9,247.3,809.7,246.3,809.7,243.8z"/>
	<path class="st0" d="M607.6,244.1c1.6-2.5,3.5-2.3,5.7-1.6c0.8,2.1,0.3,3.7-1.8,4.3C609.4,247.4,607.9,246.8,607.6,244.1z"/>
	<path class="st0" d="M828.6,243.9c1.5-2.1,3.4-2,5.4-1.6c1.2,2.2,0.6,3.9-1.8,4.5C830.3,247.4,828.7,246.7,828.6,243.9z"/>
	<path class="st0" d="M741.7,354.1c-4,3.2-7.9,6.4-11.8,9.5c-2.9,2.3-6.1,6.1-9.8,2c-3.8-4.3,0.9-6.6,3.4-9.3
		c-9.9-6.3-8.9-25.5,1.7-31.1c5-2.6,10.3-0.3,10.2,4.7c-0.2,11.4,9.1,13.4,15.4,18.4c2.7,2.1,8.8,2,6.7,7.3c-2.4,5.9-7,1.9-10.6,0.8
		C745.2,355.9,743.8,355,741.7,354.1z"/>
	<path class="st0" d="M751.1,318.3c-0.6,5.7-3.6,9.1-9,9.1s-8.8-3.5-8.7-8.9c0.1-5.1,3.1-8.4,8.6-8.5
		C747.6,310,750.3,313.3,751.1,318.3z"/>
	<path class="st0" d="M768,363c1.9,0.3,3.4,0.4,4.2-2.1c1.7-5.7,5.8-6.6,11.3-5.3c-1.4,6.3-3.9,10.7-11.5,8.9
		c-1,1.3-1.9,2.4-2.8,3.6c-0.2-0.1-0.3-0.3-0.5-0.4C768.4,366.1,768.2,364.6,768,363L768,363z"/>
	<path class="st0" d="M769.1,368.1c-1,5.1,6.1,2.9,6.2,7.4c-4.7,0-9.4,0-14.5,0c0.8-4.5,7.8-2.8,7.8-7.8
		C768.8,367.8,769,368,769.1,368.1z"/>
	<path class="st0" d="M768,363c-4.9,0.6-7.8-1.4-8.5-6.6C765.3,355,768,357.3,768,363L768,363z"/>
	<path class="st0" d="M571.7,359.7c10.2,1.7,21.1-1.6,30,4.5c-22.6,5.4-44.3,6.5-62.5-11.1c-1.9-2.6-1.3-6.7-0.8-10.6
		C549.5,336.5,570.4,347.4,571.7,359.7z"/>
	<path class="st0" d="M579.8,322.7c3.2-0.7,5.3,1.2,7.3,2c5.2,0,10-0.4,14.7-2.8c4,5.4,7.7,10.2,5.6,17.5c-4.4,0-9,0-13.3,0
		c-2.6-3,1.5-8.8-4.9-11.5c-0.3,4.6-0.5,7.8-0.7,11.5c-4.8,0-9.3,0-13.8,0C573.1,332.2,574,329.4,579.8,322.7z"/>
	<path class="st0" d="M593.4,355.3c0-4.2,0-7.3,0-10.8c4.8,0,9.3,0,14.2,0c0,3.3,0,6.4,0,9.5C602.8,356.8,598.1,355.4,593.4,355.3z"
		/>
	<path class="st0" d="M588.6,344.6c0,3.6,0,6.9,0,10.4c-4.7,1-9.2,1-14.1-0.5c0-3.3,0-6.3,0-9.9
		C578.9,344.6,583.4,344.6,588.6,344.6z"/>
	<path class="st0" d="M337.2,215.5c-0.4,5.6-3.5,9.1-9.1,9.1c-5.5,0-9.1-3.3-9.1-9.1c0-5.7,3.4-9.2,9-9.2
		C333.6,206.4,336.7,209.8,337.2,215.5z"/>
	<path class="st0" d="M269.3,206.2c5.4,1.1,9,3.9,8.7,9.7c-0.3,5.7-3.9,9-9.4,8.7s-8.9-3.7-8.7-9.5
		C260.2,209.4,263.9,206.7,269.3,206.2z"/>
	<path class="st0" d="M949.6,323.6c0,9.5,0,18.2,0,27.3c-18.5,0-36.7,0-55.3,0c0-9.2,0-18.1,0-27.3
		C912.9,323.6,931.1,323.6,949.6,323.6z M909.7,349.2c3.6-4.3,7.1-8.4,12-14.1c2.6,4.2,4.6,7.2,7,11.1c4.7-5.3,8.2-9.3,12.1-13.6
		c1,1.8,1.7,2.9,2.6,4.5c2.4-3.4,1.3-6.3,1.1-9.5c-3.2-0.3-6.2-1.5-9.2,1.2c1.5,0.9,2.5,1.5,3,1.8c-3.1,3.6-6,6.9-9.1,10.4
		c-2.9-2.7-5.4-5.1-8.8-8.3c-3.5,4.5-6.8,8.6-10.1,12.8c-2.5-1.8-3.8-2.8-5.3-3.9c-2.3,2.1-5.2,3.4-5.8,8.1c2.5-1.8,4.1-3,5.9-4.3
		C906.4,346.5,907.6,347.5,909.7,349.2z"/>
	<path class="st0" d="M906.9,357.1c-5.9-0.3-11.3-0.5-16.6-0.8c0-0.6,0.1-1.1,0.1-1.7c21.1,0,42.2,0,63.2,0c0,0.5,0.1,1.1,0.1,1.6
		c-5.3,0-10.6,0-17,0c2.4,7.1,4.4,13,6.5,18.8c0.9,2.6,1.2,5.2-1.8,6.3c-3.3,1.3-4.8-0.9-5.7-3.8c-2.4-7-5-13.9-9.7-20.5
		c0,5.2,0,10.4,0,15.6c0,2.6-0.8,4.8-3.8,4.9c-3.2,0.1-4.2-2.2-4.2-5c0-5.2,0-10.4-2.3-16.1c-2.2,6.4-4.4,12.9-6.7,19.2
		c-1,2.8-1.7,7.1-6.1,5.6c-4.7-1.6-2.4-5.3-1.4-8.4C903.3,367.9,905,362.8,906.9,357.1z"/>
	<ellipse class="st0" cx="923.1" cy="319.5" rx="32.7" ry="1"/>
	<path class="st0" d="M101.3,206.5c7.5,0,14.3,0,21.1,0c1.1-3.1,0.6-7.5,5.4-7.3c4,0.2,4.1,3.7,4.4,6.9c2.6,0.5,4.9,0.9,8,1.5
		c0,17.6,0,35,0,53.4c-13.6,0-26.5,0.1-39.4,0c-20-0.2-17.4,2.9-17.6-17.3c-0.1-8.8,0.1-17.7,0-26.5c-0.1-6-1-12.4,8.4-10.3
		c1.3-3.5,0.7-8,5.6-7.6C101.1,199.5,101.1,203,101.3,206.5z M91.2,220c0,11.6,0,22.6,0,33.7c14.3,0,28.2,0,42.1,0
		c0-11.4,0-22.5,0-33.7C119.2,220,105.4,220,91.2,220z"/>
	<path class="st4" d="M488.2,263c-21.3,0-42.2,0-63.5,0c0-12.7,0-25.1,0-37.9c21.2,0,42.1,0,63.5,0C488.2,237.6,488.2,250,488.2,263
		z M462,237c-1-2.1,1.9-5-2-7c-5.4,6-4.3,14.9-9,21.1c0.2-5.1-5.4-4.4-7.4-7.2c2.2-2.3,6.5-1.7,7.3-6.8c-6.8-0.1-11.6,2.9-17.1,7.4
		c6.3,3.1,10.7,7.3,17.2,6.5c1.1,2-2.1,5.4,2.7,6.8C456.5,250.9,459.3,243.9,462,237c-0.2,5,5.5,4.2,7.4,7.1
		c-2.1,2.5-6.5,1.7-7.2,6.8c6.6,0.3,11.2-3,16.9-7C473.1,240.3,468.6,236.2,462,237z"/>
	<path class="st4" d="M909.7,349.2c-2.1-1.7-3.3-2.7-4.6-3.8c-1.8,1.3-3.4,2.5-5.9,4.3c0.6-4.7,3.6-5.9,5.8-8.1
		c1.5,1.1,2.8,2,5.3,3.9c3.3-4.1,6.5-8.3,10.1-12.8c3.4,3.2,5.9,5.6,8.8,8.3c3.1-3.5,6-6.9,9.1-10.4c-0.5-0.3-1.5-0.9-3-1.8
		c3-2.6,6-1.4,9.2-1.2c0.2,3.1,1.3,6.1-1.1,9.5c-0.9-1.6-1.6-2.7-2.6-4.5c-3.8,4.3-7.3,8.3-12.1,13.6c-2.4-3.8-4.4-6.9-7-11.1
		C916.8,340.8,913.3,345,909.7,349.2z"/>
	<path class="st4" d="M91.2,220c14.2,0,28,0,42.1,0c0,11.3,0,22.3,0,33.7c-14,0-27.8,0-42.1,0C91.2,242.6,91.2,231.7,91.2,220z
		 M108.2,234.8c3.1,0,5.5,0,7.9,0c0.7-3,1.2-5.5-0.4-8c-2.5,0-4.9,0-7.6,0C108.2,229.6,108.2,232,108.2,234.8z M116.3,238.8
		c-3.2-0.5-5.9-1.4-8.6,0.9c0.1,2.2,0.2,4.5,0.3,7c2.9,0,5.4,0,8.2,0C116.3,244,116.3,241.6,116.3,238.8z M120.3,238.6
		c0,2.9,0,5.4,0,8.1c2.9,0,5.4,0,8,0c0.5-3,1.1-5.5-0.5-8.1C125.3,238.6,122.9,238.6,120.3,238.6z M120.3,226.7c0,3,0,5.4,0,8
		c2.9,0,5.4,0,8.1,0c0-2.9,0-5.3,0-8C125.5,226.7,123.1,226.7,120.3,226.7z M104.5,239c-3.3-0.9-5.8-1.2-8.4,0.2c0,2.5,0,4.9,0,7.6
		c2.8,0,5.1,0,7.9,0C104.2,244.1,104.4,241.7,104.5,239z M104.5,235c-0.2-3.1-0.3-5.6-0.4-8.2c-3,0-5.3,0-7.7,0
		c-0.6,3-1,5.5,0.5,8.2C99.1,235,101.3,235,104.5,235z"/>
	<path class="st0" d="M451,251c-6.5,0.8-10.9-3.4-17.2-6.6c5.5-4.5,10.3-7.5,17.1-7.4c-0.9,5.1-5.1,4.5-7.3,6.8
		C445.5,246.7,451.2,246,451,251L451,251z"/>
	<path class="st0" d="M462,237c6.6-0.8,11.1,3.3,17.1,6.8c-5.6,4-10.2,7.2-16.9,7c0.6-5.1,5.1-4.3,7.2-6.8
		C467.5,241.2,461.8,242,462,237C462.1,236.9,462,237,462,237z"/>
	<path class="st0" d="M450.9,251.1c4.7-6.2,3.7-15.1,9-21.1c3.9,2,1,4.9,2,7l0.1-0.1c-2.8,7-5.5,13.9-8.3,20.9
		C448.9,256.4,452.1,253,450.9,251.1C451,251,450.9,251.1,450.9,251.1z"/>
	<path class="st0" d="M108.2,234.8c0-2.8,0-5.2,0-8c2.6,0,5,0,7.6,0c1.6,2.5,1.1,5.1,0.4,8C113.6,234.8,111.3,234.8,108.2,234.8z"/>
	<path class="st0" d="M116.3,238.8c0,2.8,0,5.2,0,7.9c-2.8,0-5.3,0-8.2,0c-0.1-2.5-0.2-4.8-0.3-7
		C110.4,237.4,113.1,238.3,116.3,238.8z"/>
	<path class="st0" d="M120.3,238.6c2.6,0,5,0,7.5,0c1.6,2.6,1,5.1,0.5,8.1c-2.6,0-5.1,0-8,0C120.3,244,120.3,241.5,120.3,238.6z"/>
	<path class="st0" d="M120.3,226.7c2.9,0,5.3,0,8.1,0c0,2.7,0,5.1,0,8c-2.6,0-5.1,0-8.1,0C120.3,232.2,120.3,229.8,120.3,226.7z"/>
	<path class="st0" d="M104.5,239c-0.2,2.7-0.3,5.1-0.5,7.8c-2.8,0-5.1,0-7.9,0c0-2.7,0-5.1,0-7.6C98.7,237.8,101.2,238.1,104.5,239z
		"/>
	<path class="st0" d="M104.5,235c-3.1,0-5.4,0-7.7,0c-1.5-2.7-1.1-5.2-0.5-8.2c2.4,0,4.8,0,7.7,0C104.2,229.4,104.3,231.9,104.5,235
		z"/>
</g>
<rect x="569.8" y="218.7" class="st5" width="364.5" height="42.3"/>
<g>
	<path class="st6" d="M590.1,225.8l-5,2.5v-2.5c0-1.7-0.8-2.5-2.5-2.5s-2.5,0.8-2.5,2.5c0,3,1.7,6,5,8.8c3.4,2.9,5,6.6,5,11.3
		c0,5-2.5,7.5-7.5,7.5s-7.5-2.5-7.5-7.5l5-2.5v2.5c0,1.7,0.8,2.5,2.5,2.5s2.5-0.8,2.5-2.5c0-3-1.7-6-5-8.8c-3.4-2.9-5-6.6-5-11.3
		c0-5,2.5-7.5,7.5-7.5S590.1,220.8,590.1,225.8z"/>
	<path class="st6" d="M602.7,223.3v30.2h-5v-30.2h-5v-5h15.1v5H602.7z"/>
	<path class="st6" d="M613.6,243.4h2.9l0.9,5h-4.7l-0.9,5h-5.1l6.2-35.2h6.5l6.2,35.2h-5.1l-4.3-24.5L613.6,243.4z"/>
	<path class="st6" d="M627.4,218.3h7.5c5,0,7.5,2.5,7.5,7.5s-2.5,7.5-7.5,7.5h-2.5v20.1h-5V218.3z M632.5,228.3h2.5
		c1.7,0,2.5-0.8,2.5-2.5s-0.8-2.5-2.5-2.5h-2.5V228.3z"/>
	<path class="st6" d="M658.1,253.5l-6.2-35.2h5.1l4.3,24.5l4.3-24.5h5.1l-6.2,35.2H658.1z"/>
	<path class="st6" d="M672.7,245.9v-20.1c0-5,2.5-7.5,7.5-7.5s7.5,2.5,7.5,7.5v20.1c0,5-2.5,7.5-7.5,7.5S672.7,251,672.7,245.9z
		 M677.7,225.8v20.1c0,1.7,0.8,2.5,2.5,2.5s2.5-0.8,2.5-2.5v-20.1c0-1.7-0.8-2.5-2.5-2.5S677.7,224.1,677.7,225.8z"/>
	<path class="st6" d="M690.3,245.9v-20.1c0-5,2.5-7.5,7.5-7.5s7.5,2.5,7.5,7.5v20.1c0,5-2.5,7.5-7.5,7.5S690.3,251,690.3,245.9z
		 M695.3,225.8v20.1c0,1.7,0.8,2.5,2.5,2.5s2.5-0.8,2.5-2.5v-20.1c0-1.7-0.8-2.5-2.5-2.5S695.3,224.1,695.3,225.8z"/>
	<path class="st6" d="M707.9,218.3h7.5c5,0,7.5,2.5,7.5,7.5c0,4.3-1.8,6.8-5.5,7.4l7.8,20.3h-5.4l-7-18.1v18.1h-5v-35.2H707.9z
		 M712.9,228.3h2.5c1.7,0,2.5-0.8,2.5-2.5s-0.8-2.5-2.5-2.5h-2.5V228.3z"/>
	<path class="st6" d="M748.2,225.8l-5,2.5v-2.5c0-1.7-0.8-2.5-2.5-2.5s-2.5,0.8-2.5,2.5c0,3,1.7,6,5,8.8c3.4,2.9,5,6.6,5,11.3
		c0,5-2.5,7.5-7.5,7.5s-7.5-2.5-7.5-7.5l5-2.5v2.5c0,1.7,0.8,2.5,2.5,2.5s2.5-0.8,2.5-2.5c0-3-1.7-6-5-8.8c-3.4-2.9-5-6.6-5-11.3
		c0-5,2.5-7.5,7.5-7.5S748.2,220.8,748.2,225.8z"/>
	<path class="st6" d="M760.7,223.3v30.2h-5v-30.2h-5v-5h15.1v5H760.7z"/>
	<path class="st6" d="M771.6,243.4h2.9l0.9,5h-4.7l-0.9,5h-5.1l6.2-35.2h6.5l6.2,35.2h-5.1l-4.3-24.5L771.6,243.4z"/>
	<path class="st6" d="M785.5,218.3h7.5c5,0,7.5,2.5,7.5,7.5s-2.5,7.5-7.5,7.5h-2.5v20.1h-5V218.3z M790.5,228.3h2.5
		c1.7,0,2.5-0.8,2.5-2.5s-0.8-2.5-2.5-2.5h-2.5V228.3z"/>
	<path class="st6" d="M816.9,243.4h2.9l0.9,5H816l-0.9,5H810l6.2-35.2h6.5l6.2,35.2h-5.1l-4.3-24.5L816.9,243.4z"/>
	<path class="st6" d="M837,243.4h2.9l0.9,5h-4.7l-0.9,5h-5.1l6.2-35.2h6.5l6.2,35.2h-5.1l-4.3-24.5L837,243.4z"/>
	<path class="st6" d="M855.9,232.6v20.9h-5v-35.2h5.3l7.3,20.8v-20.8h5v35.2h-5.3L855.9,232.6z"/>
	<path class="st6" d="M871,218.3h7.5c5,0,7.5,2.5,7.5,7.5s-2.5,7.5-7.5,7.5H876v20.1h-5V218.3z M876,228.3h2.5
		c1.7,0,2.5-0.8,2.5-2.5s-0.8-2.5-2.5-2.5H876V228.3z"/>
	<path class="st6" d="M892,243.4h2.9l0.9,5h-4.7l-0.9,5h-5.1l6.2-35.2h6.5l6.2,35.2h-5.1l-4.3-24.5L892,243.4z"/>
	<path class="st6" d="M910.9,245.9v7.5h-5v-35.2h5v12.9l4.7-12.9h5.4l-5.5,15l7.8,20.2h-5.4l-5-13L910.9,245.9z"/>
	<path class="st6" d="M923.5,245.9v-27.7h5v27.7H923.5z M928.5,248.5v5h-5v-5H928.5z"/>
</g>
</svg>
