<?xml version="1.0" encoding="utf-8"?>
<!-- Generator: Adobe Illustrator 22.0.1, SVG Export Plug-In . SVG Version: 6.00 Build 0)  -->
<svg version="1.1" id="Laag_1" xmlns="http://www.w3.org/2000/svg" xmlns:xlink="http://www.w3.org/1999/xlink" x="0px" y="0px"
	 viewBox="0 0 256 256" style="enable-background:new 0 0 256 256;" xml:space="preserve">
<style type="text/css">
	.st0{fill:#134B8C;}
	.st1{fill:#144D8D;}
</style>
<g>
	<path class="st0" d="M257,212c-21.3,0-42.6-0.1-63.9,0.1c-4,0-5.4-0.7-5.3-5.1c0.3-13.8,0.1-27.6,0.1-41.2
		c-1.2-0.7-1.8,0.1-2.4,0.6c-14.5,11.9-31.4,17.7-49.8,19.8c-8.3,0.9-14.2-3.4-15-10.9c-0.8-7.5,3.9-13.4,12-14.2
		c20.5-2.1,37-11.2,49.4-27.6c3.3-4.4,7-8.5,10.9-12.4c10.6-10.6,24-10.1,37.4-9.6c14.1,0.6,22.2,8.8,26.6,21.5
		C257,159.3,257,185.7,257,212z"/>
	<path class="st0" d="M1,132c2-1.1,1.6-3.5,2.6-5.1c4.8-8.8,11.8-14.3,22-15c5.8-0.4,11.6-0.4,17.5-0.3c10.4,0,18.2,5.6,25,12.7
		c3.3,3.5,6.4,7.2,9.4,11c9.6,12.2,21.9,20.2,37.1,23.6c3.1,0.7,4,1,1.9,4.2c-4.6,6.7-4.5,11.3-0.7,21.9
		c-16.9-2.5-31.7-9.2-45.5-20.5c0,14.8-0.2,28.5,0.1,42.3c0.1,4.2-0.7,5.6-5.3,5.5C43.6,211.8,22.3,212,1,212C1,185.3,1,158.7,1,132
		z"/>
	<path class="st1" d="M222.6,46c16.1,0.2,29.5,13.7,29.2,29.5c-0.2,16-13.7,29.3-29.5,29.2c-16.2-0.2-29.6-14-29.2-30
		C193.6,58.9,207.1,45.8,222.6,46z"/>
	<path class="st1" d="M35.5,46c15.9-0.1,29.4,13.3,29.4,29.2c0,15.9-13.5,29.5-29.3,29.4C19.6,104.5,6.4,91.5,6.2,75.4
		C6.1,59.7,19.5,46.2,35.5,46z"/>
</g>
</svg>
