<?xml version="1.0" encoding="utf-8"?>
<!-- Generator: Adobe Illustrator 22.0.1, SVG Export Plug-In . SVG Version: 6.00 Build 0)  -->
<svg version="1.1" id="Laag_1" xmlns="http://www.w3.org/2000/svg" xmlns:xlink="http://www.w3.org/1999/xlink" x="0px" y="0px"
	 viewBox="0 0 256 256" style="enable-background:new 0 0 256 256;" xml:space="preserve">
<style type="text/css">
	.st0{fill:#144C8C;}
</style>
<g>
	<path class="st0" d="M1,220c7.9,1.1,15.7,0.2,23.7,0c-2.2-2-4.5-3.5-6.3-5.6c-5.5-6.5-5.6-15.6,0.2-22.4
		c18.5-21.8,37.2-43.6,55.8-65.3c1.1-1.3,2.4-2.4,3.7-3.3c2.6-1.9,6-3.8,8.7-2.7c2.2,0.9,0.8,4.8,0.9,7.3c0.2,4.2-0.1,8.3,0.1,12.5
		c0.2,2.9-0.8,4-3.7,3.6c-1-0.1-2-0.1-3,0c-6.2,0.2-9.9,3.9-10,10.1c-0.1,11.2-0.1,22.3,0,33.5c0,2.5-0.6,4.2-2.5,6
		c-5.2,4.8-6.8,10.9-4.6,17.7c2.4,7.6,5.6,9.5,14.3,8.7c-3.6-4.3-2.8-9.2-2.8-14c0-15.8,0-31.7,0-47.5c0-8.1,1.7-9.7,9.5-9.8
		c29.5,0,59,0,88.5,0c7.6,0,9.3,1.8,9.3,9.4c0,16.5,0,33,0,49.5c0,4.3,0.5,8.7-3,12.2c5.7,1.4,9.8,0.4,12.7-4.6
		c3.6-6.3,4.2-14.3-0.9-19c-4.8-4.5-4.6-9.4-4.5-14.8c0-8.8,0-17.7,0-26.5c0-7.3-3.7-11.1-11.1-10.8c-4.3,0.2-5.9-0.8-5.5-5.4
		c0.4-5,0.3-10,0-15c-0.2-3.7,1.3-3.7,4.1-3c4.2,1.1,7.4,3.6,10.2,6.8c17.3,20.3,34.6,40.5,51.9,60.8c10.8,12.7,9.9,21-4.1,32.1
		c8.9-0.3,16.7,0.5,24.5-0.5c0,3.3,0,6.7,0,10c-1.6,0.1-3.3,0.4-4.9,0.4c-82.1,0-164.1,0-246.2,0c-1.6,0-3.3-0.3-4.9-0.4
		C1,226.7,1,223.3,1,220z"/>
	<path class="st0" d="M127.8,114.3c-24-0.3-43.1-19.9-42.8-43.9C85.3,47,105.3,27.7,129,28c23.5,0.3,42.9,20.2,42.5,43.7
		C171,95.6,151.5,114.6,127.8,114.3z"/>
	<path class="st0" d="M128,144.4c-4.2,1.2-5.9-1-5.2-5.7c0.1-0.8-0.1-1.7-0.1-2.5c0.1-1.9-3.6-2.4-2-4.4c2.1-2.7,4.8-5,7.3-7.5
		c1-0.9,1.8-0.4,2.6,0.4c1.3,1.3,2.6,2.6,3.9,3.9c1.9,2,5.1,3.7,1.3,6.9c-0.5,0.4-0.3,1.9-0.4,2.9C135,144.4,135,144.4,128,144.4z"
		/>
</g>
</svg>
