<?xml version="1.0" encoding="utf-8"?>
<!-- Generator: Adobe Illustrator 22.0.1, SVG Export Plug-In . SVG Version: 6.00 Build 0)  -->
<svg version="1.1" id="Laag_1" xmlns="http://www.w3.org/2000/svg" xmlns:xlink="http://www.w3.org/1999/xlink" x="0px" y="0px"
	 viewBox="0 0 256 256" style="enable-background:new 0 0 256 256;" xml:space="preserve">
<style type="text/css">
	.st0{fill:#144C8C;}
</style>
<g>
	<path class="st0" d="M205,257c-2.7,0-5.3,0-8,0c-7.5-3.2-10.8-9.3-13.3-16.8c-9-26.9-18.6-53.6-27.6-80.5c-1.9-5.7-5.8-3.9-9.1-3.8
		c-3.8,0.2-1.9,3.6-1.9,5.5c-0.1,21,0,42-0.1,62.9c-0.1,11.9-10.8,19.6-21.5,15.6c-6.6-2.4-10.4-8.4-10.4-16.5
		c0-21.1,0-42.3-0.1-63.4c0-1.4,0.8-3.1-0.9-4.1c-3.1-1.8-8.8,0.4-10,3.8c-9.2,26.7-18.7,53.3-27.6,80.1C72,247.5,68.7,253.8,61,257
		c-3,0-6,0-9,0c-12.6-10.4-13.1-12.3-7.6-28.4c8-23.1,15.9-46.2,23.9-69.2c0.8-2.2,1.5-3.7-2-3.7c-21.8,0.1-43.6,0.2-65.4,0.3
		c0-3.7,0-7.3,0-11c85.3,0,170.7,0,256,0c0,3.7,0,7.3,0,11c-21-0.1-41.9-0.2-62.9-0.2c-5.8,0-5.8,0-3.8,5.6
		c8.4,24.1,16.8,48.2,25.1,72.3c3.8,10.9,0.7,17.6-9.8,22.6C205.3,256.4,205.2,256.8,205,257z"/>
	<path class="st0" d="M257,12c-85.3,0-170.7,0-256,0C1,8.3-0.4,3.3,1.4,1.4C3.2-0.4,8.3,1,12,1C92,1,172,1,252,0.9
		c4.3,0,5.7,0.9,5,5.1C256.7,8,257,10,257,12z"/>
	<path class="st0" d="M129,134.3c-35.6,0-71.3-0.1-106.9,0.1c-4.2,0-5.2-1.1-5.2-5.2c0.2-34,0.2-68,0-101.9c0-3.8,0.9-5,4.9-5
		c71.5,0.1,142.9,0.1,214.4,0c4.1,0,4.9,1.2,4.9,5c-0.1,34-0.2,68,0,101.9c0,4.1-0.9,5.2-5.1,5.2C200.3,134.2,164.7,134.3,129,134.3
		z M209,56.6c0,6,0.3,10.6-0.1,15.2c-0.3,4.1,1.8,4.4,4.8,4c2.5-0.4,6.3,1.8,6.1-3.7c-0.3-10-0.1-20,0-30c0-2.7-0.6-3.9-3.6-3.9
		c-10.2,0.2-20.3,0.2-30.5,0c-5.1-0.1-3.2,3.5-3.4,5.9c-0.2,2.3-1,5.2,3.3,4.9c4.9-0.3,9.8-0.1,15.8-0.1
		c-14.8,14.8-28.8,28.8-42.7,42.8c-2.3,2.3-3.2,0.1-4.3-1c-8.7-8.7-17.6-17.3-26.1-26.2c-2.6-2.7-3.9-2.8-6.6,0
		c-13.5,13.8-27.3,27.3-40.8,41.1c-2.9,2.9-4.7,3.9-7.6,0.2c-2.9-3.6-6.7-6.5-9.8-10c-2-2.2-3.2-1.9-5.1,0.1
		c-6.2,6.5-12.7,12.8-19,19.1c-5,5-4.9,4.9,0.2,10c2.1,2.1,3.2,1.9,5.1-0.1c4.3-4.6,9-8.9,13.3-13.5c2.1-2.3,3.5-2.8,5.8-0.1
		c3.2,3.6,7,6.7,10.1,10.4c2.4,2.8,3.9,2.2,6.2-0.1c13.9-14.1,28-28,41.9-42.1c2.3-2.3,3.5-2.3,5.8,0c8.5,8.7,17.3,17.1,25.7,25.9
		c2.8,2.9,4.3,2.6,6.9-0.1C176.2,89.2,192.2,73.4,209,56.6z"/>
</g>
</svg>
