<?xml version="1.0" encoding="utf-8"?>
<!-- Generator: Adobe Illustrator 22.0.1, SVG Export Plug-In . SVG Version: 6.00 Build 0)  -->
<svg version="1.1" id="Laag_1" xmlns="http://www.w3.org/2000/svg" xmlns:xlink="http://www.w3.org/1999/xlink" x="0px" y="0px"
	 viewBox="0 0 256 256" style="enable-background:new 0 0 256 256;" xml:space="preserve">
<style type="text/css">
	.st0{fill:#134B8C;}
</style>
<g>
	<path class="st0" d="M257,78c0,58.3,0,116.7,0.1,175c0,3.4-0.7,4.1-4.1,4.1c-82.7-0.1-165.3-0.1-248,0c-3.4,0-4.1-0.7-4.1-4.1
		C1,194.7,1,136.3,1,78C86.3,78,171.7,78,257,78z M129.5,99c-8,0-16,0-23.9,0c-8.8,0-14.7,5.1-14.8,12.6c-0.1,8,5.5,13.3,14.6,13.3
		c15.8,0.1,31.6,0.1,47.4,0c8.7,0,14.5-5.3,14.6-12.9c0-7.7-5.7-12.9-14.3-13C145.1,98.9,137.3,99,129.5,99z M132.1,230.4
		C132.1,230.4,132.1,230.5,132.1,230.4c6.7,0.1,13.3,0.1,20,0c13-0.1,26-0.1,38.9-0.3c2.7,0,6-0.7,5.5-4.2c-0.3-2.7-3.1-3.8-5.9-3.8
		c-5.1-0.1-10.3-0.5-15.4-0.4c-25.8,0-51.6,0.2-77.4,0.2c-3.9,0-7.6,1.1-11.6,0.4c-4.9-0.8-10-0.5-14.9-0.1
		c-1.9,0.1-4.3,0.9-4.2,3.9c0.1,2.9,1.9,3.6,4.2,3.9c1.6,0.2,3.3,0.4,5,0.4C94.8,230.4,113.4,230.4,132.1,230.4z M84.1,181.8
		c0,8.7,0,16.1,0,23.6c0,3.5-0.4,7.8,4.4,8c5.1,0.2,4.5-4.2,4.5-7.7c0-7.7,0-15.4,0-24c2.1,2,3.3,3.2,4.6,4.4c2.3,2.1,4.7,2.7,7,0.3
		c2.2-2.3,1.3-4.6-0.6-6.6c-3.9-4-7.9-8-12-12c-1.9-1.9-4.2-2.4-6.3-0.5c-4.6,4.3-9.1,8.8-13.4,13.4c-1.7,1.8-1.4,4.1,0.3,5.8
		c1.9,1.9,4.1,2.1,6.2,0.1C80.5,185.3,81.9,184,84.1,181.8z M121.6,182c0.5,0.3,1,0.6,1.5,0.9c0,8,0,15.9,0,23.9
		c0,3.5,0.6,6.7,4.8,6.6c4.1-0.1,4.2-3.4,4.2-6.6c-0.1-8.1,0-16.1,0-25.1c2,1.9,3.3,3.1,4.6,4.3c2.2,2.1,4.6,2.8,7,0.4
		c2.2-2.3,1.4-4.6-0.5-6.6c-3.9-4.1-7.9-8-12-12c-1.9-1.8-4.2-2.5-6.2-0.6c-4.6,4.3-9.1,8.8-13.4,13.4c-1.8,1.9-1.5,4.4,0.6,6.2
		c1.9,1.6,4,1.7,5.8-0.1C119.3,185.3,120.4,183.6,121.6,182z M160.1,181.8c0,9.1,0,16.9,0,24.7c0,3.4,0.3,6.8,4.5,6.9
		c4.4,0.1,4.5-3.4,4.5-6.8c-0.1-8,0-16.1,0-24.9c2,1.9,3.2,3,4.3,4.1c2.1,2,4.5,3.1,7,0.8c2.8-2.6,1.5-5.1-0.7-7.3
		c-3.7-3.8-7.5-7.5-11.3-11.3c-1.8-1.8-4.1-2.9-6.2-1c-4.8,4.4-9.4,9-13.8,13.7c-1.6,1.7-1.3,4.1,0.4,5.8c1.9,1.8,4.1,2,6.2,0
		C156.5,185.3,157.9,183.9,160.1,181.8z"/>
	<path class="st0" d="M133,1c26.7,0,53.3,0,80,0c3.9,8.4,9.4,15.8,14.2,23.6c9,14.7,18.2,29.2,27.6,44.2c-1.2,0.1-1.8,0.3-2.4,0.3
		c-38.4,0-76.9,0-115.3,0.1c-3.4,0-4.1-1.2-4.1-4.3C133.1,43.6,133,22.3,133,1z"/>
	<path class="st0" d="M45,1c26.7,0,53.3,0,80,0c0,21.2-0.1,42.3,0.1,63.5c0,3.7-0.8,4.8-4.6,4.7c-37.7-0.2-75.3-0.1-113-0.1
		c-1.2,0-2.7,0.7-3.7-1.1c9-14.4,18.1-28.7,27-43.3C35.6,16.9,41.1,9.4,45,1z"/>
</g>
</svg>
