<?xml version="1.0" encoding="utf-8"?>
<!-- Generator: Adobe Illustrator 22.0.1, SVG Export Plug-In . SVG Version: 6.00 Build 0)  -->
<svg version="1.1" id="Laag_1" xmlns="http://www.w3.org/2000/svg" xmlns:xlink="http://www.w3.org/1999/xlink" x="0px" y="0px"
	 viewBox="0 0 256 256" style="enable-background:new 0 0 256 256;" xml:space="preserve">
<style type="text/css">
	.st0{fill:#134C8C;}
	.st1{fill:#164E8D;}
</style>
<g>
	<path class="st0" d="M1,125c2-1.7,1.5-4.2,1.9-6.4C7.2,99.8,15.8,83,27.4,67.8c7.1-9.3,19.9-12.3,31.1-8
		c10.7,4.2,19,15.6,17.1,26.6c-2,11.2,2.3,19.8,8.1,28.2c2.1,3,4.7,5.6,7.1,8.4c2.8,3.2,5.8,5.2,10.6,5.3
		c6.9,0.1,11.7,4.4,14.5,10.6c1.2,2.6,2.7,4.2,5.2,5.5c8.8,4.4,18,7.7,27.1,11.3c7.3,2.9,11.1,8.8,10.9,16.2
		c-0.2,7.2-4.9,12.9-12.2,15.3c-4,1.3-7.9,0.5-11.7-0.8c-11.3-3.9-22.4-8.5-32.9-14.3c-3.1-1.7-5.3-1.3-8.1,0.9
		c-17.5,14.3-35.2,28.5-52.8,42.7c-8.9,7.2-19.7,6.5-26.3-1.4c-6.8-8.1-5.3-19,3.7-26.4c4.9-4.1,10-8.1,15-12.2
		c-1.2-1.6-2.5-0.9-3.5-0.9c-14,0-24.4-8.3-27.5-22c-0.4-1.6,0.1-3.7-1.8-4.9c0-1.7,0-3.3,0-5c1.6-4.7,1.6-9.3,0-14
		C1,127.7,1,126.3,1,125z"/>
	<path class="st1" d="M257,179c-4.2,4.6-5.8,10.6-8.5,16c-7.3,15-15.3,19.1-31.4,14.6c-4.9-1.4-7.6,0.1-10.2,3.6
		c-4.4,5.9-5.8,12.9-7,20c-0.5,3,1.5,2.6,3.3,2.8c9.8,0.9,17.8,4.8,23.3,13.3c1.9,3,1.8,4.7-2.2,4.7c-18,0-36,0-54,0
		c-3.7,0-3.8-1.9-2.3-4.5c5.3-8.7,13.6-12.4,23.3-13.4c3-0.3,4.4-1,4.6-4.3c0.2-4.5,1.5-8.8,3.2-13c2-5.1,0.3-11.4-3.6-15
		c-1.4-1.3-2.7-0.8-4.1-0.5c-11.8,2.6-17.3-0.1-22.5-10.9c-1.7-3.6-3.3-7.3-5.1-10.8c-1.2-2.3-1.4-3.4,1.7-3.9
		c4.1-0.6,8.3-1.2,12.4-0.7c8,1,14.6,4.7,16.8,12.8c1.9,7,5,13.1,9.5,19.1c3.7-2.6,6.8-5.1,7.7-10.6c3-17,14.4-25.3,31.7-23.9
		c4.5,0.4,8.9,0.9,13.3,1.3C257,177,257,178,257,179z"/>
	<path class="st1" d="M1,129c1.6,4.7,1.6,9.3,0,14C1,138.3,1,133.7,1,129z"/>
	<path class="st0" d="M133,37.5c-0.1,18.2-15.3,33.4-33.5,33.4c-18.2,0-33.4-15.2-33.5-33.4C65.9,19.1,81.3,3.8,99.8,4
		C118.1,4.1,133.1,19.3,133,37.5z"/>
</g>
</svg>
