<?xml version="1.0" encoding="utf-8"?>
<!-- Generator: Adobe Illustrator 22.0.1, SVG Export Plug-In . SVG Version: 6.00 Build 0)  -->
<svg version="1.1" id="Laag_1" xmlns="http://www.w3.org/2000/svg" xmlns:xlink="http://www.w3.org/1999/xlink" x="0px" y="0px"
	 viewBox="0 0 1050 512" style="enable-background:new 0 0 1050 512;" xml:space="preserve">
<style type="text/css">
	.st0{fill:#114B8B;}
	.st1{fill:#FDFEFE;}
	.st2{fill:#47C8E2;}
	.st3{fill:#EFF3F7;}
	.st4{fill:#22548E;}
</style>
<g>
	<g>
		<path class="st0" d="M1,214C1,143,1,72,1,1c350,0,700,0,1050,0c0,120.7,0,241.3,0,362c-133.1,0-266.3,0-399.4,0
			c-3.3,0-6-0.6-8.9-2.5c-24.5-16.1-49.1-32-73.7-47.9c-48.6-31.6-97.2-63.1-145.7-94.8c-4.2-2.7-8.3-4-13.4-4
			C273.6,214,137.3,214,1,214z M731.1,217L731.1,217c-2.2,0.1-2.1,1.6-2,3.1c-5.7,9.5-11.5,18.9-17.4,28.6c21.4,0,42.1,0,63.2,0
			c0-11.3,0-22.4,0-33.5c0-0.5-0.7-1-1-1.5c-0.4-0.2-0.9-0.6-1.3-0.6c-12.6-0.1-25.1-0.1-37.7-0.1c-1.5,0-2.7,0.3-2.7,2.1l0,0.1
			C731.3,215.5,731,216.2,731.1,217z M689,211.1c0.5,0.3,0.9,0.5,1.4,0.8c0.3-0.1,0.5,0,0.6,0.3c0.2,0.5,0.5,0.7,0.9,0.3
			c0.7-0.1,1.4-0.1,2.1-0.2c0.7,0.9,1.8,0.8,2.7,0.8c0.5,0.8,1.1,1.7,1.5,2.6c0.7,1.5,2.8,2.9,1,4.8c-2.2,2.3-3.2-1.4-4.9-1.3
			c-1.2,1.3-2.3,2.6-2.6,4.5c2.9,3.7,6.5,3.3,10,1.1c3.7-2.4,4.8-5.4,2.7-9.8c-2.2-4.5-5.7-8.3-7.4-13.3c-1.6-4.8-4.6-5.5-9.2-3.7
			c-5.6,2.2-7.5,5.6-5.9,10.6c1.2,0.9,2.6,0.1,3.9,0.4c1.6-0.1,2.1,1.3,3,2.1L689,211.1z M332,169c0-5.6,0-11.3,0-16.9
			c1.4-2.9,3.2-0.6,5.1-0.8c0,6.5,0,12.4,0,18.4c3.6,1.1,3.4-1,3.7-3.4c0.7-5.8-2.4-12.3,2.8-17.4c0.2-0.2-0.4-1.1-0.5-1.5
			c-4.2-1-8.1,0.4-12.1-0.1c-0.7-0.1-1.3-0.1-2-0.2c-1.4-1.2-2.9,0.3-4.3,0c-2.5-0.2-4.9-0.1-6.8,1.9c-0.7,0-1.4,0-2.1,0
			c-2.8-2.7-6-2.1-9.8-1.6c0,7.1,0,14,0,21c0,1.4,0.9,1.6,1.9,1.8c2.5,1.1,5,2.1,7-0.9c0.1-0.3,0.2-0.4,0.5-0.4c1,0,1.9,0,2.9,0
			c0.3,0,0.5,0.1,0.6,0.4c1.2,2.8,3.1,2,5,0.9c0.5-0.1,1-0.2,1.5-0.3c1.2,0.1,2.4,0.1,3.5,0.2c0.7-0.1,1.3-0.1,2-0.2
			C331.7,169.9,332.1,169.8,332,169z M408.1,147c-1.7,0.3-3.3-3.8-5.1-0.1c-3.6,0-7.2,0-10.5,0c-1.9,4.1-1.2,8.2-3.1,11.7
			c-3.6-11.2-3.6-11.2-6.2-10.8c1.3,7.3,2.6,14.6,3.9,21.8c1.8,0.5,3.2,0.7,4.7-0.2c1.2-6.4,2.4-12.8,3.6-19.2c0.3,0,0.6,0.1,1,0.1
			c0,6.4,0,12.8,0,19.8c3.5,0,6.6,0,9.7,0c2.7,2.4,5.3,0.7,8,0.1c2.7-0.2,2.1-1.8,1.6-3.4c-1.3-0.9-3.1,0.1-4.3-1.7
			c0-4.6-0.1-9.6,0-14.5C411.4,148.1,410.8,146.7,408.1,147z M428.6,167.6c0,2.9,1.5,2.7,3.8,1.8c0-4,0-7.9,0-12.3
			c4,0.2,6.5-1.2,6.2-5.3c-0.2-3.2-1.9-4.8-5.1-4.8c-2.4,0-5.3-0.8-5,3.3c-0.5,0-0.9,0.1-1.4,0.1c-1-3.3-3.5-3.8-6.3-3.2
			c-3,0.6-3.7,3-3.7,5.7c0,3.8,0,7.6,0,11.4c0,2.5,0.3,4.9,3.1,5.5c2.8,0.6,5.8,0.8,6.8-3C427.7,167.1,428.2,167.3,428.6,167.6z
			 M871.1,221c-2.5-0.1-3.8,1.2-4.1,3.9c1.3,0.7,2.2,2.2,3.9,2c2.2-1.2,1.7-3.3,2.1-5c6.6-5.3,9.1-13.3,14-19.7
			c-1.8-1.6-3.2-2.7-5.4-3c-3.5,6-7,12-10.7,17.8C869.9,218.7,870.7,219.7,871.1,221z M726.1,213c1.1,0,2.2,0.1,2.9-1
			c1.3-0.6,2.6-1.2,3.9-1.9c-1.3-4.6-2.5-9.1-3.8-13.5l0.3,0.1c0,0,0.3-0.1,0.3-0.1c2.3,2.8,4.9,5.5,6.9,8.5
			c2.1,3.1,4.2,3.8,7.6,1.4c-2.5-9.6-4.9-19.1-7.4-28.7c-2.2,0.7-4.1,0.7-5.4,1.9c0.5,4.3,2.8,8,2.8,12.7c-4.3-3.1-6.4-8-10.7-10.8
			c-1.8,1.1-4.5,0.4-5.3,3.1c-0.4,0.4-0.8,0.8-1.2,1.2c-2.3-2.6-4,0.1-6.5,0.5c3.9,9.5,7.7,18.6,11.5,27.8
			C723.6,213.8,724.9,213.4,726.1,213z M799,199c0.2,3.6,1.9,5,5.8,3.5c-1.1-9.9-1.2-19.8-3.2-29.8c-2.4,0-4.7-1-7.2-0.1
			c-2.8,9.5-5.2,19.1-7.1,28.9c2.4,0.6,4.7,1.9,5.8-1.6c1.8,0.9,2.1-0.2,2-1.6l0.5,0c0,0,0.4,0.3,0.4,0.3c0.2,0.2,0.4,0.5,0.5,0.7
			c0.1-0.3,0.3-0.6,0.4-0.8l0.2-0.1C797.8,198.6,798.4,198.8,799,199z M710.1,255.2c-3.5,0.6-2,3.4-2,5.2c-0.1,28.3-0.1,56.6,0,84.9
			c0,1.8-0.5,3.7,1.1,5.7c45.8,0,92,0,138.5,0c-0.9-2.6-0.6-5.1-0.6-7.6c0-27.3,0-54.6,0-81.9c0-1.8,0.6-3.7-0.6-5.3
			c-1-1.7-2.7-1-4-1C798.2,255.1,754.2,255.1,710.1,255.2z M781.2,248.7c21.1,0,41.8,0,63.3,0c-7.4-11.9-14.6-23.3-21.6-34.6
			c-14,0-27.7,0-41.6,0C781.2,225.7,781.2,237,781.2,248.7z M826.8,177.6c-2.7-1.9-4.7-1.8-6.6-1.8c-1.6,2.1-3.2,4.1-4.8,6.3
			c-1.2-2.7,0.9-5-0.2-7.5c-1.7-0.3-3.3-1-5.4,0c-1.3,9.6-2.6,19.2-3.9,28.8c2,0.8,3.5,1,4.6,0.5c1.6-2.7,0.5-6.1,3.8-8.5
			c0.9,3.6,1.6,6.8,2.4,10.1c3.2,0.8,6.4,1.5,9.4,2.2c1.8-3,1-6.8,4.6-8.5c0.6,3.6,1.1,7,1.6,10.3c6.1,2.3,12,4.5,17.8,6.7
			c0.8-1.5,1.7-2.5,1.5-4.2c-2.5-1.2-5.2-2.4-8.1-3.8c1.5-3.8,2.8-7.3,4.2-11.1c2.5,0.9,4.6,1.8,6.6,2.5c1.4-1.2,2-2.5,1.7-4.2
			c-2.1-1-4.1-1.9-6.4-3c0.4-1,0.6-2.2,1-2.3c3.6-0.7,6.2,2.3,9.7,2.6c-0.3-5.6-5.2-8.8-13.8-9.3c-2.9,8.3-5.9,16.7-9,25.3
			c-2.5-10.3-3.4-19.8,7.5-26.2c-2.8-1.6-4.6-2.2-6.5-2.3c-1.8,2-3.5,3.8-5.4,5.9c-1.1-2.9,1.5-4.9,0.3-7.6c-1.5,0-3-1.3-5-0.6
			c-2.1,8.4-4.1,16.7-6.4,25.8C818.1,193.3,817.1,184.6,826.8,177.6z M545.3,158.8c-8.5,7.4-15.7,13.5-22.8,19.6
			c0.4,0.5,0.7,1.1,1.1,1.6c4.7,0,9.5,0,14.2,0c1.3,0,2.6,0,3.7-1.1c6.4-6.7,12.9-13.3,20.9-21.6c-7.1-6.4-13.9-12.5-20.7-18.6
			c-1-0.9-1.9-1.7-3.4-1.7c-5.1,0.1-10.1,0-15.2,0c-0.4,0.6-0.8,1.2-1.1,1.8C529.2,145,536.5,151.3,545.3,158.8z M521,276.1
			c0.5,0.6,0.9,1.3,1.4,1.9c4.8,0,9.6,0,14.4,0c1.3,0,2.6,0,3.7-1.1c6.4-6.7,12.9-13.4,21-21.8c-7.1-6.3-13.9-12.3-20.8-18.4
			c-0.9-0.8-1.6-1.7-2.9-1.7c-5.2,0-10.5,0-15.7,0c-0.4,0.5-0.7,1-1.1,1.5c7.2,6.3,14.5,12.5,22.7,19.6
			C535.2,263.7,528.1,269.9,521,276.1z M170.2,173.6c6.9,11.9,17,18.4,30,18.1c12.7-0.2,22.6-6.7,28.9-18.2c-5.5-1.9-6,3.9-9.2,5.4
			c-3.8-0.3-3.3-3-2.6-5.4c-2.5-1.2-2.9,1.7-5.2,1.6c-3.4-2.2-7.9-1.4-12.1-2.2c-6.1-1.1-11.8,4.2-18.5-0.1c2.7,4.1,0.7,5.4-1.7,6
			C176.1,177.5,175.8,171.6,170.2,173.6z M229.2,142.8c-7.5-12.3-17.9-18.7-32-17.7c-12.1,0.8-20.9,7.3-27,17.7
			c5.6,1.9,6.2-3.8,9-5.1c4.7-0.1,3,3.2,3.1,5.3c2.5,1.2,2.6-1.9,3-1.9c10.1,3.1,18.8,3.2,28,0.2c1,0.4,1.6,2.9,4,1.5
			c-0.7-2.3-0.8-4.5,2.3-5.2C223,138.7,223.4,144.8,229.2,142.8z M275.2,147.6c1.4,7.7,2.7,15,4,22.1c2.8,0.6,4.9,0.9,5.4-3.4
			c1.4,4.1,3.4,4.3,6,3.3c1.3-6.9,2.5-13.8,3.8-20.8c0.3,0,0.6,0.1,0.9,0.1c0,6.9,0,13.9,0,20.9c3.4,0,6.5,0,9.6,0
			c1-5.7-3.9-2.4-5.8-4.3c0-2.4,0-5.2,0-8.2c1.4-0.2,2.8-0.4,3.9-0.6c2.3-4.9-4.9-1.4-3.9-5.2c1.6-1.3,3.9,0.1,6.1-1.3
			c-3.8-6.2-9.6-1.3-14.2-3.4c-0.8,4.2-1.5,7.7-2.3,11.4c-3-1.9-0.1-6.7-4.2-8c-2.3,2.7-1.4,6.4-3,9.6
			C278.7,147.5,278.7,147.5,275.2,147.6z M449.6,147.7c-0.6,3-1.3,6.3-2.2,10.6c-1-4.3-1.8-7.7-2.6-11.1c-1.7,0-3.1-0.5-4.6,0.4
			c0,7.4,0,14.8,0,22.1c4.7,1.7,2.8-2.8,4.5-4.5c0.5,2.7,0.1,6.3,4.4,4.3c0.5-1.7,0.9-3.4,1.4-5.3c1.1,2-0.1,4,1.1,5.6
			c1.9,0.4,3.3,0.5,3.3-2.1c-0.1-6.8,0-13.5,0-20.4C452.9,147.2,451.4,146.7,449.6,147.7z M779.2,185.1c1.2-0.1,1.8-0.1,2.5-0.1
			c5.4-0.3,7.3-2,7.3-6.6c0-4.4-2.1-6.3-7.5-6.4c-2.8-0.1-5.5,0-8.8,0c0.6,10.4,1.1,20.1,1.6,29.7c2,0.8,3.5,0.9,4.8-0.3
			C779.2,196,779.2,190.7,779.2,185.1z M860.8,221.4c4.1-7.6,8.1-14.8,12-21.9c1.9,0.8,3.3,1.4,4.5,1.9c1.4-1.1,2.1-2.3,2.1-4
			c-4.7-2.6-9.4-5.4-14.4-7.3c-1.2,1.3-2,2.5-1.7,4.2c1.3,0.7,2.6,1.4,4.1,2.3c-3.8,7.6-7.4,15.1-11.3,22.8
			C857.9,220.1,859.1,220.6,860.8,221.4z M478.8,169.9c0-7.8,0-15.2,0-23c-6.4,1-1.8,6.4-4.1,8.7c-4.7-8.3-4.7-8.3-7.4-8.1
			c0,7.4,0,14.8,0,22.1c1.4,0.3,2.6,0.7,3.8-1c0-2.3,0-5.1,0-8.1C474.5,163.3,472,170.2,478.8,169.9z M760.9,203.6
			c2.2,0,3.7,0,5-1.3c-1.1-9.6-2.3-19.2-3.4-29.3c-3.8,1.3-8.4-0.9-9.8,4.5c-0.1,0.4-0.1,0.8-0.1,1.3c1.6,0.1,3.1,0.1,4.7,0.2
			C758.5,187.4,759.6,195.4,760.9,203.6z M361.2,147.3c0,7.7,0,15.1,0,22.4c9.2,1,9.8,0.5,9.8-8.1c0-1.8,0-3.6,0-5.5
			C371,147.2,370.6,146.8,361.2,147.3z M382.1,150.3c-2-5.5-6.3-2.5-9.7-3c0,7.8,0,15.2,0,22.4c3.5,0,6.6,0,9.7,0
			c0.6-5.6-4-2.4-6-4.2c-0.4-2.5-0.4-5.4,0-8.3c1.7-0.2,3.1-0.4,4.3-0.6c2.3-5.3-5.3-1.1-4.4-5.1C377.7,150.1,380,151.6,382.1,150.3
			z M353,156.5c2-4.6-5-1.3-4-5c1.6-1.4,3.9,0.1,5.7-1.3c-2-5.3-6.1-2.6-9.4-3c0,7.8,0,15.2,0,22.7c3.4-0.1,6.5,0.5,9.5-0.4
			c0.7-5.5-4.5-1.8-5.8-4.3c0-2.4,0-5,0-7.4C350.2,156.3,352.1,157.7,353,156.5z M465.9,169.9c0.8-5.7-4.2-2.3-5.9-4.5
			c0-2.4,0-5.2,0-7.8c1.5-1.3,3.5,0.2,4.4-1.1c1.6-4.9-5.1-1-4.4-4.9c1.6-1.4,3.9-0.1,5.6-1.1c-1.4-4-2.5-4.3-9.3-2.8
			c0,7.4,0,14.7,0,22.2C459.6,169.9,462.6,169.9,465.9,169.9z M187.8,151.7c-5.6,1.1-2.9,6.4-5.7,8.4c-2-2.4-0.2-6.7-4.2-8.3
			c-2.5,2.6-1.6,6.4-3.5,9.1c-2.7-6.9-3.6-8.3-5.4-8.1c0.8,2.9,1.6,5.7,2.5,8.6c0.4,1.3,0.2,3.2,2.4,3.2c2.5,0.1,2.1-2.1,2.8-3.5
			c0.6-1.3,0.1-3,1.9-4.2c0.5,1.8,1,3.5,1.4,5.1c0.3,1.4,0.7,2.6,2.5,2.5c1.5,0,1.9-1.2,2.2-2.3C185.7,159,186.6,155.7,187.8,151.7z
			 M208.6,152.3c-5.2,0.7-2.3,6.2-5.1,8.5c-1.6-3-0.9-6.5-3.2-9c-4.3,1.4-1.9,6.4-4.7,8.3c-2.4-2.3,0.3-7.5-5.5-8.4
			c1.1,4,2.1,7.2,3,10.5c0.3,1.2,0.7,2.2,2.2,2.2c1.4,0,2-0.8,2.4-2.1c0.5-1.8,1-3.6,1.7-5.9c2.1,2.8,1.3,5.9,3.9,8.3
			C208,162,206.9,156.5,208.6,152.3z M220.4,151.6c-2.1,2.8-1.3,6.7-3.5,9.3c-2-2.9,0.1-7.6-4.6-8.7c0.3,3.6,1.3,6.9,2.2,10.2
			c0.3,1,0.7,1.9,1.9,2c1.4,0.1,2.1-0.7,2.4-2c0.5-1.9,1.2-3.8,2.1-7c0.9,3.3,1.4,5.1,1.8,7c0.3,1.4,0.9,2.1,2.3,2
			c1.2,0,1.6-0.8,1.9-1.9c1-3.4,2.1-6.8,3.3-10.8c-5.8,1-2.6,6.6-5.8,8.5C222.9,157.7,224.4,153.6,220.4,151.6z M486.9,151.5
			c2.1-0.7,4.8-1,2.9-4.2c-3.1,0-6.2,0-9.5,0c0,1-0.3,2.4,0,2.5c4.5,2,2.7,6,3,9.2c0.2,2.8,0.1,5.6,0,8.5c-0.1,2.9,1.5,2.7,3.6,2.1
			C486.9,163.7,486.9,157.9,486.9,151.5z M743.5,194.2c4-0.9,7.8-1.7,11.6-2.5c0-1.8,0.3-3.3-1.2-4.6c-3.9,0.8-7.8,1.6-11.5,2.4
			C741.9,191.5,742.4,192.6,743.5,194.2z M713.4,199.4c-4.4,1.5-8.2,3.2-12,5.7c0.7,1.5,0.8,3,2.5,3.7c3.6-1.7,7.3-3.5,11.2-5.3
			C714.5,202.1,714.1,201,713.4,199.4z"/>
		<path class="st1" d="M1051,379c0,44.7,0,89.3,0,134c-350,0-700,0-1050,0c0-94.3,0-188.7,0-283c29.3,0,58.6,0,87.9,0
			c29.3,0,58.6,0.1,87.9,0.1c-2.2,3.5-6.2,5.4-7.9,9.3c1.4,2.3,3,4.1,5,5.3c3.7-3.7,7.3-7.2,10.9-10.7c-1.1-1.3-2.1-2.6-3.1-3.9
			c15,0,29.9,0,44.9,0c-1.1,3.5-3.8,5.5-6.9,6.6c-9.9,3.7-10,3.9-2.3,11.3c0.5,0.4,1.1,0.7,1.5,0.9c6.9-2.9,9.5-7.9,9.9-18.9
			c59.8,0,119.6,0,179.5,0c1.5,0,3-0.3,4.4,0.6c6.8,4.5,13.5,9,20.3,13.6c-0.9,1.4-3-0.5-4.2,2.1c0,2.4,0,5.6,0,8.8
			c-1.6-2.7-2.6-5.4-3.6-8.2c-1-2.8-2.5-3.2-4.5-0.8c-0.5,0.3-1,0.6-1.5,0.9c-3.1-4.1-6.2-2.7-9.3,0c-0.5-0.3-1.1-0.6-1.6-1
			c-0.5-0.5-0.9-1.1-1.4-1.6c-0.3,0-0.5,0-0.8,0c-0.5,0.5-0.9,1.1-1.4,1.6c-0.5,0.3-1,0.7-1.5,1c-2.2-2.8-5.1-3.3-7.9-1.4
			c-2.7,1.8-1.7,4.7-1.2,7.3c0.5,2.2,2.3,3.5,3.7,5.1c1.4,1.7,3.1,3.4,1.3,5.6c-2.6,0.4-1.5-2-2.8-2.5c-1.3,0.5-3,0.8-2.5,2.9
			c0.4,1.8,1.3,3,3.3,3.2c2,0.2,4,0.1,5.6-1.3c0.4,0.4,0.9,0.8,1.3,1.1c-0.1,0.1-0.1,0.3-0.2,0.4c0.1-0.1,0.2-0.3,0.2-0.4l0.5,0
			l0.5,0c0.3,0.1,0.7,0.2,1,0.3c0.3,0.4,0.6,0.4,1,0c0.4-0.4,0.9-0.8,1.3-1.3c0.7-0.1,1.4-0.1,2-0.2c2.8,1.8,5.5,1.9,8.3,0
			c0.7,0.1,1.3,0.1,2,0.2c0.7,1.3,1.8,1.2,3.5,0.6c0-3.1,0-6.5,0-10c4,2.7,1.2,10,7.9,10.5c1-8-0.6-15.6,0.9-23
			c8.1,5.2,16.3,10.3,24.4,15.5c60.2,39,120.4,78,180.5,117.1c2.7,1.7,5.3,2.3,8.4,2.3C781.2,379,916.1,379,1051,379z M358.1,351.9
			L358.1,351.9c-2.6-1.7-4.6-1.9-4.9,2.1c-0.5,2.5-1.1,5-1.8,8.1c-2.1-3.8-1.5-7.6-2.9-10.8c-1.6-0.3-3-0.8-4.6,0.5
			c0,6.3,0.1,12.8,0,19.2c-0.1,2.4,0.7,3.4,3.1,3c1.4-0.5,0.8-2.2,1.8-2.9c0.4,2.2,1.2,3.8,3.9,2.4c0.6-2.6,1.2-5.3,2-9.2
			c0.2,3.1,0.3,4.9,0.5,6.7c-0.1,0.9-0.5,1.9,0.5,3c2.1,0,4.3-0.6,6.5,0.2c1.2-1.2,0.9-4,3.6-3.2c0.7,0.4,1.3,0.7,2,1.1
			c0.5,2.2,1.8,2.5,3.9,1.4c-1.3-7.4-2.6-14.8-3.9-22.1c-1.9-0.3-3.3-0.8-4.4,0.5c-1.2,6.8-2.5,13.5-3.7,20.1
			c-0.3,0-0.6-0.1-0.8-0.1c-0.2-0.9-0.5-1.9-0.7-2.8c0-1.6,0-3.2,0-4.8c0.5-1.1,0.5-2.3,0-3.4c0-2.5,0-5.1,0-7.6
			C358.5,352.8,358.6,352.3,358.1,351.9z M313,374c0.7,0,1.4,0,2,0c2.2,0.4,3.4-0.3,3.2-2.8c-0.2-2.4,0-4.9,0-7.3
			c1.8,2.4,2.9,4.8,3.5,7.3c0.6,2.4,1.9,3.3,4.3,2.8c0.7,0,1.4,0,2.1,0c3,0,5.9,0,9.1,0c0.4-5.5-4.6-1.8-6-4.5
			c-0.1-2.4-0.5-5.4,0.2-8.2c1.6-0.7,3.3,0.2,4.5-0.9c0.9-4.5-3.4-1.7-4.8-3.8c-0.1-4.2,4.2-1.2,5.9-3.1c-1.9-4.4-5.9-1.8-8.9-2.5
			c-0.7,0-1.4,0-2.1,0c-1.8-0.3-3.3-0.1-3.1,2.4c0.2,2.5,0,5,0,7.5c-1.8-2.3-3-4.7-3.5-7.2c-0.6-2.6-2.1-3.1-4.3-2.8
			c-0.7,0-1.3,0-2,0c-1.9-0.2-3.1,0-3.1,2.5c0.2,6,0.2,12,0,18C309.9,373.9,311.1,374.2,313,374z M420.9,351c-1.9-0.2-3.2,0-3.1,2.5
			c0.1,6,0.2,12,0,18c-0.1,2.5,1.2,2.7,3.1,2.5c0.7,0,1.4,0,2.1,0c2,0.3,3.1-0.1,3-2.5c-0.2-2.6,0-5.2,0-7.8c1.9,2.7,2.8,5.6,4,8.2
			c1.2,2.6,2.7,4.1,4.3,0.2c0.6,0,1.1,0,1.7,0c6.1,3.6,9.2,2.1,9.4-4.6c0.1-3.1,0-6.2,0-9.3c-2.1-0.6-3.7-1-5.3,0.6
			c2.2,3.7,2.7,7.6,0.2,11.4c-1.7-5-1.3-10.1-1.1-14.6c2.1-1.7,4.3-0.2,5.8-2c-2.2-4.5-5.4-2.4-8.4-1.2c-0.8-0.1-1.5-0.2-2.3-0.3
			c-1-1.3-2.1-1.1-3.4-0.4c0,1.8,0,3.4,0,5c0,1.6,0,3.1,0,4.7c-1.9-2.4-3.1-5-3.8-7.8c-0.6-2.4-2-2.7-4-2.4
			C422.4,351,421.7,351,420.9,351z M284.2,266c0.5,0,1,0,1.6,0c1.4,1.9,3.1,1.1,4.8,0.7c1.3-6.9,2.5-13.5,3.7-20.2
			c0.4,0,0.8,0.1,1.1,0.1c0,6.7,0,13.5,0,20.3c3.5,0,6.4,0,9.6,0c0.4-5.3-4.6-1.5-6-4.4c-0.2-2-0.4-4.8,0.2-7.4
			c1.6-1.3,5.3,0.3,4-3.6c-1.1-1.3-3.5,0.5-4.5-2.2c1.3-2.3,4.2-0.4,6.4-1.9c-3.9-5.4-9.4-1.1-13.9-2.9c-0.9,4.6-1.7,8.7-2.6,13.2
			c-2.1-3.2-0.6-7.3-3.7-10.1c-2.9,3-1.2,7.1-3.5,9.8c-2.8-12.3-2.8-12.3-5.8-12c1.3,7.2,2.5,14.3,3.8,21.5
			C281.3,267.1,283,267.9,284.2,266z M199,385.1c-0.3,0.5-0.6,1-0.9,1.5c-2,0-4.1,0-6.1,0c-1.2-0.8-2.2-0.9-2.9,0.6
			c0.1,2.8,2.3,1.8,3.7,1.8c15.3,0.1,30.6,0,46,0c1.3,0,2.7-0.1,3.9-0.7c3.2-1.5,4.7-7,2.9-8.7c-1.4-1.2-3.2,0-4.6-1.6
			c0-11.9,0-24.1,0-36.2c0-5.7-2.2-7.8-7.9-7.8c-16.8,0-33.6,0-50.5,0c-6.4,0-8.4,2-8.4,8.3c-0.1,11.5,0,23,0,34.5
			c0,0.6-0.2,1.3-0.3,1.9c-1.5,0.7-3.2-0.2-4.6,1.3c-0.6,3.1-0.6,6.5,2.7,8.1c4.5,2.2,9.3,1.1,13.9,0c-2.8-1.6-5.7-1.1-8.6-1.1
			c-3.2-0.1-6.1-0.4-5.5-5.4c8.3,0,16.6,0,24.9,0C199.2,381.4,198.4,383.7,199,385.1z M522.4,381.5c0.3,0.5,0.6,1,0.9,1.5
			c2.8,0,5.5,0.1,8.3,0c2.8-0.1,6.2,1.3,8.2-0.6c7-6.5,13.5-13.5,20.9-21.1c-6.8-6.4-13.1-12.4-19.4-18.3c-0.9-0.9-1.7-2-3.2-2
			c-5.1,0.1-10.1,0-15.2,0c-0.4,0.6-0.8,1.2-1.2,1.8c7,6.3,13.9,12.5,21.7,19.5C535.9,369.2,529.2,375.4,522.4,381.5z M404.7,353.7
			c-2.1-4.8-5.9-1.9-9.5-2.8c0,6.7,0,13,0,20.1c-5.1-6.8-5-13.2-1.3-19.4c-4.2-2.4-3.9,2.3-6.3,3.5c-0.3-2.3,0.2-5.3-3.7-3.7
			c0,6.4,0,13,0,19.5c-0.2,0-0.5,0.1-0.7,0.1c-1.2-3.2-2.5-6.4-3.8-9.8c3.3-2,4.2-5,2.5-8.1c-1.9-3.4-5.5-2-8.8-2.2
			c0,7.8,0,15.2,0,23.3c5.4-1.6,1.6-6.3,3.9-9.1c1.2,3.1,2.4,5.9,3.5,8.6c2.4,0.2,4.5,0.6,6.5-0.2c1-2-0.4-4.7,2-6.5
			c1,2.4,1.9,4.5,2.9,6.7c4.4,0,8.7,0,13.1,0c0.8-5.6-4.4-1.8-5.9-4.4c0-2.2,0-5,0-8.1c1.4-0.2,2.8-0.4,4-0.6c1.8-4.8-4-1.9-4.1-5
			C399.8,353.2,402.7,355.3,404.7,353.7z M226.2,275.8c-13.4-13.5-26.3-26.4-39.5-39.6c-1.2,1.1-2.4,2.3-3.4,3.3
			c13.3,13.4,26.2,26.5,39.2,39.6C223.7,278,224.9,276.9,226.2,275.8z M219,282.8c-13.4-13.5-26.2-26.5-38.8-39.1
			c-1.4,1-2.8,2.1-3.4,2.6c13,13.2,25.9,26.3,38.8,39.4C216.8,284.7,218,283.7,219,282.8z M287.4,350.9c0,8.1,0,15.4,0,22.6
			c0.6,0.2,1.3,0.4,1.9,0.6c3.1-2.5,0.3-7.2,1.8-10.2c3.7,2.3,0.8,9.7,7.7,10.1c0-7.9,0-15.3,0-22.7c-3.5-1.2-3.3,1.1-3.3,3.1
			c0,2,0,4.1,0,6.6C291.6,358.1,294,351.3,287.4,350.9z M306.8,266.8c9.1,0.7,9.6,0.3,9.5-8.3c0-2-0.4-4-0.4-6c0-7.8-1-8.7-9.1-7.3
			C306.8,252.3,306.8,259.4,306.8,266.8z M190.9,265.3c-6.6,7.1-12.6,13.6-18.7,20.2c-1.1,1.2-2,2.4-0.7,3.9
			c1.2,1.3,2.5,0.6,3.5-0.4c6.8-6.3,13.5-12.5,20.4-19C193.7,268.3,192.5,267,190.9,265.3z M371.1,266.8c9.3,0.9,9.7,0.5,9.7-8.3
			c0-2,0-4,0-6c0-7.8-1.5-9-9.7-7.3C371.1,252.3,371.1,259.4,371.1,266.8z M286,362.7c0-2.2,0-4.3,0-6.5c0.1-3.2-1.6-5.1-4.7-5.2
			c-3.1-0.1-5.1,1.5-5.2,4.7c-0.2,4.5-0.1,9,0,13.4c0.1,3.3,2.1,4.7,5.3,4.6c3.3-0.1,4.7-2,4.7-5.2C286,366.7,286,364.7,286,362.7z
			 M382.6,244.6c0,7.8,0,15.1,0,22.3c3.3,0,6.3,0,9.5,0c0.3-5.2-4.5-1.7-6-4c-0.5-2.5-0.5-5.2,0.1-8.1c1.6-0.9,5.1,0.5,4.1-3.2
			c-0.9-1.8-5.1,0.9-4.2-3.4c1.8-0.2,3.7-0.3,5.9-0.6C389.9,242.7,386,245.2,382.6,244.6z M327.6,249.1c-0.4-4.1-2.9-4.9-6.3-4.3
			c-3.6,0.6-3.6,3.4-3.4,6.1c0.2,2.6,1.7,4.6,3.5,6.4c1.5,1.5,3.2,3.1,2.5,5.6c-0.1,0.5-0.4,0.9-0.3,0.8c-2.5,0.2-2-2-3.3-2.5
			c-3.3,1.2-3,3.2-0.9,5.2c1.6,1.5,3.8,1.1,5.7,0.6c2.1-0.5,2.6-2.5,2.6-4.3c0.1-3.3-1.4-5.9-3.9-8.2c-1.8-1.6-3.6-3.7-1.4-6.7
			C324.4,248.6,324.8,252.9,327.6,249.1z M355,244.5c-3.3,0.5-6.7-1.5-7.8,2.9c1.2,1.3,3.1,0,4.1,1.3c0.7,8,0.5,11.5-0.9,14.9
			c-2,0.4-1-2.3-2.6-2.4c-1.3,0.4-2.7,0.7-2.5,2.5c0.1,1.3,0.9,2.5,2.2,3.1c3.5,1.8,7.3-0.3,7.5-4.3
			C355.2,256.7,355,250.9,355,244.5z M332.2,248.7c0,3.8,0,7.2,0,10.5c0,7.3,0,7.3,3.4,7.5c0-5.9,0-11.9,0-17.6
			c1.3-1.4,5.3-1,2.6-4.3c-3,0-5.9,0-8.7,0C327.7,248,330.6,247.9,332.2,248.7z M303.7,351.7c-1.3-0.9-2.9-1-3-0.2
			c-1.1,7.4-0.3,14.8-0.5,22.3c3,0,5.4,0,7.8,0c1.6-4.5-2.9-2.4-4.2-4.6C303.7,363.7,303.7,357.6,303.7,351.7z M356.9,266.9
			c2.7,0.2,5.3,0.8,7.7-0.3c0.7-4.2-3.4-1.6-4.7-4.1c0-5.4,0-11.5,0-17.6C356,245.6,355.8,247.7,356.9,266.9z M409.8,355.4
			c0.4,17.9,0.4,17.9,3.2,18.3c0-6.1,0-12.2,0-18.2c1.4-1.4,4.6-1.2,2.8-4.5c-2.9,0.1-6-0.4-8.8,0.3
			C405.8,354.5,408.8,354.1,409.8,355.4z M343.6,244.9c-3.7,0.4-3.7,0.4-3.3,18.2c0,2-0.7,4.8,3.3,3.6
			C343.6,259.6,343.6,252.5,343.6,244.9z M217.8,287.6c4.3,0.7,8,2.2,12.4,2c-0.9-4.1-1.7-7.8-2.5-11.6
			C224.2,281.3,221.3,284.2,217.8,287.6z M216.2,250.3c-1.9-2-3.7-4-5.7-6.1c-2,2.2-3.8,4.1-5.6,6.1c2,1.9,3.8,3.6,5.6,5.3
			C212.9,254.3,214.6,252.5,216.2,250.3z"/>
		<path class="st2" d="M433,244.2c-6.8-4.5-13.5-9.1-20.3-13.6c-1.4-0.9-2.9-0.6-4.4-0.6c-59.8,0-119.6,0-179.5,0
			c-0.8-0.5-1.5-1.1-2.3,0c-15,0-29.9,0-44.9,0c-1.7-1-3.3-1.6-4.9,0.1c-29.3,0-58.6-0.1-87.9-0.1c-29.3,0-58.6,0-87.9,0
			c0-5.3,0-10.7,0-16c136.3,0,272.6,0,408.9-0.1c5.1,0,9.2,1.3,13.4,4c48.5,31.7,97.1,63.2,145.7,94.8c24.6,16,49.2,31.9,73.7,47.9
			c2.8,1.9,5.6,2.5,8.9,2.5c133.1,0,266.3,0,399.4,0c0,5.3,0,10.7,0,16c-134.9,0-269.8,0-404.8,0c-3.1,0-5.7-0.6-8.4-2.3
			c-60.1-39.1-120.3-78.1-180.5-117.1C449.2,254.4,441.1,249.3,433,244.2C432.9,244.1,433,244.2,433,244.2z"/>
		<path class="st1" d="M710.1,255.2c44.1,0,88.1,0,132.2,0c1.4,0,3-0.8,4,1c-0.1,1.8-0.2,3.6-0.2,5.5c0,27.6,0,55.3,0,82.9
			c0,1.8,0.6,3.6-0.6,5.2c-45.2,0-90.2,0-135.4,0C710.1,318,710.1,286.6,710.1,255.2z M765.1,309l-0.1-0.1c-0.4-0.4-0.8-0.8-1.3-1.3
			c0-0.3-0.2-0.4-0.4-0.4c-1.4-1.4-2.8-2.8-4.2-4.2c-1-1.2-2.1-2-5.1-1.5c-1.2,1.4-3,3.5-4.8,5.7c-1.3,1.7-4.3,2.8-2.5,5.7
			c1.6,2.6,4,0.9,6.1,0.5c0.7,15,0.7,15,6.1,13.9c0-4.8,0-9.7,0-14.8c5.7,2.7,6.9,2.2,6.9-2.6C766,309.4,765.6,309.1,765.1,309z
			 M800.8,303.8c0-0.3-0.2-0.5-0.5-0.5c-0.4-0.4-0.9-0.7-1.3-1.1c-1.5-1.4-2.8-1-4.1,0.4c-2,2.1-4.2,4.1-6.2,6.3
			c-1.1,1.2-1.8,0.8-2.7,0.1c-0.4-0.4-0.8-0.8-1.2-1.2c0-0.2-0.2-0.4-0.4-0.4c-0.8-0.8-1.7-1.7-2.5-2.5c0-0.2-0.2-0.4-0.4-0.4
			c-0.4-0.4-0.8-0.8-1.2-1.3c-1-1.1-2.1-2-4-1.7c-3.1,3.3-6.9,6-9.2,10c1.5,4,4.3,2.8,7.1,2c0,3.8,0,7.3,0,10.8c0,2.3,0.7,4,3.3,3.9
			c2.4-0.1,2.9-1.8,2.9-3.8c0-3.8,0-7.6,0-11.1c4.6,1.3,9.1,0.7,13.8,0.7c0,3.5,0,7,0,10.5c0,2,0.6,3.7,2.9,3.8
			c2.7,0.1,3.3-1.7,3.3-3.9c0-3.8,0-7.6,0-11.6c2.2,1.1,4.2,2.8,6.6,0.8c0.4-1.6,0.9-3.2-0.8-4.4c-0.4-0.4-0.8-0.8-1.3-1.2
			c0-0.2-0.2-0.4-0.4-0.4c0-0.3-0.2-0.4-0.4-0.5c0-0.4-0.2-0.5-0.5-0.6c-0.5-0.5-1-1-1.5-1.5c0-0.3-0.2-0.5-0.5-0.5
			C801.2,304,801.1,303.8,800.8,303.8z M795.1,279.2L795.1,279.2c0.8-0.1,1.5-0.3,1.8-1.1c2.6-2.4,3.2-5.5,1.7-8.4
			c-1.4-2.9-4.1-4.7-7.7-4.7c-8.7,0-17.3-0.1-26,0.1c-4.2,0.1-7.5,1.9-8.1,6.4c-0.6,4.6,1.3,7.7,6,8.6c10,1.2,20.1,1.2,30.1,0
			c0.3,0,0.6-0.1,0.9-0.2C794.6,280,795,279.8,795.1,279.2z M794.9,337.6c5.2-0.1,10.5-0.3,15.7-0.4c1.8,0,4.1,0.1,4.3-2.2
			c0.3-2.6-1.5-3.8-4.1-3.6c-0.6,0-1.1,0-1.7,0c-2.8,0-5.6,0-8.3,0c-0.5,0-1.1,0-1.6,0.1c-7.3-0.4-14.5-0.1-21.7,0.4
			c-2.7-1.3-5.4-0.7-8.2-0.5c-5.5,0-11-0.1-16.5-0.1c-2.3-0.1-4.7-1-6.8,0.5c-0.3,0.1-0.6,0.2-1,0.3c-2.3,2.9-1.1,4.8,2,4.8
			c6,0.1,11.9,1.3,17.9,0.6c9.7,0,19.4,0,29.1,0l0.4,0.2L794.9,337.6z"/>
		<path class="st1" d="M781.2,248.7c0-11.7,0-23,0-34.6c13.9,0,27.7,0,41.6,0c7.1,11.3,14.2,22.7,21.6,34.6
			C823.1,248.7,802.3,248.7,781.2,248.7z"/>
		<path class="st1" d="M773.9,213.7c0.4,0.5,1,1,1,1.5c0.1,11.1,0,22.2,0,33.5c-21.1,0-41.8,0-63.2,0c5.9-9.7,11.6-19.1,17.4-28.6
			c0.6-1,1.3-2,1.9-3c0,0,0-0.1,0.1-0.1c0.9-0.3,1-1.1,1-1.9c0,0,0-0.1,0-0.1c1.5-1.4,3.3-1.1,5.1-1.2
			C749.4,213.8,761.7,213.8,773.9,213.7z"/>
		<path class="st3" d="M826.8,177.6c-9.7,7-8.7,15.7-4.6,26c2.3-9.2,4.3-17.4,6.4-25.8c2-0.7,3.5,0.7,5,0.6c1.3,2.7-1.3,4.8-0.3,7.6
			c1.9-2,3.6-3.9,5.4-5.9c2,0.1,3.7,0.7,6.5,2.3c-10.9,6.5-10,16-7.5,26.2c3.1-8.6,6-17,9-25.3c8.7,0.5,13.5,3.8,13.8,9.3
			c-3.4-0.3-6.1-3.4-9.7-2.6c-0.4,0.1-0.6,1.4-1,2.3c2.3,1,4.3,2,6.4,3c0.2,1.7-0.3,3-1.7,4.2c-2-0.8-4.1-1.6-6.6-2.5
			c-1.4,3.8-2.8,7.3-4.2,11.1c2.9,1.3,5.5,2.6,8.1,3.8c0.3,1.7-0.7,2.7-1.5,4.2c-5.9-2.2-11.7-4.4-17.8-6.7
			c-0.5-3.3-1.1-6.7-1.6-10.3c-3.6,1.7-2.8,5.5-4.6,8.5c-3-0.7-6.1-1.4-9.4-2.2c-0.8-3.3-1.6-6.5-2.4-10.1c-3.3,2.3-2.2,5.8-3.8,8.5
			c-1.1,0.5-2.6,0.3-4.6-0.5c1.3-9.5,2.6-19.2,3.9-28.8c2-1,3.7-0.3,5.4,0c1.1,2.6-1,4.8,0.2,7.5c1.7-2.2,3.2-4.2,4.8-6.3
			C822.1,175.7,824.1,175.7,826.8,177.6z"/>
		<path class="st3" d="M545.3,158.8c-8.8-7.5-16-13.8-23.3-20c0.4-0.6,0.8-1.2,1.1-1.8c5.1,0,10.1,0,15.2,0c1.5,0,2.4,0.8,3.4,1.7
			c6.8,6.1,13.6,12.2,20.7,18.6c-8,8.3-14.5,14.9-20.9,21.6c-1.1,1.1-2.3,1.1-3.7,1.1c-4.7,0-9.5,0-14.2,0c-0.4-0.5-0.7-1.1-1.1-1.6
			C529.6,172.3,536.7,166.1,545.3,158.8z"/>
		<path class="st3" d="M521,276.1c7.1-6.2,14.2-12.4,22.8-20c-8.2-7.1-15.4-13.3-22.7-19.6c0.4-0.5,0.7-1,1.1-1.5
			c5.2,0,10.5,0,15.7,0c1.3,0,2,1,2.9,1.7c6.8,6.1,13.7,12.1,20.8,18.4c-8.1,8.4-14.6,15.1-21,21.8c-1,1.1-2.3,1.1-3.7,1.1
			c-4.8,0-9.6,0-14.4,0C521.9,277.4,521.5,276.7,521,276.1z"/>
		<path class="st3" d="M170.2,173.6c5.7-2,5.9,3.9,9.7,5.3c2.4-0.7,4.3-1.9,1.7-6c6.7,4.3,12.4-1,18.5,0.1c4.2,0.8,8.6,0,12.1,2.2
			c2.3,0.1,2.7-2.8,5.2-1.6c-0.7,2.4-1.2,5,2.6,5.4c3.2-1.5,3.7-7.4,9.2-5.4c-6.3,11.6-16.2,18-28.9,18.2
			C187.2,192,177.1,185.5,170.2,173.6z M214.1,183.1c1-0.4,1.9-0.9,1.9-2.7C214.6,181.2,213.4,181.5,214.1,183.1l-0.1,0L214.1,183.1
			z M199.7,187.1c2.2-3.7,2.6-7.2,3-11.3c-2.3,0.3-4.2-0.7-6,0.7C197,180.2,197.4,183.7,199.7,187.1z M206.6,177.2
			c-0.6,2.8-1.2,5.7-1.9,9.2c3.4-2.5,5.7-4.7,6.9-8C209.9,177.8,208.6,176.6,206.6,177.2z M194.7,186.2c-0.8-3.5-1.4-6.3-2.1-9.2
			c-1.9-0.2-3.3,0.4-4.8,1.7C189.3,181.7,191.3,184.1,194.7,186.2z M183.1,181.1c0.5,1.2,1.1,1.8,3.5,1.9
			C184.9,181.9,185,180.2,183.1,181.1z"/>
		<path class="st3" d="M229.2,142.8c-5.8,2-6.2-4.1-9.6-5.3c-3.1,0.7-3.1,2.9-2.3,5.2c-2.4,1.4-3-1.1-4-1.5c-9.2,3-17.9,2.9-28-0.2
			c-0.4,0-0.5,3.2-3,1.9c-0.1-2,1.6-5.4-3.1-5.3c-2.8,1.3-3.4,7.1-9,5.1c6.2-10.5,14.9-16.9,27-17.7
			C211.3,124.2,221.7,130.5,229.2,142.8z M213.9,134.1c0-0.2-0.1-0.4-0.1-0.5c0,0.1-0.1,0.2-0.1,0.2
			C213.8,133.9,213.9,133.9,213.9,134.1c0.2,1,0.5,1.8,2,1.5C215.9,134.2,215.5,133.5,213.9,134.1z M204.9,131.1l-0.1-0.3
			L204.9,131.1c0.6,2.8,1.1,5.7,1.8,9.1c1.9-1.2,3.7-0.9,5-2.7C209.6,135.2,208.6,131.8,204.9,131.1z M203.1,140
			c-1.2-3.5-0.9-7.3-3.7-10.6c-1.8,3.8-2.7,7.3-2.6,11.1C198.9,140.9,200.7,141.1,203.1,140z M187.8,137.7c1.3,1.5,2.9,1.8,4.7,1.9
			c0.7-3,1.4-5.9,2.2-9.4C191.4,132.3,189.4,134.7,187.8,137.7z M185.2,134.2c-1.7-0.2-2.1,0.4-1.9,1.5
			C184.6,136.1,184.8,135.2,185.2,134.2z"/>
		<path class="st3" d="M718.1,184.8c0.8-2.7,3.5-2,5.3-3.1c4.3,2.8,6.4,7.6,10.7,10.8c0.1-4.7-2.3-8.3-2.8-12.7
			c1.3-1.2,3.2-1.2,5.4-1.9c2.5,9.7,4.9,19.2,7.4,28.7c-3.3,2.4-5.5,1.8-7.6-1.4c-2-3-4.6-5.7-6.9-8.5c-0.2-0.2-0.5-0.4-0.7-0.6
			c-0.1-0.1-0.3-0.1-0.4-0.2c0.1,0.1,0.3,0.1,0.4,0.2c-0.1,0.3-0.1,0.5,0.2,0.6c1.2,4.4,2.5,8.8,3.8,13.5c-1.3,0.6-2.6,1.3-3.9,1.9
			c-0.2-0.2-0.4-0.2-0.7-0.1c-0.1-0.3-0.2-0.6-0.5-0.9C724.9,202.2,721.9,193.3,718.1,184.8z"/>
		<path class="st3" d="M275.2,147.6c3.5-0.1,3.5-0.1,6.2,12.1c1.6-3.1,0.7-6.8,3-9.6c4.1,1.3,1.2,6.1,4.2,8
			c0.7-3.7,1.4-7.2,2.3-11.4c4.6,2.1,10.4-2.8,14.2,3.4c-2.2,1.4-4.4,0-6.1,1.3c-1.1,3.8,6.2,0.3,3.9,5.2c-1.1,0.2-2.5,0.4-3.9,0.6
			c0,3.1,0,5.8,0,8.2c1.9,1.9,6.8-1.4,5.8,4.3c-3.1,0-6.2,0-9.6,0c0-7.1,0-14,0-20.9c-0.3,0-0.6-0.1-0.9-0.1
			c-1.3,6.9-2.5,13.9-3.8,20.8c-2.6,1-4.6,0.8-6-3.3c-0.5,4.3-2.6,4.1-5.4,3.4C277.9,162.6,276.6,155.3,275.2,147.6z"/>
		<path class="st4" d="M710.1,255.2c0,31.4,0,62.9,0,94.6c45.2,0,90.3,0,135.4,0c1.1-1.6,0.6-3.5,0.6-5.2c0-27.6,0-55.3,0-82.9
			c0-1.8,0.2-3.6,0.2-5.5c1.2,1.7,0.6,3.5,0.6,5.3c0,27.3,0,54.6,0,81.9c0,2.5-0.3,5,0.6,7.6c-46.5,0-92.6,0-138.5,0
			c-1.6-2-1.1-3.9-1.1-5.7c0-28.3-0.1-56.6,0-84.9C708.1,258.6,706.6,255.8,710.1,255.2z"/>
		<path class="st3" d="M793.1,200c-1.1,3.4-3.4,2.2-5.8,1.6c2-9.8,4.4-19.4,7.1-28.9c2.5-0.9,4.8,0.1,7.2,0.1
			c2,10,2.1,19.9,3.2,29.8c-3.9,1.5-5.6,0.1-5.8-3.5c-0.4-4.6-0.7-9.3-1.1-13.9c-1.5,3.4-4.9,6.5-0.8,10c0.7,0.6,0.7,2.2,0.1,3.3
			c0,0-0.2,0.1-0.2,0.1c-0.3-0.1-0.6-0.1-0.9,0.1l-0.4-0.3c0,0-0.5,0-0.5,0C793.4,197.7,792.9,198.4,793.1,200z"/>
		<path class="st3" d="M406,170.1c-3.1,0-6.2,0-9.7,0c0-7,0-13.4,0-19.8c-0.3,0-0.6-0.1-1-0.1c-1.2,6.4-2.4,12.8-3.6,19.2
			c-1.5,0.9-2.9,0.6-4.7,0.2c-1.3-7.2-2.6-14.5-3.9-21.8c2.6-0.4,2.6-0.4,6.2,10.8c1.9-3.5,1.2-7.6,3.1-11.7c3.3,0,6.9,0,10.5,0
			c2.1,0.3,3.2,1.4,2.8,3.6c-1.9,0.9-4-0.4-5.6,0.9c-1.2,4.2,6.3,0.2,4.3,5c-1.2,1.1-3.3-0.3-4.5,1.4c0.1,2.7-0.4,5.5,0,7
			C402.2,167.8,408.1,163.6,406,170.1z"/>
		<path class="st3" d="M449.6,147.7c1.8-1,3.2-0.5,5.3-0.5c0,6.9,0,13.7,0,20.4c0,2.6-1.5,2.5-3.3,2.1c-1.2-1.6,0-3.6-1.1-5.6
			c-0.5,1.9-1,3.6-1.4,5.3c-4.3,2-3.9-1.7-4.4-4.3c-1.7,1.7,0.2,6.2-4.5,4.5c0-7.3,0-14.7,0-22.1c1.5-0.9,3-0.4,4.6-0.4
			c0.8,3.5,1.6,6.8,2.6,11.1C448.3,154.1,449,150.8,449.6,147.7z"/>
		<path class="st3" d="M694,212.2c-0.7,0.1-1.4,0.1-2.1,0.2c-0.3-0.1-0.6-0.2-0.9-0.3c-0.1-0.2-0.4-0.3-0.6-0.3
			c-0.5-0.3-0.9-0.5-1.4-0.8c0,0-0.1-0.1-0.1-0.1c-0.3-2.8,3.5-2.3,3.7-5.2c-1-1.5-1.1-5.2-4.8-2c-1.2,0.8-1.1,1.6-0.1,2.5
			c0.9,2-1.4,1.7-1.9,2.6c-1.3-0.3-2.7,0.5-3.9-0.4c-1.6-5,0.3-8.3,5.9-10.6c4.6-1.8,7.5-1.1,9.2,3.7c1.7,5,5.2,8.7,7.4,13.3
			c2.1,4.3,1,7.4-2.7,9.8c-3.5,2.2-7.1,2.7-10-1.1c0.3-2,1.4-3.2,2.6-4.5c1.8-0.1,2.7,3.6,4.9,1.3c1.9-1.9-0.3-3.3-1-4.8
			c-0.4-0.9-1-1.7-1.5-2.6C696.2,211.6,695.2,211.7,694,212.2z"/>
		<path class="st3" d="M779.2,185.1c0,5.6,0,10.9,0,16.3c-1.3,1.2-2.8,1.1-4.8,0.3c-0.5-9.6-1.1-19.3-1.6-29.7c3.2,0,6-0.1,8.8,0
			c5.4,0.1,7.5,2,7.5,6.4c0,4.6-1.9,6.3-7.3,6.6C781,185.1,780.4,185.1,779.2,185.1z M779.1,177.1c-0.2,1.9-0.3,3.3,2.2,3.1
			c1.1-0.1,2.1-0.6,1.8-1.8C782.6,176.1,780.9,176.8,779.1,177.1z"/>
		<path class="st3" d="M860.8,221.4c-1.7-0.7-2.9-1.3-4.6-2.1c3.8-7.7,7.5-15.2,11.3-22.8c-1.6-0.9-2.9-1.6-4.1-2.3
			c-0.3-1.7,0.6-2.9,1.7-4.2c5.1,1.9,9.7,4.7,14.4,7.3c0,1.7-0.7,2.9-2.1,4c-1.3-0.5-2.6-1.1-4.5-1.9
			C868.9,206.6,864.9,213.8,860.8,221.4z"/>
		<path class="st3" d="M478.8,169.9c-6.8,0.3-4.3-6.6-7.6-9.3c0,3,0,5.8,0,8.1c-1.3,1.7-2.4,1.3-3.8,1c0-7.4,0-14.8,0-22.1
			c2.7-0.2,2.7-0.2,7.4,8.1c2.3-2.3-2.3-7.8,4.1-8.7C478.8,154.8,478.8,162.2,478.8,169.9z"/>
		<path class="st3" d="M760.9,203.6c-1.2-8.3-2.4-16.3-3.6-24.5c-1.6-0.1-3.1-0.1-4.7-0.2c0-0.5,0-0.9,0.1-1.3
			c1.4-5.4,6-3.2,9.8-4.5c1.2,10.1,2.3,19.7,3.4,29.3C764.5,203.6,763.1,203.7,760.9,203.6z"/>
		<path class="st3" d="M361.2,147.3c9.4-0.4,9.8-0.1,9.8,8.8c0,1.8,0,3.6,0,5.5c0,8.6-0.6,9.1-9.8,8.1
			C361.2,162.3,361.2,154.9,361.2,147.3z M365.9,151.1c-1,5-1.6,10,0.3,14.9C367.3,161,367.6,156.1,365.9,151.1z"/>
		<path class="st3" d="M308,170.2c-1-0.2-1.9-0.4-1.9-1.8c0-7,0-13.9,0-21c3.8-0.4,7.1-1.1,9.8,1.6c-0.2,6.6,1.2,13.2-0.4,19.8
			c-0.3,0-0.4,0.1-0.5,0.4C312.8,170.4,310.3,169.8,308,170.2z M311.1,166.1c1.9-3,2.4-6-0.6-10.1
			C309.7,160.2,309.6,163.1,311.1,166.1z M310.3,153.6c1.7-0.2,2.3-0.8,2.1-2.2C310.3,150.5,309.6,151.1,310.3,153.6z"/>
		<path class="st3" d="M427.2,166.8c-1,3.8-4,3.6-6.8,3c-2.8-0.6-3.2-3-3.1-5.5c0-3.8,0-7.6,0-11.4c0-2.7,0.6-5.1,3.7-5.7
			c2.8-0.5,5.3-0.1,6.3,3.2C427.2,155.9,427.2,161.3,427.2,166.8z M421.6,150.6c0,5.6,0,10.6,0,16.5
			C424.5,162.7,424.4,153.8,421.6,150.6z"/>
		<path class="st3" d="M726.1,213c-1.2,0.4-2.5,0.8-4.2,1.3c-3.8-9.2-7.6-18.3-11.5-27.8c2.6-0.5,4.2-3.2,6.5-0.5
			c0.8,2.3,1.5,4.7,2.3,7C721.4,199.7,725,205.9,726.1,213z"/>
		<path class="st3" d="M382.1,150.3c-2.1,1.3-4.4-0.2-6,1.3c-0.9,4,6.7-0.2,4.4,5.1c-1.2,0.2-2.6,0.4-4.3,0.6
			c-0.4,2.9-0.5,5.8,0,8.3c2,1.8,6.6-1.5,6,4.2c-3.2,0-6.3,0-9.7,0c0-7.3,0-14.6,0-22.4C375.8,147.8,380.1,144.8,382.1,150.3z"/>
		<path class="st3" d="M353,156.5c-0.9,1.2-2.8-0.2-4.1,1.2c0,2.4,0,5.1,0,7.4c1.3,2.6,6.6-1.2,5.8,4.3c-3,1-6.1,0.3-9.5,0.4
			c0-7.5,0-14.9,0-22.7c3.3,0.4,7.5-2.4,9.4,3c-1.8,1.4-4.1-0.1-5.7,1.3C348,155.2,355,151.9,353,156.5z"/>
		<path class="st3" d="M465.9,169.9c-3.3,0-6.2,0-9.5,0c0-7.4,0-14.8,0-22.2c6.8-1.5,7.8-1.1,9.3,2.8c-1.8,1-4-0.4-5.6,1.1
			c-0.7,3.9,6,0,4.4,4.9c-0.9,1.3-2.9-0.2-4.4,1.1c0,2.6,0,5.3,0,7.8C461.7,167.5,466.6,164.1,465.9,169.9z"/>
		<path class="st3" d="M871.1,221c-0.3-1.3-1.2-2.3-0.1-4c3.7-5.9,7.2-11.9,10.7-17.8c2.1,0.3,3.5,1.4,5.4,3
			c-4.9,6.4-7.4,14.4-14,19.7l0.1,0.1c-0.4-1-1-1.6-2.1-1L871.1,221z"/>
		<path class="st3" d="M187.8,151.7c-1.2,4-2.2,7.3-3.2,10.6c-0.3,1.1-0.7,2.3-2.2,2.3c-1.8,0-2.2-1.1-2.5-2.5
			c-0.4-1.7-0.9-3.3-1.4-5.1c-1.8,1.2-1.2,2.9-1.9,4.2c-0.7,1.3-0.3,3.5-2.8,3.5c-2.2-0.1-2-1.9-2.4-3.2c-0.9-2.8-1.7-5.7-2.5-8.6
			c1.8-0.2,2.7,1.2,5.4,8.1c1.9-2.7,1.1-6.5,3.5-9.1c4,1.6,2.2,5.9,4.2,8.3C184.9,158.1,182.3,152.8,187.8,151.7z"/>
		<path class="st3" d="M208.6,152.3c-1.7,4.2-0.6,9.7-5.4,12.6c-2.5-2.3-1.8-5.5-3.9-8.3c-0.7,2.3-1.2,4.1-1.7,5.9
			c-0.3,1.2-0.9,2.1-2.4,2.1c-1.5,0-1.9-1-2.2-2.2c-0.9-3.3-1.8-6.6-3-10.5c5.8,0.8,3.1,6.1,5.5,8.4c2.8-1.9,0.3-7,4.7-8.3
			c2.3,2.6,1.6,6.1,3.2,9C206.3,158.5,203.3,153,208.6,152.3z"/>
		<path class="st3" d="M428.6,150.4c-0.3-4.1,2.6-3.3,5-3.3c3.2,0,4.9,1.6,5.1,4.8c0.2,4.1-2.3,5.5-6.2,5.3c0,4.3,0,8.3,0,12.3
			c-2.3,0.9-3.8,1-3.8-1.8C429.1,161.9,429.1,156.1,428.6,150.4z M434.9,152.6c-0.1-1-0.4-1.5-1.1-1.6c-0.7,0-1.3,0.1-1.4,0.9
			c-0.2,0.9,0.3,1.6,1.2,1.6C434.1,153.4,434.6,152.8,434.9,152.6z"/>
		<path class="st3" d="M325.5,169.8c-0.5,0.1-1,0.2-1.5,0.3c-1.7-0.3-3.3-0.6-5-0.9c-0.1-0.3-0.3-0.4-0.6-0.4
			c-0.6-2.2-1.9-4.6,2.1-5.1c0.9,0.8,0.8,3.5,3.3,1.8c0.4-2.4-0.9-4.1-2.5-5.5c-3.5-3.1-4.4-6.7-3.3-11.1c1.9-2,4.3-2.1,6.8-1.9
			c2.2,2.1,4.8,4.2,0.1,6.5c-1.3-0.6-0.8-4.3-3.7-1.8c0.1,5,6.2,6.8,6.5,11.6c0,1-0.1,2.1-0.1,3.1
			C326.8,167.6,326.1,168.7,325.5,169.8z"/>
		<path class="st3" d="M220.4,151.6c4,1.9,2.5,6.1,4.3,8.7c3.1-1.9,0-7.5,5.8-8.5c-1.2,4-2.3,7.4-3.3,10.8c-0.3,1.1-0.7,1.9-1.9,1.9
			c-1.4,0.1-2.1-0.7-2.3-2c-0.4-1.9-1-3.7-1.8-7c-1,3.2-1.6,5.1-2.1,7c-0.4,1.3-1,2-2.4,2c-1.3-0.1-1.6-1-1.9-2
			c-1-3.3-1.9-6.6-2.2-10.2c4.7,1,2.6,5.8,4.6,8.7C219.1,158.4,218.3,154.4,220.4,151.6z"/>
		<path class="st4" d="M406,170.1c2.1-6.5-3.8-2.3-5.9-5.2c-0.5-1.5,0.1-4.3,0-7c1.2-1.6,3.3-0.3,4.5-1.4c1.9-4.8-5.5-0.9-4.3-5
			c1.6-1.4,3.7-0.1,5.6-0.9c0.4-2.2-0.7-3.3-2.8-3.6c1.8-3.7,3.4,0.4,5.1,0.1c-0.8,7.5-0.2,15-0.3,22.8c2.3,0.1,4.3,0.2,6.2,0.4
			C411.3,170.8,408.6,172.5,406,170.1z"/>
		<path class="st3" d="M331,147.3c3.9,0.5,7.8-0.9,12.1,0.1c0.1,0.4,0.7,1.3,0.5,1.5c-5.2,5.1-2.1,11.6-2.8,17.4
			c-0.3,2.3-0.1,4.4-3.7,3.4c0-6,0-11.9,0-18.4c-1.9,0.2-3.6-2.2-5.1,0.8C331.9,150.4,332.1,148.7,331,147.3z"/>
		<path class="st3" d="M486.9,151.5c0,6.3,0,12.1,0,18.1c-2.1,0.6-3.7,0.8-3.6-2.1c0.1-2.8,0.2-5.7,0-8.5c-0.2-3.3,1.6-7.2-3-9.2
			c-0.3-0.1,0-1.5,0-2.5c3.4,0,6.5,0,9.5,0C491.7,150.5,489,150.8,486.9,151.5z"/>
		<path class="st3" d="M414,170.2c-1.9-0.1-3.9-0.2-6.2-0.4c0.1-7.7-0.5-15.2,0.3-22.8c2.7-0.4,3.3,1,3.3,3.4c-0.1,4.9,0,9.9,0,14.5
			c1.2,1.8,3,0.8,4.3,1.7C416.2,168.3,416.7,170,414,170.2z"/>
		<path class="st4" d="M327.6,163.5c-0.3-4.9-6.4-6.7-6.5-11.6c2.9-2.5,2.4,1.3,3.7,1.8c4.7-2.3,2.1-4.4-0.1-6.5
			c1.4,0.3,2.9-1.2,4.3,0c-0.4,7.6-0.5,15.2,0,22.8c-1.2-0.1-2.4-0.1-3.5-0.2c0.7-1.1,1.3-2.2,2-3.2
			C328.5,165.6,328.5,164.5,327.6,163.5z"/>
		<path class="st4" d="M318,149c-1.1,4.4-0.2,8,3.3,11.1c1.6,1.4,2.9,3.1,2.5,5.5c-2.5,1.7-2.4-1-3.3-1.8c-3.9,0.5-2.7,2.9-2.1,5.1
			c-1,0-1.9,0-2.9,0c1.6-6.6,0.2-13.2,0.4-19.8C316.6,149,317.3,149,318,149z"/>
		<path class="st3" d="M743.5,194.2c-1.1-1.5-1.6-2.7-1.1-4.7c3.7-0.8,7.6-1.6,11.5-2.4c1.5,1.3,1.1,2.8,1.2,4.6
			C751.3,192.5,747.5,193.3,743.5,194.2z"/>
		<path class="st3" d="M713.4,199.4c0.7,1.6,1.1,2.7,1.7,4.1c-3.8,1.8-7.5,3.6-11.2,5.3c-1.7-0.7-1.8-2.2-2.5-3.7
			C705.3,202.6,709.1,200.9,713.4,199.4z"/>
		<path class="st1" d="M329,170c-0.4-7.6-0.4-15.2,0-22.8c0.7,0.1,1.3,0.1,2,0.2c1.1,1.4,0.8,3.1,1,4.8c0,5.6,0,11.3,0,16.9
			c-0.3,0.3-0.7,0.6-1,0.8C330.3,169.9,329.7,169.9,329,170z"/>
		<path class="st4" d="M726.1,213c-1.1-7.1-4.7-13.3-6.9-20c-0.8-2.3-1.5-4.7-2.3-7c0.4-0.4,0.8-0.8,1.2-1.2
			c3.8,8.6,6.8,17.4,9.8,26.3c-0.7,0.7-0.1,0.8,0.5,0.9c0.2-0.1,0.5-0.1,0.7,0.1C728.3,213.1,727.2,213,726.1,213z"/>
		<path class="st4" d="M773.9,213.7c-12.2,0.1-24.4,0.2-36.6,0.2c-1.8,0-3.6-0.3-5.1,1.2c0.1-1.8,1.3-2.1,2.7-2.1
			c12.6,0,25.1,0,37.7,0.1C773,213.1,773.4,213.5,773.9,213.7z"/>
		<path class="st2" d="M428.6,150.4c0.5,5.7,0.5,11.5,0,17.2c-0.5-0.3-1-0.5-1.4-0.8c0-5.5,0-10.9,0-16.3
			C427.7,150.4,428.2,150.4,428.6,150.4z"/>
		<path class="st4" d="M797.1,198.4c0.6-1.1,0.6-2.8-0.1-3.3c-4.1-3.5-0.7-6.7,0.8-10c0.4,4.6,0.7,9.3,1.1,13.9
			C798.4,198.8,797.8,198.6,797.1,198.4z"/>
		<path class="st3" d="M873,221.9c-0.5,1.7,0,3.8-2.1,5c-1.7,0.3-2.6-1.3-3.9-2c0.3-2.7,1.6-4,4.1-3.9c0,0-0.1-0.1-0.1-0.1
			C871.2,222.3,871.7,223,873,221.9L873,221.9z"/>
		<path class="st4" d="M685.8,208.9c0.5-1,2.8-0.7,1.9-2.6l0.4-0.3c0.8,0.2,0.9,2,2.4,1c0.6-2-0.4-2.8-2.4-2.8l-0.3-0.3
			c3.7-3.2,3.8,0.5,4.8,2c-0.2,2.9-4.1,2.4-3.7,5.2C687.9,210.2,687.4,208.8,685.8,208.9z"/>
		<path class="st4" d="M308,170.2c2.3-0.4,4.8,0.2,7-0.9C313,172.2,310.5,171.2,308,170.2z"/>
		<path class="st4" d="M319,169.3c1.7,0.3,3.3,0.6,5,0.9C322.1,171.2,320.2,172,319,169.3z"/>
		<path class="st4" d="M793.1,200c-0.2-1.6,0.4-2.3,2-1.6C795.1,199.8,794.9,200.9,793.1,200z"/>
		<path class="st4" d="M731,217.1c-0.6,1-1.3,2-1.9,3C729,218.6,728.9,217.1,731,217.1z"/>
		<path class="st4" d="M694,212.2c1.2-0.6,2.1-0.6,2.7,0.8C695.8,213,694.8,213.1,694,212.2z"/>
		<path class="st4" d="M732.1,215.1c0,0.8-0.1,1.6-1,1.9C731,216.2,731.3,215.5,732.1,215.1z"/>
		<path class="st4" d="M691,212.1c0.3,0.1,0.6,0.2,0.9,0.3C691.5,212.8,691.2,212.6,691,212.1z"/>
		<path class="st2" d="M729,196c0.2,0.2,0.5,0.4,0.7,0.6c0,0-0.3,0.1-0.3,0.1s-0.3-0.1-0.3-0.1C728.9,196.5,728.9,196.2,729,196
			L729,196z"/>
		<path class="st3" d="M331,169.8c0.3-0.3,0.7-0.6,1-0.8C332.1,169.8,331.7,169.9,331,169.8z"/>
		<path class="st4" d="M689,211.1c0.5,0.3,0.9,0.5,1.4,0.8C689.9,211.6,689.4,211.4,689,211.1z"/>
		<path class="st4" d="M796,198.6c0.3-0.2,0.6-0.2,0.9-0.1c-0.1,0.3-0.3,0.6-0.4,0.8C796.4,199.1,796.2,198.8,796,198.6z"/>
		<path class="st4" d="M191.9,386.6c2,0,4.1,0,6.1,0c13.8,0.1,27.5,0.2,41.3,0.1c3.1,0,4.8-1.7,4.1-5.3c-8.9,0-17.7,0-26.1,0
			c-1.7,0.9-0.5,2.9-2.3,3.7c-5.2,0-10.6,0-16.1,0c-0.6-1.4,0.2-3.7-2.3-3.7c-8.3,0-16.5,0-24.9,0c-0.6,5,2.3,5.4,5.5,5.4
			c2.9,0.1,5.8-0.5,8.6,1.1c-4.7,1.1-9.4,2.2-13.9,0c-3.3-1.6-3.3-5-2.7-8.1c1.4-1.4,3.1-0.6,4.6-1.3c0.1-0.6,0.3-1.2,0.3-1.9
			c0-11.5,0-23,0-34.5c0-6.3,2-8.3,8.4-8.3c16.8,0,33.6,0,50.5,0c5.7,0,7.8,2.2,7.9,7.8c0,12.1,0,24.3,0,36.2
			c1.3,1.6,3.2,0.4,4.6,1.6c1.8,1.7,0.2,7.2-2.9,8.7c-1.2,0.5-2.6,0.7-3.9,0.7c-15.3,0-30.6,0.1-46,0c-1.4,0-3.6,1-3.7-1.8
			C190,386.9,191,386.8,191.9,386.6z M176.4,378.8c21,0,41.3,0,61.9,0c0-11.6,0-23,0-34.2c-1.8-1.1-3.9,0.2-5.3-1.4
			c1.2-2.6,4-0.3,5.6-2.5c0.1-2.9-1.5-4.5-4.7-4.5c-17.5,0-35,0-52.5,0c-3.2,0-4.9,1.5-4.8,6c17.6,0,35,0,52.5,0c0,0.6,0,1.2,0,1.8
			c-17.4,0-34.7,0-52.2,0c-0.1,1.9-0.3,3.2-0.3,4.5C176.4,358.4,176.4,368.4,176.4,378.8z M213.7,381.9c-4.2-0.7-8.4-1.2-13.6,0
			C205,383.4,209.7,383.4,213.7,381.9z"/>
		<path class="st4" d="M522.4,381.5c6.8-6.1,13.5-12.3,21.1-19.1c-7.8-7-14.8-13.3-21.7-19.5c0.4-0.6,0.8-1.2,1.2-1.8
			c5.1,0,10.1,0,15.2,0c1.6,0,2.3,1.1,3.2,2c6.3,5.9,12.5,11.9,19.4,18.3c-7.5,7.6-14,14.6-20.9,21.1c-2,1.9-5.4,0.5-8.2,0.6
			c-2.8,0.1-5.5,0-8.3,0C523,382.5,522.7,382,522.4,381.5z"/>
		<path class="st4" d="M404.7,353.7c-2,1.6-4.9-0.5-5.8,2c0.2,3.1,6,0.2,4.1,5c-1.2,0.2-2.6,0.4-4,0.6c0,3.1,0,5.9,0,8.1
			c1.5,2.6,6.7-1.2,5.9,4.4c-4.4,0-8.6,0-13.1,0c-0.9-2.2-1.8-4.3-2.9-6.7c-2.4,1.8-1,4.5-2,6.5c-2,0.8-4.1,0.4-6.5,0.2
			c-1.1-2.7-2.3-5.5-3.5-8.6c-2.3,2.8,1.5,7.5-3.9,9.1c0-8.1,0-15.5,0-23.3c3.3,0.2,6.8-1.2,8.8,2.2c1.8,3.1,0.8,6.2-2.5,8.1
			c1.4,3.5,2.6,6.7,3.8,9.8c0.2,0,0.5-0.1,0.7-0.1c0-6.5,0-13.1,0-19.5c4-1.7,3.4,1.4,3.7,3.7c2.4-1.2,2.1-6,6.3-3.5
			c-3.7,6.3-3.8,12.6,1.3,19.4c0-7.1,0-13.4,0-20.1C398.8,351.8,402.6,348.9,404.7,353.7z M379,356c0-1-0.6-1.5-1.4-1.6
			c-0.9-0.1-1.4,0.5-1.4,1.5c0,0.9,0.4,1.6,1.3,1.6C378.3,357.5,379,357,379,356z"/>
		<path class="st4" d="M284.2,266c-1.2,1.9-2.9,1-4.8,0.8c-1.2-7.1-2.5-14.3-3.8-21.5c3-0.4,3-0.4,5.8,12c2.3-2.7,0.5-6.9,3.5-9.8
			c3.1,2.8,1.5,6.8,3.7,10.1c0.9-4.5,1.7-8.6,2.6-13.2c4.5,1.8,10-2.5,13.9,2.9c-2.3,1.5-5.1-0.4-6.4,1.9c1,2.7,3.3,0.9,4.5,2.2
			c1.3,3.9-2.5,2.4-4,3.6c-0.6,2.6-0.4,5.3-0.2,7.4c1.4,3,6.4-0.9,6,4.4c-3.2,0-6.1,0-9.6,0c0-6.8,0-13.5,0-20.3
			c-0.4,0-0.8-0.1-1.1-0.1c-1.2,6.6-2.4,13.3-3.7,20.2c-1.7,0.4-3.4,1.3-4.8-0.7c0-1,0.4-2.2-0.7-3
			C283.9,263.8,284.3,264.9,284.2,266z"/>
		<path class="st4" d="M226.2,275.8c-1.2,1.1-2.5,2.2-3.7,3.2c-13-13.1-25.9-26.2-39.2-39.6c0.9-0.9,2.2-2.1,3.4-3.3
			C199.8,249.4,212.7,262.3,226.2,275.8z"/>
		<path class="st4" d="M219,282.8c-1,0.8-2.2,1.9-3.4,2.9c-12.9-13.1-25.8-26.2-38.8-39.4c0.6-0.5,2-1.6,3.4-2.6
			C192.8,256.3,205.6,269.3,219,282.8z"/>
		<path class="st0" d="M355.1,371c-0.1-1.8-0.2-3.6-0.5-6.7c-0.8,3.9-1.4,6.5-2,9.2c-2.7,1.4-3.5-0.3-3.9-2.4
			c0.3-2.2-0.8-3.9-1.8-5.8c0,2.9,0,5.8,0,8.7c-2.4,0.4-3.1-0.6-3.1-3c0.1-6.4,0-12.9,0-19.2c1.5-1.3,3-0.7,4.6-0.5
			c1.5,3.2,0.8,7,2.9,10.8c0.7-3.2,1.2-5.6,1.8-8.1c1.5-1.1,2.9-2.3,4.9-2c0,0,0,0,0,0c0,0.4,0,0.9,0,1.3c0,2.5,0,5.1,0,7.6
			c0,1.1,0,2.3,0,3.4c0,1.6,0,3.2,0,4.8c-1.4,1,0.6,2.6-0.8,3.6C356.1,372.9,356,371.4,355.1,371z"/>
		<path class="st4" d="M287.4,350.9c6.6,0.4,4.2,7.2,8.2,10.2c0-2.6,0-4.6,0-6.6c0-2-0.2-4.3,3.3-3.1c0,7.4,0,14.9,0,22.7
			c-7-0.4-4-7.9-7.7-10.1c-1.4,3,1.4,7.7-1.8,10.2c-0.6-0.2-1.3-0.4-1.9-0.6C287.4,366.3,287.4,359,287.4,350.9z"/>
		<path class="st0" d="M420.7,246c2-2.4,3.5-2,4.5,0.8c1,2.7,2,5.5,3.6,8.2c0-3.2,0-6.4,0-8.8c1.2-2.6,3.2-0.7,4.2-2.1
			c0,0-0.1-0.1-0.1-0.1c-1.4,7.5,0.1,15-0.9,23c-6.7-0.5-3.9-7.8-7.9-10.5c0,3.5,0,6.9,0,10c-1.6,0.5-2.7,0.7-3.5-0.6
			C420.7,259.4,420.7,252.7,420.7,246z"/>
		<path class="st3" d="M199,385.1c5.5,0,10.9,0,16.1,0c1.8-0.8,0.6-2.8,2.3-3.7c8.4,0,17.1,0,26.1,0c0.8,3.6-1,5.3-4.1,5.3
			c-13.8,0.1-27.5-0.1-41.3-0.1C198.3,386.1,198.7,385.6,199,385.1z"/>
		<path class="st4" d="M325.9,374c-2.4,0.5-3.6-0.4-4.3-2.8c-0.7-2.5-1.7-4.9-3.5-7.3c0,2.4-0.1,4.9,0,7.3c0.2,2.5-0.9,3.2-3.2,2.8
			c0-7.7,0-15.3,0-23c2.2-0.4,3.7,0.1,4.3,2.8c0.6,2.5,1.7,4.9,3.5,7.2c0-2.5,0.1-5,0-7.5c-0.2-2.5,1.3-2.7,3.1-2.4
			C325.9,358.7,325.9,366.3,325.9,374z"/>
		<path class="st0" d="M423.1,351.1c2-0.3,3.4,0,4,2.4c0.7,2.7,1.9,5.4,3.8,7.8c0-1.6,0-3.1,0-4.7c0-1.6,0-3.3,0-5
			c1.4-0.7,2.5-0.9,3.4,0.4c0,6.7,0,13.4,0,20c-1.6,3.9-3.2,2.5-4.3-0.2c-1.2-2.7-2-5.5-4-8.2c0,2.6-0.1,5.2,0,7.8
			c0.2,2.4-1,2.8-3,2.5C423.1,366.3,423.1,358.7,423.1,351.1z"/>
		<path class="st0" d="M306.8,266.8c0-7.4,0-14.5,0-21.5c8.1-1.5,9.2-0.6,9.1,7.3c0,2,0.3,4,0.4,6
			C316.5,267.1,316,267.5,306.8,266.8z M310.2,264.2c3.9-2.5,3.9-7.5,0.3-9.8C309.6,257.5,310,260.5,310.2,264.2z M312.9,249.7
			c-0.1-1.1-0.7-1.5-1.6-1.6c-1-0.1-1.3,0.6-1.4,1.5c0,0.9,0.4,1.5,1.4,1.5C312.2,250.9,312.8,250.4,312.9,249.7z"/>
		<path class="st4" d="M355.1,371c0.8,0.4,0.9,1.9,2.2,1.5c1.4-1-0.6-2.6,0.8-3.6c0.2,0.9,0.5,1.9,0.7,2.8c0.3,0,0.6,0.1,0.8,0.1
			c1.2-6.7,2.4-13.3,3.7-20.1c1.1-1.3,2.6-0.9,4.4-0.5c1.3,7.3,2.6,14.7,3.9,22.1c-2.1,1.1-3.4,0.8-3.9-1.4
			c-0.4-3.8-0.9-7.6-2.1-11.1c-3.3,3.4,0.8,6.6,0.1,10c-2.7-0.8-2.4,2-3.6,3.2c-2.2-0.8-4.5-0.1-6.5-0.2
			C354.7,372.9,355.1,371.9,355.1,371z"/>
		<path class="st4" d="M226.6,230c0.8-1.1,1.5-0.5,2.3,0c-0.4,11-3,16-9.9,18.9c-0.4-0.3-1.1-0.5-1.5-0.9c-7.7-7.4-7.7-7.5,2.3-11.3
			C222.8,235.5,225.5,233.5,226.6,230z"/>
		<path class="st4" d="M190.9,265.3c1.6,1.7,2.9,3,4.5,4.7c-6.9,6.4-13.7,12.7-20.4,19c-1,1-2.3,1.6-3.5,0.4
			c-1.4-1.5-0.4-2.7,0.7-3.9C178.2,278.9,184.3,272.4,190.9,265.3z"/>
		<path class="st4" d="M436.6,352.3c3-1.1,6.1-3.3,8.4,1.2c-1.5,1.8-3.7,0.2-5.8,2c-0.2,4.5-0.6,9.6,1.1,14.6
			c2.4-3.8,1.9-7.7-0.2-11.4c1.6-1.7,3.2-1.2,5.3-0.6c0,3,0.1,6.2,0,9.3c-0.1,6.7-3.3,8.3-9.4,4.6
			C435.8,365.4,434.8,358.8,436.6,352.3z"/>
		<path class="st4" d="M371.1,266.8c0-7.4,0-14.5,0-21.6c8.2-1.7,9.7-0.5,9.7,7.3c0,2,0,4,0,6C380.7,267.3,380.4,267.7,371.1,266.8z
			 M375,264.4c4.1-4.2,3.6-14.9-0.6-16.3C374.5,253.4,373.8,258.5,375,264.4z"/>
		<path class="st4" d="M286,362.7c0,2,0,4,0,6c0,3.2-1.4,5.1-4.7,5.2c-3.2,0.1-5.2-1.4-5.3-4.6c-0.1-4.5-0.1-9,0-13.4
			c0.1-3.2,2.1-4.9,5.2-4.7c3.1,0.1,4.8,1.9,4.7,5.2C286,358.4,286,360.5,286,362.7z M281,354.7c-2.5,3.4-2.4,12.4,0.1,15.5
			C283.5,367,283.4,357.7,281,354.7z"/>
		<path class="st4" d="M382.6,244.6c3.4,0.6,7.3-1.9,9.4,3.1c-2.2,0.2-4.1,0.4-5.9,0.6c-0.9,4.3,3.3,1.6,4.2,3.4
			c0.9,3.7-2.6,2.3-4.1,3.2c-0.5,2.8-0.5,5.6-0.1,8.1c1.5,2.2,6.3-1.3,6,4c-3.2,0-6.2,0-9.5,0C382.6,259.7,382.6,252.4,382.6,244.6z
			"/>
		<path class="st4" d="M327.6,249.1c-2.9,3.8-3.3-0.5-5.2-1.4c-2.2,3-0.4,5,1.4,6.7c2.5,2.3,4,4.9,3.9,8.2c0,1.9-0.5,3.8-2.6,4.3
			c-1.9,0.5-4.1,0.9-5.7-0.6c-2.2-2-2.4-3.9,0.9-5.2c1.3,0.5,0.8,2.7,3.3,2.5c0,0.1,0.2-0.3,0.3-0.8c0.7-2.5-1-4.1-2.5-5.6
			c-1.9-1.8-3.3-3.7-3.5-6.4c-0.2-2.7-0.2-5.5,3.4-6.1C324.8,244.2,327.3,245,327.6,249.1z"/>
		<path class="st0" d="M409.9,247c3.1-2.7,6.2-4.1,9.3,0c-1.4,2.3-4.2,0-5.8,1.7c-1.3,9.3-0.8,13.6,2.1,15c1.1-4.1,0.6-8-0.8-11.9
			c1.5-1.1,2.9-1.1,4.4-0.2c0.1,4.7,0.6,9.5-0.5,14.2c-2.8,1.8-5.6,1.8-8.3,0C409.1,259.6,409.9,253.3,409.9,247z"/>
		<path class="st4" d="M402.7,265.8c-1.7,1.4-3.6,1.4-5.6,1.3c-1.9-0.2-2.9-1.4-3.3-3.2c-0.4-2.1,1.2-2.4,2.5-2.9
			c1.3,0.5,0.2,3,2.8,2.5c1.9-2.1,0.2-3.9-1.3-5.6c-1.4-1.6-3.3-2.9-3.7-5.1c-0.6-2.6-1.5-5.5,1.2-7.3c2.8-1.8,5.7-1.4,7.9,1.4
			c0.3,2.1-0.4,3.5-2.7,3.8c-0.7-1-0.3-3.3-3-2.5c-1.2,2.5,0.1,4.4,1.9,5.9C403,257.4,404.1,261.3,402.7,265.8z"/>
		<path class="st4" d="M176.8,230.2c1.6-1.7,3.3-1.1,4.9-0.1c1,1.3,2,2.6,3.1,3.9c-3.6,3.6-7.2,7.1-10.9,10.7c-2-1.2-3.6-2.9-5-5.3
			C170.6,235.5,174.6,233.6,176.8,230.2z"/>
		<path class="st4" d="M355,244.5c0,6.5,0.1,12.2,0,18c-0.1,4-3.9,6-7.5,4.3c-1.3-0.6-2.1-1.8-2.2-3.1c-0.2-1.7,1.2-2.1,2.5-2.5
			c1.5,0.1,0.5,2.9,2.6,2.4c1.4-3.3,1.6-6.9,0.9-14.9c-1-1.4-2.9-0.1-4.1-1.3C348.3,242.9,351.8,245,355,244.5z"/>
		<path class="st0" d="M328.1,351c3,0.7,7-2,8.9,2.5c-1.7,1.9-6-1.1-5.9,3.1c1.4,2,5.7-0.7,4.8,3.8c-1.3,1.1-2.9,0.2-4.5,0.9
			c-0.6,2.8-0.3,5.7-0.2,8.2c1.4,2.7,6.3-1,6,4.5c-3.1,0-6.1,0-9.1,0C328.1,366.3,328.1,358.7,328.1,351z"/>
		<path class="st4" d="M332.2,248.7c-1.6-0.9-4.5-0.8-2.7-4c2.8,0,5.8,0,8.7,0c2.7,3.3-1.3,2.9-2.6,4.3c0,5.7,0,11.6,0,17.6
			c-3.4-0.2-3.4-0.2-3.4-7.5C332.2,255.9,332.2,252.6,332.2,248.7z"/>
		<path class="st4" d="M303.7,351.7c0,5.9,0,12,0,17.5c1.3,2.2,5.9,0.1,4.2,4.6c-2.4,0-4.8,0-7.8,0c0.2-7.6-0.6-15,0.5-22.3
			C300.9,350.7,302.5,350.8,303.7,351.7z"/>
		<path class="st0" d="M356.9,266.9c-1.1-19.2-0.9-21.3,3-22c0,6.1,0,12.2,0,17.6c1.3,2.5,5.3-0.1,4.7,4.1
			C362.1,267.6,359.6,267.1,356.9,266.9z"/>
		<path class="st0" d="M409.8,355.4c-1-1.3-4-0.9-2.8-4c2.8-0.7,5.9-0.2,8.8-0.3c1.8,3.3-1.4,3.1-2.8,4.5c0,5.9,0,12,0,18.2
			C410.2,373.2,410.2,373.2,409.8,355.4z"/>
		<path class="st3" d="M418.7,265.9c1-4.7,0.5-9.5,0.5-14.2c-1.6-0.9-2.9-0.9-4.4,0.2c1.4,3.8,2,7.8,0.8,11.9
			c-2.9-1.5-3.4-5.8-2.1-15c1.6-1.7,4.4,0.6,5.8-1.7c0.5-0.3,1-0.6,1.5-0.9c0,6.7,0,13.3,0,20C420,266,419.4,265.9,418.7,265.9z"/>
		<path class="st4" d="M343.6,244.9c0,7.5,0,14.6,0,21.8c-4,1.2-3.3-1.6-3.3-3.6C339.8,245.3,339.8,245.3,343.6,244.9z"/>
		<path class="st4" d="M217.8,287.6c3.5-3.4,6.4-6.3,9.8-9.6c0.8,3.9,1.6,7.6,2.5,11.6C225.7,289.8,222.1,288.3,217.8,287.6z"/>
		<path class="st4" d="M216.2,250.3c-1.6,2.3-3.3,4-5.7,5.3c-1.8-1.7-3.6-3.4-5.6-5.3c1.8-2,3.6-3.9,5.6-6.1
			C212.4,246.3,214.3,248.2,216.2,250.3z"/>
		<path class="st3" d="M402.7,265.8c1.4-4.6,0.3-8.4-3.3-11.6c-1.8-1.5-3.1-3.4-1.9-5.9c2.6-0.8,2.2,1.5,3,2.5
			c2.3-0.3,3-1.7,2.7-3.8c0.5-0.3,1-0.7,1.5-1c0.1,7,0.2,14,0.3,21l-0.5,0l-0.5,0l0,0C403.5,266.6,403.1,266.2,402.7,265.8z"/>
		<path class="st0" d="M421,374c-1.9,0.2-3.2,0-3.1-2.5c0.1-6,0.1-12,0-18c-0.1-2.5,1.2-2.7,3.1-2.5
			C420.9,358.7,420.9,366.3,421,374z"/>
		<path class="st0" d="M313,374c-1.9,0.2-3.1-0.1-3-2.5c0.2-6,0.2-12,0-18c-0.1-2.5,1.2-2.7,3.1-2.5
			C313.4,358.7,313.5,366.3,313,374z"/>
		<path class="st0" d="M405,267c-0.1-7-0.2-14-0.3-21c0.5-0.5,0.9-1.1,1.4-1.6c0,0,0.4,0.3,0.4,0.3l0.4-0.2c0.5,0.5,0.9,1.1,1.4,1.6
			c0,6.7,0,13.3,0,20c-0.4,0.4-0.9,0.8-1.3,1.3c-0.3,0-0.6,0-1,0C405.7,267.2,405.3,267.1,405,267z"/>
		<path class="st3" d="M313,374c0.5-7.7,0.4-15.3,0-23c0.7,0,1.3,0,2,0c0,7.7,0,15.3,0,23C314.3,374,313.7,374,313,374z"/>
		<path class="st3" d="M328.1,351c0,7.6,0,15.3,0,22.9c-0.7,0-1.4,0-2.1,0c0-7.6,0-15.3,0-22.9C326.7,351,327.4,351,328.1,351z"/>
		<path class="st3" d="M421,374c0-7.7,0-15.3,0-23c0.7,0,1.4,0,2.2,0c0,7.6,0,15.3,0,22.9C422.4,374,421.7,374,421,374z"/>
		<path class="st3" d="M436.6,352.3c-1.8,6.5-0.8,13.1-0.6,19.7c-0.6,0-1.1,0-1.7,0c0-6.7,0-13.4,0-20
			C435.1,352.1,435.9,352.2,436.6,352.3z"/>
		<path class="st3" d="M408.3,266c0-6.7,0-13.3,0-20c0.5,0.3,1.1,0.6,1.6,1c0,6.3-0.7,12.6,0.5,18.9C409.7,265.9,409,266,408.3,266z
			"/>
		<path class="st3" d="M365.8,370.9c0.7-3.4-3.4-6.6-0.1-10c1.2,3.5,1.7,7.3,2.1,11.1C367.1,371.6,366.5,371.3,365.8,370.9z"/>
		<path class="st3" d="M346.9,374c0-2.9,0-5.8,0-8.7c1,1.9,2.2,3.6,1.8,5.8C347.7,371.8,348.3,373.5,346.9,374z"/>
		<path class="st4" d="M358.1,351.9c-2-0.3-3.5,0.9-4.9,2C353.4,350,355.4,350.2,358.1,351.9z"/>
		<path class="st3" d="M284.2,266c0-1.1-0.3-2.3,0.9-3c1.1,0.9,0.7,2,0.7,3C285.3,266,284.7,266,284.2,266z"/>
		<path class="st3" d="M191.9,386.6c-1,0.2-1.9,0.4-2.9,0.6C189.8,385.7,190.8,385.7,191.9,386.6z"/>
		<path class="st4" d="M358.1,364.2c0-1.1,0-2.3,0-3.4C358.6,361.9,358.6,363.1,358.1,364.2z"/>
		<path class="st3" d="M406.9,244.4l-0.4,0.2c0,0-0.4-0.3-0.4-0.3C406.4,244.4,406.6,244.4,406.9,244.4z"/>
		<path class="st3" d="M406,267.3c0.3,0,0.6,0,1,0C406.7,267.7,406.3,267.7,406,267.3z"/>
		<path class="st3" d="M404,267c-0.1,0.1-0.2,0.3-0.2,0.4C403.8,267.3,403.9,267.1,404,267C404,267,404,267,404,267z"/>
		<path class="st4" d="M358.1,353.2c0-0.4,0-0.9,0-1.3C358.6,352.3,358.5,352.8,358.1,353.2z"/>
		<path class="st0" d="M794,279.9c-0.3,0.1-0.6,0.2-0.9,0.2c-10,0-20.1,0-30.1,0c-4.8-1-6.7-4.1-6-8.6c0.6-4.5,4-6.4,8.1-6.4
			c8.7-0.1,17.3,0,26-0.1c3.6,0,6.2,1.8,7.7,4.7c1.5,2.9,0.9,6.1-1.7,8.4c-0.9-0.1-1.5,0.2-1.8,1.1c0,0-0.1,0-0.1,0
			C794.7,279.4,794.4,279.7,794,279.9z"/>
		<path class="st0" d="M805.9,308.9c1.7,1.2,1.3,2.9,0.8,4.4c-2.4,2-4.3,0.3-6.6-0.8c0,4,0,7.8,0,11.6c0,2.3-0.6,4.1-3.3,3.9
			c-2.4-0.1-3-1.8-2.9-3.8c0-3.5,0-7,0-10.5c-4.7,0.1-9.2,0.6-13.8-0.7c0,3.5,0,7.3,0,11.1c0,2-0.5,3.8-2.9,3.8
			c-2.6,0.1-3.4-1.6-3.3-3.9c0-3.5,0-7,0-10.8c-2.8,0.7-5.6,2-7.1-2c2.3-4,6.2-6.6,9.2-10c1.8-0.4,2.9,0.6,4,1.7
			c0,0.8,0,1.6,1.2,1.3c0.2,0,0.4,0.2,0.4,0.4c-0.8,2.5,0,3.4,2.5,2.5c0.2,0,0.4,0.2,0.4,0.4c-0.4,1.2,0.4,1.2,1.2,1.2
			c0.9,0.7,1.7,1.2,2.7-0.1c1.9-2.2,4.2-4.1,6.2-6.3c1.3-1.4,2.6-1.8,4.1-0.4c0.2,0.7,0.2,1.5,1.3,1.1c0.3,0,0.5,0.2,0.5,0.5
			c-0.4,0.6-0.2,0.8,0.4,0.4c0.3,0,0.5,0.2,0.5,0.5c-0.7,1.8-0.2,2.3,1.5,1.5c0.4,0,0.5,0.2,0.5,0.6c-0.4,0.6-0.2,0.8,0.4,0.5
			c0.2,0,0.4,0.2,0.4,0.4C804.4,308.8,805.1,308.9,805.9,308.9z"/>
		<path class="st0" d="M800.8,331.4c2.8,0,5.6,0,8.3,0c0.6,0.8,1.1,0.8,1.7,0c2.6-0.2,4.4,1,4.1,3.6c-0.2,2.3-2.5,2.2-4.3,2.2
			c-5.2,0.1-10.5,0.3-15.7,0.4c-0.3-0.4-0.5-0.4-0.8,0c-9.7,0-19.4,0-29.1,0c-0.7-2.3-2.7-1.5-4.2-1.6c-4-0.1-7.9-0.1-11.9,0
			c-2.7,0-4.1-1-3.9-3.8c0.3-0.1,0.6-0.2,1-0.3c2.3-0.1,4.7,0.8,6.8-0.5c5.5,0,11,0.1,16.5,0.1c2.7,1.1,5.5,0.4,8.2,0.5
			c7.2-0.6,14.5-0.8,21.7-0.4C799.8,332.2,800.3,332.1,800.8,331.4z"/>
		<path class="st0" d="M765.8,310c0,4.8-1.2,5.3-6.9,2.6c0,5.1,0,10,0,14.8c-5.4,1.1-5.4,1.1-6.1-13.9c-2.1,0.4-4.5,2-6.1-0.5
			c-1.8-2.9,1.2-4,2.5-5.7c1.8-2.2,3.6-4.3,4.8-5.7c3-0.5,4.1,0.3,5.1,1.5c0.8,1.9,0.2,5.3,4.2,4.2c0.3,0,0.4,0.2,0.4,0.4
			c-0.4,1.2,0.5,1.2,1.3,1.3c0,0,0.1,0.1,0.1,0.1C765.3,309.3,765.6,309.7,765.8,310z"/>
		<path class="st4" d="M745,332.2c-0.2,2.8,1.2,3.9,3.9,3.8c4-0.1,7.9-0.1,11.9,0c1.5,0,3.5-0.8,4.2,1.6c-6,0.7-11.9-0.4-17.9-0.6
			C744,337,742.7,335.1,745,332.2z"/>
		<path class="st4" d="M763,280.1c10,0,20.1,0,30.1,0C783,281.4,773,281.3,763,280.1z"/>
		<path class="st4" d="M763.3,307.2c-3.9,1.1-3.3-2.3-4.2-4.2C760.5,304.4,761.9,305.8,763.3,307.2z"/>
		<path class="st4" d="M777.5,331.9c-2.7-0.1-5.5,0.7-8.2-0.5C772.1,331.3,774.8,330.6,777.5,331.9z"/>
		<path class="st4" d="M784.3,307.2c-2.5,0.8-3.3,0-2.5-2.5C782.6,305.5,783.4,306.4,784.3,307.2z"/>
		<path class="st4" d="M752.8,331.3c-2.2,1.3-4.6,0.5-6.8,0.5C748.2,330.4,750.5,331.2,752.8,331.3z"/>
		<path class="st4" d="M803.3,306.2c-1.8,0.8-2.3,0.3-1.5-1.5C802.2,305.2,802.8,305.7,803.3,306.2z"/>
		<path class="st4" d="M786,308.9c-0.8,0-1.6-0.1-1.2-1.2C785.1,308.1,785.5,308.5,786,308.9z"/>
		<path class="st4" d="M805.9,308.9c-0.8,0-1.5-0.1-1.3-1.2C805.1,308.1,805.5,308.5,805.9,308.9z"/>
		<path class="st4" d="M795.2,279.2c0.3-0.9,0.9-1.1,1.8-1.1C796.7,278.9,796,279.1,795.2,279.2z"/>
		<path class="st4" d="M800.8,331.4c-0.5,0.7-1,0.8-1.6,0.1C799.8,331.4,800.3,331.4,800.8,331.4z"/>
		<path class="st4" d="M810.8,331.4c-0.6,0.8-1.1,0.8-1.7,0C809.7,331.4,810.3,331.4,810.8,331.4z"/>
		<path class="st4" d="M781.3,304.3c-1.2,0.3-1.2-0.5-1.2-1.3C780.5,303.5,780.9,303.9,781.3,304.3z"/>
		<path class="st4" d="M800.3,303.3c-1.1,0.4-1.1-0.4-1.3-1.1C799.4,302.5,799.9,302.9,800.3,303.3z"/>
		<path class="st4" d="M765,308.9c-0.8-0.1-1.6-0.1-1.3-1.3C764.1,308.1,764.5,308.5,765,308.9z"/>
		<path class="st4" d="M794,279.9c0.4-0.2,0.7-0.5,1.1-0.7C795,279.8,794.6,280,794,279.9z"/>
		<path class="st4" d="M804.2,307.3c-0.7,0.3-0.8,0.1-0.4-0.5C804.1,306.8,804.2,307,804.2,307.3z"/>
		<path class="st4" d="M801.2,304.2c-0.6,0.3-0.8,0.2-0.4-0.4C801.1,303.8,801.2,304,801.2,304.2z"/>
		<path class="st4" d="M765.8,310c-0.3-0.3-0.5-0.6-0.8-0.9C765.6,309.1,766,309.4,765.8,310z"/>
		<path class="st4" d="M794.1,337.6c0.3-0.4,0.5-0.4,0.8,0c0,0-0.4,0.2-0.4,0.2L794.1,337.6z"/>
		<path class="st4" d="M199.7,187.1c-2.3-3.5-2.7-6.9-3-10.5c1.8-1.4,3.8-0.5,6-0.7C202.3,179.9,201.9,183.5,199.7,187.1z"/>
		<path class="st4" d="M206.6,177.2c2-0.5,3.3,0.7,5,1.2c-1.2,3.4-3.5,5.6-6.9,8C205.4,182.8,206,180,206.6,177.2z"/>
		<path class="st4" d="M194.7,186.2c-3.3-2.1-5.3-4.5-6.8-7.4c1.5-1.3,2.9-1.9,4.8-1.7C193.2,179.9,193.9,182.7,194.7,186.2z"/>
		<path class="st4" d="M183.1,181.1c1.9-0.8,1.8,0.9,3.5,1.9C184.2,182.9,183.5,182.3,183.1,181.1z"/>
		<path class="st4" d="M214.2,183.1c-0.7-1.6,0.4-1.9,1.9-2.7C216,182.2,215.1,182.7,214.2,183.1L214.2,183.1z"/>
		<polygon class="st4" points="214.1,183.1 214,183.1 214.2,183.1 		"/>
		<path class="st4" d="M203.1,140c-2.4,1.2-4.1,0.9-6.3,0.5c-0.1-3.8,0.8-7.3,2.6-11.1C202.2,132.7,201.8,136.4,203.1,140z"/>
		<path class="st4" d="M204.9,131.1c3.7,0.7,4.7,4.1,6.8,6.4c-1.3,1.9-3.1,1.6-5,2.7C206.1,136.7,205.6,133.9,204.9,131.1
			L204.9,131.1z"/>
		<path class="st4" d="M187.8,137.7c1.6-2.9,3.6-5.4,6.9-7.5c-0.8,3.5-1.5,6.4-2.2,9.4C190.7,139.4,189.2,139.2,187.8,137.7z"/>
		<path class="st4" d="M213.9,134.1c1.5-0.6,2,0.1,2,1.5C214.5,135.9,214.1,135.1,213.9,134.1L213.9,134.1z"/>
		<path class="st4" d="M185.2,134.2c-0.4,1-0.6,1.9-1.9,1.5C183.1,134.5,183.5,134,185.2,134.2z"/>
		<polygon class="st4" points="205,131 204.8,130.7 204.9,131.1 		"/>
		<path class="st4" d="M214,134c-0.1-0.1-0.2-0.2-0.3-0.3c0,0,0-0.1,0.1-0.2C213.8,133.7,213.9,133.9,214,134
			C213.9,134.1,214,134,214,134z"/>
		<path class="st2" d="M729,196c-0.1-0.1-0.3-0.1-0.4-0.2C728.7,195.9,728.9,196,729,196C729,196,729,196,729,196z"/>
		<path class="st0" d="M728.3,211.9c-0.5-0.1-1.2-0.1-0.5-0.9C728.1,211.3,728.2,211.6,728.3,211.9z"/>
		<path class="st4" d="M687.7,206.3c-1-0.9-1.1-1.7,0.1-2.5c0,0,0.3,0.3,0.3,0.3c0,0.6,0,1.2,0,1.8L687.7,206.3z"/>
		<path class="st0" d="M779.1,177.1c1.8-0.3,3.5-1,4,1.3c0.3,1.2-0.7,1.7-1.8,1.8C778.8,180.5,778.8,179,779.1,177.1z"/>
		<path class="st0" d="M365.9,151.1c1.7,4.9,1.4,9.9,0.3,14.9C364.3,161.1,364.9,156.1,365.9,151.1z"/>
		<path class="st4" d="M311.1,166.1c-1.5-2.9-1.4-5.9-0.6-10.1C313.5,160,313.1,163,311.1,166.1z"/>
		<path class="st4" d="M310.3,153.6c-0.7-2.5,0-3.1,2.1-2.2C312.6,152.8,312,153.4,310.3,153.6z"/>
		<path class="st4" d="M421.6,150.6c2.7,3.2,2.8,12.2,0,16.5C421.6,161.2,421.6,156.2,421.6,150.6z"/>
		<path class="st0" d="M873.1,222c-1.3,1-1.9,0.2-2.1-1C872.1,220.4,872.7,221,873.1,222z"/>
		<path class="st4" d="M434.9,152.6c-0.4,0.2-0.8,0.8-1.3,0.9c-1,0.1-1.4-0.6-1.2-1.6c0.1-0.8,0.8-0.9,1.4-0.9
			C434.6,151,434.9,151.5,434.9,152.6z"/>
		<path class="st2" d="M327.6,163.5c0.9,1.1,1,2.1-0.1,3.1C327.5,165.5,327.5,164.5,327.6,163.5z"/>
		<path class="st0" d="M688.1,206c0-0.6,0-1.2,0-1.8c2,0.1,3,0.8,2.4,2.8C688.9,207.9,688.9,206.2,688.1,206z"/>
		<path class="st3" d="M176.4,378.8c0-10.4,0-20.4,0-30.3c0-1.3,0.2-2.6,0.3-4.5c17.5,0,34.9,0,52.2,0c0-0.6,0-1.2,0-1.8
			c-17.4,0-34.9,0-52.5,0c-0.1-4.4,1.6-6,4.8-6c17.5,0,35,0,52.5,0c3.2,0,4.8,1.6,4.7,4.5c-1.6,2.1-4.4-0.1-5.6,2.5
			c1.4,1.6,3.6,0.3,5.3,1.4c0,11.2,0,22.6,0,34.2C217.7,378.8,197.5,378.8,176.4,378.8z M197,375.7c1.7-2.4,0-5.1,1.5-7.8
			c4.4,2.8,10.7,2,13.7,7.9c2.1-0.5,4.5,0.8,6.4-0.9c0-9.3,0-18.3,0-27.3c-2.4-0.8-4.6-0.5-7-0.3c-0.8,1.6-1.5,3.3-3.7,4
			c-5.5,1.5-10.7,4.7-16.8,3.9c-2.7-0.3-3.9,1.3-4.8,3.9c-2.6,7.4,7.2,8.8,6.9,15c0,0.9,0.8,1.9,2,1.9
			C195.8,375.9,196.5,375.7,197,375.7z M229.3,361.3c-2.7-1.7-4.9-1.7-7.5-0.1C224.5,362.9,226.6,362.7,229.3,361.3z M222.6,368.4
			c0.8,2.4,2.2,4.1,5.7,4.8C227.1,370.2,225.2,368.9,222.6,368.4z M227.5,349.5c-2,1.2-4.4,1.9-5.7,5.3
			C225.2,353.7,227.2,352.5,227.5,349.5z M204.2,339.1c2.3,0.9,4.6,1.7,7.4-0.5C208.6,337.9,206.3,337.7,204.2,339.1z"/>
		<path class="st3" d="M213.7,381.9c-4,1.5-8.7,1.5-13.6,0C205.3,380.7,209.5,381.2,213.7,381.9z"/>
		<path class="st3" d="M379,356c0,1-0.7,1.4-1.5,1.5c-0.9,0-1.4-0.7-1.3-1.6c0-0.9,0.5-1.6,1.4-1.5C378.4,354.6,379,355.1,379,356z"
			/>
		<path class="st3" d="M310.2,264.2c-0.2-3.7-0.6-6.7,0.3-9.8C314,256.7,314.1,261.6,310.2,264.2z"/>
		<path class="st3" d="M312.9,249.7c-0.1,0.8-0.7,1.3-1.6,1.3c-1,0.1-1.4-0.5-1.4-1.5c0-0.9,0.3-1.6,1.4-1.5
			C312.2,248.1,312.8,248.6,312.9,249.7z"/>
		<path class="st3" d="M375,264.4c-1.2-5.9-0.4-11-0.6-16.3C378.5,249.5,379.1,260.2,375,264.4z"/>
		<path class="st3" d="M281,354.7c2.4,3,2.5,12.2,0.1,15.5C278.6,367.2,278.5,358.1,281,354.7z"/>
		<path class="st4" d="M197,375.7c-0.5,0.1-1.2,0.2-1.8,0.2c-1.2-0.1-2-1-2-1.9c0.3-6.2-9.6-7.6-6.9-15c0.9-2.6,2.1-4.2,4.8-3.9
			c6.1,0.8,11.3-2.4,16.8-3.9c2.2-0.6,2.9-2.3,3.7-4c2.4-0.1,4.5-0.5,7,0.3c0,9,0,18.1,0,27.3c-1.9,1.7-4.3,0.4-6.4,0.9
			c-3-5.9-9.3-5-13.7-7.9C197,370.6,198.7,373.3,197,375.7z M198.3,365.6c4.2,1.5,8.2,3,12.2,4.5c0-6,0-11.5,0-17.4
			c-4.5,1.5-8.5,2.6-12.2,4.7C198.3,360.1,198.3,362.5,198.3,365.6z M213.4,372.7c3,1.2,3.3-0.3,3.4-2.7c0.8-17.3,0.4-20.2-3.4-20.4
			C213.4,357.3,213.4,365,213.4,372.7z M195.8,364.8c0.3-2.4,0.4-4.8-0.1-7.3c-2.4-0.3-4.4-0.7-6.5,0.3c-0.6,2.3-0.7,4.5,0.1,7.1
			C191.4,365.2,193.5,365.5,195.8,364.8z"/>
		<path class="st4" d="M229.3,361.3c-2.7,1.4-4.9,1.6-7.5-0.1C224.5,359.6,226.6,359.6,229.3,361.3z"/>
		<path class="st4" d="M222.6,368.4c2.6,0.5,4.5,1.7,5.7,4.8C224.9,372.6,223.4,370.9,222.6,368.4z"/>
		<path class="st4" d="M227.5,349.5c-0.3,3-2.2,4.2-5.7,5.3C223,351.4,225.5,350.7,227.5,349.5z"/>
		<path class="st0" d="M204.2,339.1c2.2-1.4,4.4-1.2,7.4-0.5C208.8,340.7,206.5,339.9,204.2,339.1z"/>
		<path class="st3" d="M198.3,365.6c0-3.1,0-5.5,0-8.2c3.7-2.2,7.7-3.3,12.2-4.7c0,5.9,0,11.4,0,17.4
			C206.5,368.6,202.6,367.1,198.3,365.6z"/>
		<path class="st3" d="M213.4,372.7c0-7.7,0-15.4,0-23.2c3.8,0.3,4.2,3.1,3.4,20.4C216.7,372.4,216.4,373.9,213.4,372.7z"/>
		<path class="st3" d="M195.8,364.8c-2.4,0.7-4.4,0.4-6.5,0.2c-0.8-2.6-0.7-4.8-0.1-7.1c2.1-1.1,4.2-0.7,6.5-0.3
			C196.2,360,196.2,362.4,195.8,364.8z"/>
	</g>
</g>
</svg>
