<?xml version="1.0" encoding="utf-8"?>
<!-- Generator: Adobe Illustrator 22.0.1, SVG Export Plug-In . SVG Version: 6.00 Build 0)  -->
<svg version="1.1" id="Laag_1" xmlns="http://www.w3.org/2000/svg" xmlns:xlink="http://www.w3.org/1999/xlink" x="0px" y="0px"
	 viewBox="0 0 256 256" style="enable-background:new 0 0 256 256;" xml:space="preserve">
<style type="text/css">
	.st0{fill:#164E8D;}
	.st1{fill:#164E8E;}
</style>
<g>
	<path class="st0" d="M249,1c2.8,5,2.6,10.6,2.7,16c0.2,22.8-7.3,42.6-24,58.6c-2.4,2.3-5,4.3-8.1,5.6c-8.2,3.3-11.5,2.7-17.4-3.6
		c-5.8-6.2-11.7-12.3-17.4-18.5c-6.3-6.9-4.7-15.8,3.6-20.4c4-2.2,8.5-3.1,12.9-3.3c20.7-1.2,33.6-13.1,43.1-30.2
		c0.8-1.4,1.7-2.8,2.6-4.2C247.7,1,248.3,1,249,1z"/>
	<path class="st1" d="M12,257c-5.8-6.9-5.7-10.3,0.6-17.1c25.3-27.3,50.7-54.6,75.9-82.1c2.8-3.1,4.5-3.3,7.3-0.1
		c4,4.5,8.2,8.7,12.7,12.7c2.8,2.5,2.2,3.9-0.2,6.1c-22,20.3-44,40.7-66,61c-7.1,6.5-14.2,13-21.3,19.5C18,257,15,257,12,257z"/>
	<path class="st0" d="M47,1c7.1,5.6,13,12.6,19.6,18.7c2.1,2,1.8,3.2-0.1,5.1c-14,13.8-27.9,27.7-41.6,41.7
		c-2.3,2.4-3.6,1.8-5.5-0.3C13.3,59.8,6.6,54,1,47c0-2.3,0-4.7,0-7C13.7,26.7,26.7,13.7,40,1C42.3,1,44.7,1,47,1z"/>
	<path class="st0" d="M249,257c-6.1-3.5-13.2-3.4-19.9-5c-6.7-1.7-13.6-2.8-20.5-4.1c-2-0.4-3.4-0.8-1.3-3
		c12.9-12.9,25.8-25.9,39.6-39.6c1.4,6.8,2.5,12.7,3.9,18.5c2.1,8.7,2.7,17.8,6.1,26.3C257,257,257,257,249,257z"/>
	<path class="st1" d="M76.6,30.1c1,0.9,1.9,1.6,2.7,2.5c53.4,53.4,106.7,106.7,160.1,160c1.9,1.9,2.5,3,0.2,5.1
		c-4.4,4.1-8.7,8.3-12.7,12.7c-2,2.2-3.2,1.7-5.1-0.2c-9.2-9.4-18.6-18.7-27.9-28c-43.8-43.8-87.6-87.7-131.5-131.4
		c-3-3-3-4.6,0.1-7.3c4-3.5,7.6-7.5,11.4-11.2C74.7,31.6,75.7,30.9,76.6,30.1z"/>
	<path class="st1" d="M195.2,241.8c-1.2-1.2-2.4-2.1-3.4-3.2c-17.3-17.3-34.6-34.6-52-51.9c-35.5-35.5-70.9-71-106.5-106.3
		c-3.2-3.2-3.2-4.9,0.1-7.7c3.7-3.1,7.1-6.6,10.2-10.2c2.8-3.4,4.5-2.6,7.3,0.2c22.4,22.6,44.9,45.1,67.4,67.6
		c30.3,30.3,60.5,60.6,90.9,90.7c3,3,3,4.6-0.1,7.2c-4.1,3.6-7.8,7.7-11.7,11.6C196.9,240.4,196.1,241,195.2,241.8z"/>
	<path class="st1" d="M200.5,92c-0.9,0.5-1.9,0.8-2.7,1.4c-6.5,5.9-13.1,11.8-19.4,17.9c-2,1.9-3.2,2.1-5.2,0
		c-6.4-6.6-12.9-13-19.4-19.4c-1.6-1.6-1.9-2.6-0.2-4.4c6.6-6.9,12.9-13.9,19.4-20.8c1.2-1.3,2-2.6,3.9-0.6
		c7.2,7.9,14.5,15.6,21.7,23.4C199.1,90,199.4,90.5,200.5,92z"/>
</g>
</svg>
