<?xml version="1.0" encoding="utf-8"?>
<!-- Generator: Adobe Illustrator 22.0.1, SVG Export Plug-In . SVG Version: 6.00 Build 0)  -->
<svg version="1.1" id="Laag_1" xmlns="http://www.w3.org/2000/svg" xmlns:xlink="http://www.w3.org/1999/xlink" x="0px" y="0px"
	 viewBox="0 0 256 256" style="enable-background:new 0 0 256 256;" xml:space="preserve">
<style type="text/css">
	.st0{fill:#134C8C;}
	.st1{fill:#154D8D;}
</style>
<g>
	<path class="st0" d="M1,120c4.7-6.8,11.4-8.1,19.1-7.7c10.3,0.6,20.6-0.2,31,0.4c9.4,0.6,17.3,4.5,24,10.8
		c14.1,13.2,28.2,26.4,42.3,39.6c7.7,7.3,8.6,12.9,3,22.8c2,0,3.7,0,5.5,0c32,0,64-0.1,96,0c11.6,0,18.5,11,13.1,20.7
		c-3.1,5.6-8.2,7.3-14.3,7.3c-24.3-0.1-48.6,0-73,0c-19.2,0-38.3-0.1-57.5,0.1c-6.1,0.1-10.9-1.8-15.3-6
		c-10-9.5-20.2-18.9-30.3-28.3c-7.6-7.1-16.5-11.3-27-10.9C10.5,169,4.9,167,1,161C1,147.3,1,133.7,1,120z"/>
	<path class="st1" d="M257,110c-16.3-0.1-32.6-0.3-49-0.2c-3.8,0-5.2-0.7-5.1-4.9c0.3-11.3,0-22.7,0.2-34c0-3.1-0.9-3.9-4-3.9
		c-12.5-0.1-12.5-0.2-12.5,12.3c0,8.8-0.1,17.7,0.1,26.5c0.1,3-0.9,4-4,4c-15.3-0.1-30.7-0.1-46,0c-2.9,0-4.2-0.6-4.1-3.8
		c0.2-8.7,0.1-17.3,0.1-26c0-5.6,2.6-9.7,7.6-11.8c2.1-0.9,2.6-2,2.9-3.9c0.7-4.6,1.8-9.2,4.3-13.2c3.6-5.7,8.8-7.9,15.4-6.4
		c7.3,1.6,13.5,5.6,19.5,9.8c2.3,1.6,3.3,2,5.2-0.8c3.9-5.6,11.3-5.3,15.1,0.3c1.6,2.4,2.6,2.2,4.5,0.8c5.5-4.1,11.3-7.6,17.9-9.7
		c9.1-2.8,16.6,0.3,18.7,9.6c2,8.8,6.9,14.8,13.2,20.3C257,86.7,257,98.3,257,110z"/>
	<path class="st1" d="M257,161c-3.9,6.4-9.8,8-16.9,7.8c-11-0.3-21.9-0.2-32.9,0c-3.2,0.1-4.3-0.8-4.2-4.2c0.2-11.5,0.2-22.9,0-34.4
		c-0.1-3.3,0.9-4.2,4.2-4.2c16.6,0.1,33.3,0,49.9,0C257,137.7,257,149.3,257,161z"/>
	<path class="st1" d="M160,126.1c7.7,0,15.3,0.1,23-0.1c2.8-0.1,3.8,0.8,3.8,3.6c-0.1,11.8-0.1,23.6,0,35.4c0,2.9-1,3.7-3.8,3.6
		c-12.1-0.1-24.3,0.1-36.4-0.1c-9.4-0.1-13.7-4.5-13.8-13.8c-0.1-8.3,0.1-16.6-0.1-25c-0.1-3.1,0.9-4,3.9-3.9
		C144.3,126.3,152.1,126.1,160,126.1z"/>
</g>
</svg>
