<?xml version="1.0" encoding="utf-8"?>
<!-- Generator: Adobe Illustrator 22.0.1, SVG Export Plug-In . SVG Version: 6.00 Build 0)  -->
<svg version="1.1" id="Laag_1" xmlns="http://www.w3.org/2000/svg" xmlns:xlink="http://www.w3.org/1999/xlink" x="0px" y="0px"
	 viewBox="0 0 256 256" style="enable-background:new 0 0 256 256;" xml:space="preserve">
<style type="text/css">
	.st0{fill:#6BA6D9;}
</style>
<g>
	<path class="st0" d="M137,257c-6.3,0-12.7,0-19,0c-2-1.9-4.7-1.5-7-1.8C26.2,243.8-24,151.8,13.4,74.7C34.7,30.6,71.2,6.6,120,1.7
		c5.7,0,11.3,0,17,0c0.3,0.1,0.7,0.2,1,0.2C195.8,6.6,242.5,48.2,253.8,105c0.7,3.3,0.4,6.9,2.2,10c0,0.3,0,0.7,0,1
		c-1.3,8.6-0.3,17.3-0.5,26c-0.1,0.5-0.3,1-0.3,1.5c-6.9,56.2-47.2,99.6-102.7,110.8C147.3,255.3,142,255,137,257z M68.4,167.6
		c0.9-0.9,2.1-1.8,3.1-2.9c17.8-17.8,35.7-35.5,53.3-53.4c2.9-2.9,4.4-3,7.3,0c17.8,18.1,35.8,35.8,53.6,53.9c2.6,2.6,4.1,2.8,6.7,0
		c5.1-5.5,10.4-10.8,15.9-15.9c2.2-2.1,2.1-3.5,0-5.7c-25.9-25.7-51.6-51.6-77.4-77.4c-1.8-1.8-2.9-1.9-4.8,0
		c-25.7,25.9-51.5,51.7-77.4,77.4c-2.1,2.1-2.3,3.5,0,5.7c5.7,5.4,11.1,11,16.7,16.6C66.1,166.5,66.8,167.6,68.4,167.6z"/>
</g>
</svg>
